<?xml version="1.0" encoding="utf-8" ?>
<svg xmlns="http://www.w3.org/2000/svg" xmlns:xlink="http://www.w3.org/1999/xlink" width="20" height="44">
	<defs>
		<clipPath id="clip_0">
			<rect x="-298.69971" y="-1265.75" width="356.25" height="2999.1499" clip-rule="evenodd"/>
		</clipPath>
	</defs>
	<g clip-path="url(#clip_0)">
		<path fill="rgb(255,255,255)" stroke="none" transform="matrix(0.95 0 0 0.95 10.0503 21.5)" d="M-9.64903 -0.413505C-9.43625 -0.148758 -9.14752 7.99702e-07 -8.84644 7.7338e-07C-8.54536 7.47059e-07 -8.25662 -0.148758 -8.04384 -0.413506L-0.332708 -9.99029C-0.119692 -10.2547 -9.2787e-07 -10.6136 -9.60583e-07 -10.9878C-9.93297e-07 -11.362 -0.119692 -11.7208 -0.332708 -11.9853L-8.04385 -21.5621C-8.32803 -21.9332 -8.75182 -22.0835 -9.15078 -21.9547C-9.54975 -21.8259 -9.8611 -21.4382 -9.96403 -20.9421C-10.067 -20.446 -9.94529 -19.9196 -9.6462 -19.5671L-2.73765 -10.9878L-9.6462 -2.40852C-9.85959 -2.14454 -9.97979 -1.78595 -9.98032 -1.41174C-9.98085 -1.03754 -9.86167 -0.678426 -9.64903 -0.413505Z"/>
	</g>

</svg>