<?xml version="1.0" encoding="UTF-8"?>
<svg width="147px" height="34px" viewBox="0 0 147 34" version="1.1" xmlns="http://www.w3.org/2000/svg" xmlns:xlink="http://www.w3.org/1999/xlink">
    <!-- Generator: Sketch 58 (84663) - https://sketch.com -->
    <title>Group</title>
    <desc>Created with Sketch.</desc>
    <defs>
        <polygon id="path-1" points="0.000153903889 0.933 54.0955125 0.933 54.0955125 35 0.000153903889 35"></polygon>
    </defs>
    <g id="Outstanding-Designs-1.26" stroke="none" stroke-width="1" fill="none" fill-rule="evenodd">
        <g id="ATC-Blog-Copy" transform="translate(-43.000000, -25.000000)">
            <g id="Header">
                <g id="Group" transform="translate(43.000000, 24.000000)">
                    <g id="Group-62" transform="translate(59.000000, 6.000000)" fill="#FEFEFE">
                        <path d="M6.85028322,4.34372525 C6.740234,4.64206869 6.62890515,4.96336162 6.51629664,5.30792727 C6.40336823,5.65281616 6.29171946,6.00061414 6.18199016,6.35132121 C6.07194094,6.70202828 5.96061208,7.04853333 5.84800358,7.38986667 C5.73539508,7.73184646 5.62374631,8.05249293 5.514017,8.3501899 L8.17759195,8.3501899 L6.85028322,4.34372525 Z M5.27088501,0.591644444 C5.2766434,0.556735354 5.29583803,0.518917172 5.32718926,0.477866667 C5.35918031,0.437139394 5.3982094,0.398674747 5.44427651,0.363765657 C5.49066353,0.328533333 5.53992975,0.301381818 5.59207517,0.280371717 C5.64422058,0.260008081 5.69316689,0.249987879 5.73955391,0.249987879 L7.96069262,0.249987879 C8.05890515,0.249987879 8.1427217,0.280371717 8.21214228,0.341785859 C8.28188277,0.403523232 8.33370828,0.45750303 8.36857852,0.504048485 L8.58547785,1.00376566 L13.1406837,12.8738263 C13.1867508,12.9905131 13.1777933,13.0852202 13.114451,13.1585939 C13.0507888,13.2316444 12.9410595,13.2681697 12.7846233,13.2681697 L10.2947597,13.2681697 C10.161677,13.2681697 10.0586658,13.2432808 9.98668591,13.1938263 C9.91438613,13.1440485 9.85776197,13.0609778 9.81745324,12.9436444 C9.70164564,12.6459475 9.58871723,12.3492202 9.47898792,12.0541091 C9.3689387,11.7586747 9.2592094,11.4619475 9.14948009,11.1642505 L4.54212886,11.1642505 C4.43239955,11.4619475 4.32075078,11.7586747 4.20814228,12.0541091 C4.09521387,12.3492202 3.98388501,12.6459475 3.8741557,12.9436444 C3.79865682,13.1602101 3.65149799,13.2681697 3.43171946,13.2681697 L0.872115436,13.2681697 C0.762066219,13.2681697 0.671211633,13.2390788 0.598591946,13.1805737 C0.526612081,13.1217455 0.513175839,13.0341495 0.559882774,12.9174626 L5.27088501,0.591644444 Z" id="Fill-1"></path>
                        <path d="M23.0658754,4.54574545 C23.0658754,4.37055354 23.0338843,4.19503838 22.9705421,4.01984646 C22.90656,3.84465455 22.816985,3.68368485 22.7014973,3.53726061 C22.5860096,3.39148283 22.4468485,3.26865455 22.2849738,3.16909899 C22.1230991,3.06986667 21.9436293,3.00554343 21.7472043,2.97645253 C21.5853295,2.96481616 21.4330521,2.95447273 21.2916517,2.94574545 C21.1499313,2.93701818 20.9950946,2.93249293 20.8274615,2.93249293 L19.6300365,2.93249293 L19.6300365,6.14994747 L21.2263899,6.14994747 C21.3306808,6.14994747 21.4231349,6.14703838 21.5040723,6.1412202 C21.5853295,6.13540202 21.6745846,6.12667475 21.7727971,6.11439192 C21.9756204,6.09111919 22.1576494,6.03132121 22.3198441,5.93499798 C22.4813989,5.83867475 22.6176808,5.71907879 22.7274101,5.57588687 C22.8374593,5.43237172 22.9212758,5.27140202 22.9791796,5.09330101 C23.0367635,4.9152 23.0658754,4.73289697 23.0658754,4.54574545 L23.0658754,4.54574545 Z M16.2725756,0.653058586 C16.2725756,0.530553535 16.3039268,0.432290909 16.3679089,0.359240404 C16.4312512,0.286836364 16.5265846,0.249987879 16.6539089,0.249987879 L22.2590611,0.249987879 C22.8547345,0.249987879 23.4129783,0.362149495 23.9334727,0.587442424 C24.4539671,0.812735354 24.9079201,1.11754343 25.2959716,1.50348283 C25.6830633,1.88909899 25.9882579,2.34065455 26.2112356,2.85814949 C26.4335734,3.37532121 26.5449022,3.92610909 26.5449022,4.51051313 C26.5449022,4.90808889 26.4914772,5.28594747 26.384947,5.64602828 C26.277777,6.00546263 26.1286987,6.34162424 25.9377121,6.65386667 C25.7470454,6.96675556 25.5199089,7.24990707 25.2569425,7.50429091 C24.9933362,7.75867475 24.7057367,7.9762101 24.393504,8.15754343 L26.6232803,12.4002909 C26.6639089,12.4820687 26.7157345,12.5783919 26.7793966,12.6892606 C26.8430588,12.8007758 26.87473,12.897099 26.87473,12.9788768 C26.87473,13.0722909 26.8443385,13.1440485 26.7838754,13.1938263 C26.7227725,13.2432808 26.6405555,13.2681697 26.5365846,13.2681697 L23.560457,13.2681697 C23.4619246,13.2681697 23.3739492,13.2390788 23.2955711,13.1805737 C23.2178329,13.1217455 23.1669671,13.0435232 23.1439336,12.9436444 L21.0354034,8.93750303 L19.6300365,8.93750303 L19.6300365,12.8912808 C19.6300365,13.1427556 19.4969537,13.2681697 19.2311081,13.2681697 L16.6539089,13.2681697 C16.5381013,13.2681697 16.4459671,13.2374626 16.3765465,13.1757253 C16.306806,13.1149576 16.2725756,13.019604 16.2725756,12.8912808 L16.2725756,0.653058586 Z" id="Fill-3"></path>
                        <path d="M32.6099257,6.76353939 C32.6099257,7.24838788 32.6905432,7.7015596 32.8524179,8.12208485 C33.0142926,8.54293333 33.2407893,8.90980202 33.5325477,9.22204444 C33.824306,9.53525657 34.1694895,9.7805899 34.568098,9.95901414 C34.9667065,10.1371152 35.4056237,10.226004 35.8851696,10.226004 C36.3647154,10.226004 36.8049123,10.1371152 37.2067199,9.95901414 C37.6082076,9.7805899 37.9546707,9.53525657 38.2464291,9.22204444 C38.5378676,8.90980202 38.7646841,8.54293333 38.9265588,8.12208485 C39.0881136,7.7015596 39.169051,7.24838788 39.169051,6.76353939 C39.169051,6.28386263 39.0881136,5.83295354 38.9265588,5.40919596 C38.7646841,4.98543838 38.5378676,4.61533737 38.2464291,4.30018586 C37.9546707,3.98438788 37.6082076,3.73582222 37.2067199,3.55481212 C36.8049123,3.37347879 36.3647154,3.28297374 35.8851696,3.28297374 C35.4056237,3.28297374 34.9667065,3.37347879 34.568098,3.55481212 C34.1694895,3.73582222 33.824306,3.98438788 33.5325477,4.30018586 C33.2407893,4.61533737 33.0142926,4.98543838 32.8524179,5.40919596 C32.6905432,5.83295354 32.6099257,6.28386263 32.6099257,6.76353939 M29.2518251,6.77226667 C29.2518251,6.1526303 29.3302031,5.55820606 29.4863195,4.98802424 C29.6427557,4.41881212 29.8657333,3.88321616 30.1549324,3.38414545 C30.4441315,2.88410505 30.7902747,2.4296404 31.1924022,2.02107475 C31.5945298,1.61153939 32.0420846,1.26244848 32.533787,0.972832323 C33.0258094,0.683862626 33.5539817,0.459216162 34.1183038,0.298569697 C34.682626,0.1376 35.2715812,0.0567919192 35.8851696,0.0567919192 C36.4926796,0.0567919192 37.0803553,0.1376 37.6478765,0.298569697 C38.2147579,0.459216162 38.7445298,0.683862626 39.2365521,0.972832323 C39.7282546,1.26244848 40.177089,1.61153939 40.5820957,2.02107475 C40.9874224,2.4296404 41.3332456,2.88410505 41.6198855,3.38414545 C41.9062054,3.88321616 42.1288631,4.41881212 42.2881785,4.98802424 C42.447174,5.55820606 42.5268318,6.1526303 42.5268318,6.77226667 C42.5268318,7.3915798 42.447174,7.98632727 42.2881785,8.55618586 C42.1288631,9.12572121 41.9062054,9.65776162 41.6198855,10.1516606 C41.3332456,10.6455596 40.9874224,11.095499 40.5820957,11.5014788 C40.177089,11.9077818 39.7282546,12.2575192 39.2365521,12.549398 C38.7445298,12.8412768 38.2147579,13.0665697 37.6478765,13.2246303 C37.0803553,13.3820444 36.4926796,13.4609131 35.8851696,13.4609131 C35.2715812,13.4609131 34.682626,13.3820444 34.1183038,13.2246303 C33.5539817,13.0665697 33.0258094,12.8412768 32.533787,12.549398 C32.0420846,12.2575192 31.5945298,11.9077818 31.1924022,11.5014788 C30.7902747,11.095499 30.4441315,10.6455596 30.1549324,10.1516606 C29.8657333,9.65776162 29.6427557,9.12572121 29.4863195,8.55618586 C29.3302031,7.98632727 29.2518251,7.3915798 29.2518251,6.77226667" id="Fill-5"></path>
                        <path d="M49.3468121,8.07621818 C49.3468121,8.50934949 49.4059955,8.87621818 49.5250022,9.17747071 C49.643689,9.47872323 49.8001253,9.7243798 49.994311,9.91476364 C50.1881767,10.104501 50.4146734,10.2434909 50.6728412,10.3310869 C50.9303691,10.4193293 51.1984541,10.4629657 51.4767763,10.4629657 C51.7666152,10.4629657 52.0404586,10.4118949 52.2983065,10.3097535 C52.5561544,10.2069657 52.7823311,10.0547232 52.9765168,9.85334949 C53.1703826,9.65132929 53.3242595,9.40114747 53.4371879,9.10312727 C53.5501163,8.80478384 53.6067405,8.46215758 53.6067405,8.07621818 L53.6067405,0.635733333 C53.6067405,0.530682828 53.6425705,0.439854545 53.7151902,0.363894949 C53.7874899,0.287935354 53.8844228,0.250117172 54.0056689,0.250117172 L56.5390403,0.250117172 C56.672123,0.250117172 56.7767338,0.289228283 56.8519128,0.36809697 C56.9267718,0.446965657 56.9645213,0.53650101 56.9645213,0.635733333 L56.9645213,8.02579394 C56.9645213,9.04850101 56.8157629,9.90797576 56.5179262,10.6032485 C56.2197696,11.2988444 55.8192416,11.8580364 55.3160224,12.2817939 C54.8128031,12.7055515 54.2299262,13.0097131 53.5677114,13.1939556 C52.9051767,13.3778747 52.2100112,13.4696727 51.4809351,13.4696727 C50.752179,13.4696727 50.055094,13.3749657 49.39,13.1852283 C48.724906,12.9951677 48.1407494,12.6851879 47.6372103,12.2556121 C47.134311,11.8260364 46.7334631,11.2652283 46.4356264,10.5725414 C46.1374698,9.88017778 45.9887114,9.0313697 45.9887114,8.02579394 L45.9887114,0.635733333 C45.9887114,0.53650101 46.0216622,0.446965657 46.0885235,0.36809697 C46.1544251,0.289228283 46.2366421,0.250117172 46.3348546,0.250117172 L48.9312483,0.250117172 C49.0179441,0.250117172 49.1084787,0.286642424 49.2038121,0.360016162 C49.2988255,0.432420202 49.3468121,0.524864646 49.3468121,0.635733333 L49.3468121,8.07621818 Z" id="Fill-7"></path>
                        <path d="M60.9035794,0.63570101 C60.9035794,0.530650505 60.9352506,0.440145455 60.9989128,0.363862626 C61.0628949,0.28790303 61.1582282,0.250084848 61.2852327,0.250084848 L64.122519,0.250084848 C64.2034564,0.250084848 64.2872729,0.270448485 64.3742886,0.311175758 C64.4609843,0.352549495 64.5358434,0.422690909 64.5998255,0.521923232 C65.33434,1.71949899 66.0630962,2.90026667 66.7864139,4.06325657 C67.5090917,5.22624646 68.241047,6.40701414 68.9813199,7.60491313 L68.9813199,0.582690909 C69.0043535,0.477640404 69.0507405,0.395862626 69.1201611,0.33800404 C69.1895817,0.279175758 69.270519,0.250084848 69.3629732,0.250084848 L71.8358814,0.250084848 C71.9574474,0.250084848 72.0585391,0.284024242 72.1394765,0.350610101 C72.2204139,0.417842424 72.2610425,0.51319596 72.2610425,0.63570101 L72.2610425,12.9259636 C72.2610425,13.043297 72.2264922,13.1292768 72.1567517,13.185196 C72.0873311,13.2401455 71.9923177,13.2682667 71.8707517,13.2682667 L69.1028859,13.2682667 C69.0277069,13.2682667 68.9608456,13.2417616 68.9029418,13.1890747 C68.8453579,13.1370343 68.7845749,13.0665697 68.7209128,12.9789737 C67.951528,11.6928323 67.1911007,10.4222061 66.439311,9.16515556 C65.6872013,7.90875152 64.923255,6.63747879 64.1487517,5.35198384 L64.1487517,12.8826505 C64.1487517,13.0109737 64.1196398,13.107297 64.0620559,13.1716202 C64.0038322,13.2362667 63.8998613,13.2682667 63.7495034,13.2682667 L61.2852327,13.2682667 C61.1521499,13.2682667 61.055217,13.2314182 60.9947539,13.1583677 C60.9339709,13.0853172 60.9035794,12.9964283 60.9035794,12.8913778 L60.9035794,0.63570101 Z" id="Fill-9"></path>
                        <path d="M79.6963067,3.38808889 L79.6963067,10.1294222 L80.4250629,10.1294222 C80.5581456,10.1294222 80.6883492,10.1255434 80.8156736,10.1168162 C80.942998,10.1077657 81.0700025,10.0977455 81.1973268,10.0861091 C81.6311255,10.0505535 82.0361322,9.94453333 82.4120271,9.76610909 C82.7879219,9.58800808 83.1161501,9.35398788 83.3970315,9.06469495 C83.6772732,8.77540202 83.8970517,8.43503838 84.0563671,8.04295758 C84.2150427,7.65184646 84.2950204,7.2251798 84.2950204,6.76360404 C84.2950204,6.27229091 84.2038459,5.82138182 84.0218168,5.40893737 C83.8394678,4.99681616 83.592177,4.64061414 83.2799443,4.33968485 C82.9677116,4.03843232 82.6014141,3.80505859 82.1823313,3.63827071 C81.7629286,3.47180606 81.3156937,3.38808889 80.8419063,3.38808889 L79.6963067,3.38808889 Z M87.635206,6.77233131 C87.635206,7.39164444 87.5574678,7.98057374 87.4010315,8.53879596 C87.2449152,9.09669495 87.0222575,9.61709899 86.7330584,10.0987152 C86.4438593,10.581301 86.0983559,11.0176646 85.6962284,11.4097455 C85.2941009,11.8011798 84.8487855,12.1344323 84.3599622,12.4088566 C83.8711389,12.683604 83.3432866,12.8953212 82.7764051,13.0446545 C82.2095237,13.1936646 81.6224879,13.2680081 81.0152978,13.2680081 L76.7377743,13.2680081 C76.6338034,13.2680081 76.5413492,13.2450586 76.4600919,13.1978667 C76.3791546,13.1516444 76.338526,13.0520889 76.338526,12.9001697 L76.338526,0.653220202 C76.338526,0.530715152 76.3721166,0.431482828 76.438338,0.3552 C76.5048794,0.279240404 76.6046915,0.240775758 76.7377743,0.240775758 L81.0152978,0.240775758 C81.6224879,0.240775758 82.2082441,0.317058586 82.7722463,0.468977778 C83.3359286,0.621220202 83.8625013,0.837139394 84.3513246,1.11770505 C84.8401479,1.39859394 85.2870629,1.73475556 85.6920696,2.12586667 C86.0967564,2.51730101 86.4422597,2.95560404 86.7285796,3.44109899 C87.0148996,3.92627071 87.2375573,4.44893737 87.3968727,5.01039192 C87.5555483,5.57087677 87.635206,6.15851313 87.635206,6.77233131 L87.635206,6.77233131 Z" id="Fill-11"></path>
                        <path d="M3.25893579,20.4322586 L0.388378747,20.4322586 C0.350949217,20.4322586 0.320557718,20.4432485 0.296244519,20.4658747 C0.27225123,20.488501 0.260094631,20.5188848 0.260094631,20.5563798 L0.260094631,20.8414707 C0.260094631,20.8886626 0.27225123,20.9235717 0.296244519,20.9458747 C0.320557718,20.9688242 0.350949217,20.9798141 0.388378747,20.9798141 L1.55701186,20.9798141 L1.55701186,24.4956121 C1.55701186,24.5334303 1.56980828,24.5641374 1.59604094,24.5890263 C1.62195369,24.6135919 1.65202528,24.6255515 1.68529597,24.6255515 L1.96777696,24.6255515 C2.0087255,24.6255515 2.04007673,24.612299 2.06279038,24.5861172 C2.08518412,24.5596121 2.09606107,24.5292283 2.09606107,24.4956121 L2.09606107,20.9798141 L3.25893579,20.9798141 C3.30564273,20.9798141 3.33987315,20.9662384 3.36226689,20.9390869 C3.38498054,20.9116121 3.39585749,20.8792889 3.39585749,20.8414707 L3.39585749,20.5563798 C3.39233848,20.5146828 3.37666286,20.4839758 3.34979038,20.4629657 C3.3229179,20.442602 3.29220649,20.4322586 3.25893579,20.4322586" id="Fill-13"></path>
                        <path d="M7.66036063,20.4322586 L7.37819955,20.4322586 C7.34077002,20.4322586 7.31101834,20.4445414 7.28926443,20.4687838 C7.26687069,20.4930263 7.25535391,20.5221172 7.25535391,20.5563798 L7.25535391,22.1402182 L4.89953289,22.1402182 L4.89953289,20.5563798 C4.89953289,20.5221172 4.88641655,20.4930263 4.8605038,20.4687838 C4.83395123,20.4445414 4.80419955,20.4322586 4.77060895,20.4322586 L4.48268949,20.4322586 C4.44557987,20.4322586 4.41550828,20.4445414 4.39343445,20.4687838 C4.37136063,20.4930263 4.35984385,20.5221172 4.35984385,20.5563798 L4.35984385,24.5014303 C4.35984385,24.5838545 4.40079239,24.6255515 4.48268949,24.6255515 L4.76517047,24.6255515 C4.8544255,24.6255515 4.89953289,24.5838545 4.89953289,24.5014303 L4.89953289,22.688097 L7.25535391,22.688097 L7.25535391,24.5014303 C7.25535391,24.5838545 7.29598255,24.6255515 7.37819955,24.6255515 L7.66036063,24.6255515 C7.74993557,24.6255515 7.79472304,24.5838545 7.79472304,24.5014303 L7.79472304,20.5563798 C7.79472304,20.5188848 7.78096689,20.488501 7.75281477,20.4658747 C7.72466264,20.4432485 7.69427114,20.4322586 7.66036063,20.4322586" id="Fill-15"></path>
                        <path d="M11.827323,24.0776404 L9.56395615,24.0776404 L9.56395615,22.6883879 L11.3356206,22.6883879 C11.376889,22.6883879 11.4072805,22.6751354 11.4280747,22.6489535 C11.448549,22.6227717 11.4584662,22.5923879 11.4584662,22.5581253 L11.4584662,22.2704485 C11.4584662,22.2232566 11.4466295,22.1902869 11.4223163,22.1705697 C11.398323,22.1502061 11.3695311,22.1401859 11.3356206,22.1401859 L9.56395615,22.1401859 L9.56395615,20.9797818 L11.8164461,20.9797818 C11.8628331,20.9797818 11.8967436,20.9668525 11.9188174,20.9403475 C11.9399315,20.9141657 11.9501687,20.8828121 11.9501687,20.8472566 L11.9501687,20.5676606 C11.9501687,20.4774788 11.9076206,20.4322263 11.8222045,20.4322263 L9.14455347,20.4322263 C9.06233647,20.4322263 9.02138792,20.4752162 9.02138792,20.5618424 L9.02138792,24.5065697 C9.02138792,24.5860848 9.06233647,24.6255192 9.14455347,24.6255192 L11.8330814,24.6255192 C11.9152984,24.6255192 11.9559271,24.5838222 11.9559271,24.501398 L11.9559271,24.2104889 C11.9559271,24.1216 11.9136989,24.0776404 11.827323,24.0776404" id="Fill-17"></path>
                        <path d="M18.0619631,20.1234101 C18.4017081,19.7849859 18.809274,19.5121778 19.274104,19.3117737 C19.7379743,19.1116929 20.2530302,19.0098747 20.8003971,19.0098747 C21.1772517,19.0315313 21.5400302,19.1010263 21.8781756,19.2170667 C22.2176007,19.3337535 22.545189,19.5044202 22.8513434,19.7235717 C22.9054083,19.7633293 22.9521152,19.7914505 22.9943434,19.8082586 C23.1574978,19.8761374 23.2896208,19.8244202 23.4163054,19.6421172 L23.7579698,19.0680566 C23.803717,19.0105212 23.8270705,18.9413495 23.8270705,18.8624808 C23.8270705,18.7997737 23.807236,18.7380364 23.7682069,18.6782384 C23.7326969,18.6249051 23.6869497,18.5773899 23.632245,18.5373091 L23.6316051,18.5373091 C23.192368,18.2215111 22.7182606,17.9777939 22.2233591,17.8116525 C21.7297371,17.6471273 21.1993255,17.5637333 20.64716,17.5637333 C20.178811,17.5637333 19.7235783,17.6257939 19.2942584,17.748299 C18.8646186,17.870804 18.4564128,18.0443798 18.0811577,18.2648242 C17.704943,18.4872081 17.3594396,18.7574303 17.0536051,19.0683798 C16.7464911,19.3815919 16.4793658,19.7316525 16.2592673,20.1088646 C16.0391689,20.4873697 15.867057,20.9001374 15.7474105,21.3352081 C15.6287237,21.7693091 15.5682606,22.2273293 15.5682606,22.6956929 C15.5682606,23.1689051 15.6287237,23.6288646 15.7474105,24.0626424 C15.8676969,24.4990061 16.038849,24.910804 16.2563881,25.2851071 C16.4745671,25.6613495 16.7404128,26.0097939 17.0475268,26.3204202 C17.3540011,26.6297535 17.6985447,26.8996525 18.0712405,27.1220364 C18.4442562,27.3457131 18.8515022,27.5192889 19.281462,27.6392081 C19.7120615,27.760097 20.1672942,27.8211879 20.6346834,27.8211879 C21.2124418,27.8211879 21.7585291,27.7339152 22.2566298,27.5622788 C22.7547304,27.3912889 23.2176409,27.1504808 23.6261667,26.8508444 C23.7547707,26.7755313 23.8200324,26.6688646 23.8200324,26.5350465 C23.8200324,26.4752485 23.8014776,26.4102788 23.7634083,26.3385212 L23.3900727,25.7159758 C23.3107349,25.5824808 23.2166812,25.514602 23.1111107,25.514602 C23.0452092,25.514602 22.9668311,25.5411071 22.8686186,25.5986424 C22.6430817,25.7431273 22.4293814,25.8653091 22.2335962,25.9619556 C22.0342919,26.0602182 21.8423456,26.1416727 21.662236,26.2037333 C21.4818065,26.2657939 21.3023367,26.3104 21.1283054,26.3359354 C20.4622517,26.4351677 19.8115537,26.3482182 19.21716,26.1025616 C18.780802,25.9215515 18.3917908,25.6665212 18.0616432,25.3432889 C17.7311756,25.0203798 17.4643702,24.6308848 17.2679452,24.1848242 C17.07216,23.7390869 16.9733076,23.2474505 16.9733076,22.722198 C16.9733076,22.2266828 17.0702405,21.7502384 17.2618669,21.3054707 C17.4538132,20.8590869 17.7228579,20.4611879 18.0619631,20.1234101" id="Fill-19"></path>
                        <path d="M32.1036673,21.5812525 C32.0166517,21.796202 31.893806,21.9888485 31.7386494,22.1546667 C31.5844526,22.3185455 31.3982647,22.4513939 31.1855242,22.5483636 C30.9734235,22.6453333 30.7411685,22.6941414 30.4945174,22.6941414 L27.7445667,22.6941414 L27.7445667,19.1091717 L30.4686047,19.1091717 C30.7187747,19.1091717 30.9542289,19.1589495 31.1685689,19.2581818 C31.3832289,19.3564444 31.5719761,19.4899394 31.7290521,19.6554343 C31.8854884,19.8202828 32.0108933,20.0129293 32.1011081,20.2291717 C32.190683,20.443798 32.2361103,20.6703838 32.2361103,20.9011717 C32.2361103,21.1374545 32.1916427,21.366303 32.1036673,21.5812525 M33.1446562,22.6366061 C33.3007725,22.3883636 33.4236181,22.1158788 33.5103139,21.8269091 C33.5970096,21.536 33.6411573,21.2292525 33.6411573,20.9147475 C33.6411573,20.4735354 33.5586204,20.0526869 33.3964257,19.6641616 C33.2335913,19.2759596 33.0067747,18.9313939 32.7223743,18.6411313 C32.4366942,18.3508687 32.0985488,18.1187879 31.7168955,17.9503838 C31.3336427,17.7813333 30.9139201,17.696 30.4686047,17.696 L26.6879022,17.696 C26.4543676,17.696 26.3257635,17.8353131 26.3257635,18.0877576 L26.3257635,27.3102222 C26.3257635,27.5458586 26.4543676,27.6754747 26.6879022,27.6754747 L27.3693116,27.6754747 C27.611164,27.6754747 27.7445667,27.5458586 27.7445667,27.3102222 L27.7445667,24.1073131 L30.0296875,24.1073131 C30.1570119,24.1073131 30.2593832,24.1060202 30.3358418,24.1037576 C30.4561282,24.1014949 30.52107,24.1037576 30.5812132,24.0985859 L32.1311796,27.3868283 C32.2393094,27.6253737 32.397985,27.6754747 32.512513,27.6754747 L33.3055711,27.6754747 C33.506155,27.6754747 33.6216427,27.5739798 33.6216427,27.396202 L33.6216427,27.3102222 L31.9168396,23.7617778 C32.1567725,23.6376566 32.38007,23.4844444 32.5816136,23.304404 C32.7994727,23.108202 32.9891796,22.8832323 33.1446562,22.6366061" id="Fill-21"></path>
                        <path d="M44.6589074,23.6584404 C44.5715718,23.9700364 44.4471266,24.2674101 44.2890908,24.5421576 C44.1320148,24.8143192 43.9397485,25.0667636 43.7174107,25.2910869 C43.4950729,25.5163798 43.2465025,25.7103192 42.9787374,25.8693495 C42.7093727,26.028703 42.415055,26.1544404 42.1050617,26.2420364 C41.4793168,26.4191677 40.7767933,26.4178747 40.162885,26.2420364 C39.8548112,26.1544404 39.5604935,26.028703 39.2888895,25.868703 C39.0192049,25.7103192 38.7696747,25.5157333 38.5473369,25.2910869 C38.3256389,25.0680566 38.1333727,24.8162586 37.9753369,24.5415111 C37.8179409,24.2693495 37.6938157,23.9719758 37.6058403,23.6584404 C37.5185047,23.3468444 37.474357,23.0158545 37.474357,22.6754909 C37.474357,22.3393293 37.5185047,22.0102788 37.6058403,21.696097 C37.6941356,21.380299 37.8179409,21.0835717 37.9753369,20.8136727 C38.1330528,20.5418343 38.325319,20.2913293 38.5473369,20.0670061 C38.7680752,19.8436525 39.0179253,19.6490667 39.2888895,19.4893899 C39.558894,19.3303596 39.8528917,19.2049455 40.1632049,19.1160566 C40.4719186,19.0278141 40.799187,18.9832081 41.135413,18.9832081 C41.6383123,18.9832081 42.1168984,19.0811475 42.5577351,19.2744404 C42.9988917,19.468703 43.3891826,19.7350465 43.7174107,20.0666828 C44.0456389,20.3992889 44.3095651,20.7939556 44.5011915,21.2393697 C44.6928179,21.6841374 44.7900707,22.1676929 44.7900707,22.6754909 C44.7900707,23.0152081 44.7456031,23.346198 44.6589074,23.6584404 M45.5271445,20.1064404 C45.3096054,19.7269657 45.0421602,19.3762586 44.731847,19.0646626 C44.4231333,18.7550061 44.07763,18.4851071 43.705574,18.2627232 C43.3344779,18.0403394 42.9272318,17.8661172 42.4950327,17.7449051 C41.6325539,17.5037737 40.6520282,17.5050667 39.7953078,17.7484606 C39.365668,17.8709657 38.9574622,18.0445414 38.5822072,18.2649859 C38.2069521,18.4867232 37.8611289,18.7566222 37.5549745,19.0685414 C37.2488201,19.3798141 36.9816949,19.7298747 36.7609566,20.1090263 C36.5398984,20.4891475 36.3674667,20.9019152 36.2487799,21.3350465 C36.1294532,21.7710869 36.0693101,22.2284606 36.0693101,22.6958545 C36.0693101,23.1671273 36.1294532,23.6270869 36.2487799,24.0624808 C36.3677866,24.4969051 36.5386188,24.9077333 36.7574376,25.2852687 C36.9743369,25.6602182 37.2405025,26.0086626 37.5485763,26.3202586 C37.8540908,26.6292687 38.1986345,26.8991677 38.5722899,27.122198 C38.9465852,27.3455515 39.3538313,27.5197737 39.7828313,27.6393697 C40.2134309,27.7599354 40.6689834,27.8210263 41.135413,27.8210263 C41.6021624,27.8210263 42.0583548,27.7599354 42.4915136,27.6393697 C42.9233928,27.5197737 43.3325584,27.3468444 43.7081333,27.1260768 C44.0817888,26.9059556 44.4272922,26.6373495 44.7356859,26.3267232 C45.0408805,26.0177131 45.3083257,25.6702384 45.5300237,25.2920566 C45.7501221,24.9171071 45.922234,24.5056323 46.0422004,24.0689455 C46.1608872,23.6351677 46.2213503,23.1771475 46.2213503,22.7087838 C46.2213503,22.2355717 46.1596076,21.7746424 46.0383615,21.3379556 C45.9177553,20.9025616 45.7453235,20.488501 45.5271445,20.1064404" id="Fill-23"></path>
                        <path d="M72.2607226,17.7907071 C72.1804251,17.728 72.0914899,17.696 71.9964765,17.696 L71.3345817,17.696 C71.1333579,17.696 71.0053937,17.8052525 70.9730828,18.0153535 L70.9730828,25.1807677 L65.5301253,17.8724848 C65.4459888,17.7554747 65.3333803,17.696 65.1954989,17.696 L64.3176644,17.696 C64.2088949,17.696 64.1202796,17.7331717 64.0537383,17.805899 C63.9887964,17.8779798 63.9555257,17.9678384 63.9555257,18.0745051 L63.9555257,27.3102222 C63.9555257,27.5458586 64.0838098,27.6754747 64.3176644,27.6754747 L64.9789195,27.6754747 C65.2207718,27.6754747 65.3541745,27.5458586 65.3541745,27.3102222 L65.3541745,19.9340606 L70.9410917,27.4989899 C71.0245884,27.616 71.1282394,27.6754747 71.2494855,27.6754747 L71.9964765,27.6754747 C72.2511253,27.6754747 72.3912461,27.5458586 72.3912461,27.3102222 L72.3912461,18.0612525 C72.3912461,17.9497374 72.3474183,17.8585859 72.2607226,17.7907071" id="Fill-25"></path>
                        <path d="M61.5551092,17.7804283 C61.5551092,17.7804283 61.5551092,17.7804283 61.5551092,17.7804283 C61.5547893,17.7801051 61.5544694,17.7801051 61.5541494,17.7797818 C61.5288765,17.7555394 61.4956058,17.7361455 61.4517781,17.7216 C61.4325834,17.7151354 61.4066707,17.713196 61.3836371,17.7093172 C61.3580443,17.7054384 61.3407691,17.6960646 61.3094179,17.6960646 L61.276787,17.6960646 L60.6020957,17.6960646 L60.5758631,17.6960646 C60.5445119,17.6960646 60.5144403,17.7038222 60.4843687,17.711903 C60.4763709,17.7138424 60.4677333,17.7138424 60.4600555,17.7161051 C60.4568564,17.717398 60.4539772,17.7193374 60.4507781,17.7203071 C60.3288922,17.7600646 60.2380376,17.8496 60.186532,17.9876202 L58.0706438,23.2747313 L57.1915298,25.4575192 L57.0280555,25.0554182 L55.6956282,21.6815192 L57.1643374,18.1030141 L57.1700957,17.9885899 C57.1700957,17.9084283 57.1451427,17.8402263 57.0955566,17.7830141 C57.0430913,17.7245091 56.9531964,17.6960646 56.8213933,17.6960646 L55.9697915,17.6960646 C55.8904537,17.6960646 55.7823239,17.7290343 55.717702,17.8877414 L54.9572747,19.8129131 L54.1968474,17.8877414 C54.1319056,17.7290343 54.0237758,17.6960646 53.9447579,17.6960646 L53.0934761,17.6960646 C52.9616729,17.6960646 52.8717781,17.7251556 52.8196327,17.7836606 C52.7700465,17.8395798 52.7444537,17.9084283 52.7444537,17.9885899 L52.7444537,18.0752162 L54.2195611,21.6808727 L52.8692188,25.099701 L52.7236595,25.4575192 L51.7917602,23.1441455 L49.7289772,17.9892364 C49.6777915,17.8531556 49.5888564,17.7652364 49.4708094,17.7238626 C49.465051,17.7216 49.4599324,17.7180444 49.454174,17.7157818 C49.4484157,17.7141657 49.4416975,17.7141657 49.4359391,17.7128727 C49.404268,17.7038222 49.372277,17.6960646 49.3390063,17.6960646 L49.3124537,17.6960646 L48.6380823,17.6960646 L48.6054515,17.6960646 C48.5635432,17.6960646 48.5369906,17.7064081 48.5053195,17.7128727 C48.4934828,17.7154586 48.4787669,17.7157818 48.4682098,17.7190141 C48.3098541,17.7668525 48.2759436,17.8916202 48.2759436,17.9753374 C48.2759436,17.9782465 48.2772233,17.9801859 48.2772233,17.9830949 C48.2772233,17.9850343 48.2762635,17.9866505 48.2762635,17.9885899 L48.2762635,18.0483879 L52.0985544,27.3448727 C52.1017535,27.3565091 52.1071919,27.3723475 52.1174291,27.4001455 C52.1308653,27.435701 52.1526192,27.4722263 52.1839705,27.5116606 C52.1974067,27.5291152 52.2201204,27.5430141 52.2377154,27.5591758 C52.2380353,27.5598222 52.2380353,27.5604687 52.2386752,27.5611152 C52.2399548,27.5624081 52.2415544,27.5627313 52.242834,27.5640242 C52.2639481,27.5827717 52.2802635,27.6037818 52.3061763,27.6202667 C52.3125745,27.6247919 52.3228116,27.6228525 52.3295298,27.6267313 C52.375277,27.6519434 52.4267826,27.6671354 52.4850063,27.6706909 C52.4920443,27.6710141 52.496843,27.6758626 52.503881,27.6758626 L52.9491964,27.6758626 C52.9504761,27.6758626 52.9514358,27.6752162 52.9527154,27.6752162 L52.9751092,27.6752162 C53.0023016,27.6752162 53.0269347,27.6658424 53.0522076,27.6593778 C53.1305857,27.6441859 53.1996864,27.6176808 53.2486327,27.5672566 C53.3106953,27.5013172 53.3449257,27.4363475 53.3503642,27.3733172 L54.9575946,23.495499 L56.565145,27.3723475 C56.5699436,27.4363475 56.6032143,27.5000242 56.6665566,27.5666101 C56.7110242,27.6134788 56.7734067,27.6393374 56.8441069,27.6561455 C56.8748183,27.6658424 56.9058497,27.6758626 56.9394403,27.6758626 L57.4045902,27.6758626 C57.4058698,27.6758626 57.4065096,27.6752162 57.4077893,27.6752162 L57.4109884,27.6752162 C57.4135477,27.6752162 57.4151472,27.6736 57.4173866,27.6736 C57.4823284,27.6716606 57.537353,27.6542061 57.5862993,27.6267313 C57.5926975,27.6231758 57.6022949,27.6247919 57.6083732,27.6205899 C57.6326864,27.6044283 57.6467624,27.586004 57.666277,27.5688727 C57.6688362,27.5659636 57.6729951,27.5649939 57.6755544,27.5620848 C57.676834,27.5607919 57.676834,27.559499 57.6781136,27.5582061 C57.694749,27.5423677 57.7174626,27.5284687 57.7299391,27.5116606 C57.7609705,27.473196 57.7833642,27.435701 57.7971204,27.3988525 C57.8076774,27.371701 57.8134358,27.3561859 57.816315,27.343903 L61.6331673,18.0768323 L61.6389257,17.9885899 C61.6389257,17.9866505 61.6376461,17.9850343 61.6376461,17.9830949 C61.637966,17.9805091 61.6392456,17.9782465 61.6392456,17.9753374 C61.6392456,17.9268525 61.6213306,17.8441051 61.5551092,17.7804283" id="Fill-27"></path>
                        <polygon id="Fill-29" points="76.4892358 20.7823192 77.4879964 20.7823192 77.4879964 24.672097 78.0417615 24.672097 78.0417615 20.2719354 76.4892358 20.2719354"></polygon>
                        <path d="M81.1666794,24.186699 C80.9341045,24.186699 80.7268025,24.1204364 80.5511716,23.9898505 C80.3726615,23.8579717 80.231581,23.6637091 80.1320888,23.4106182 C80.0300374,23.1539717 79.9788517,22.8381737 79.9788517,22.4722747 C79.9788517,22.1060525 80.0300374,21.7902545 80.1320888,21.5342545 C80.231581,21.2811636 80.3726615,21.0865778 80.5511716,20.954699 C80.7268025,20.8241131 80.9341045,20.7581737 81.1666794,20.7581737 C81.4024535,20.7581737 81.6039971,20.822497 81.783147,20.954699 C81.9606973,21.0865778 82.1017779,21.2818101 82.2022298,21.5342545 C82.3039613,21.7912242 82.355147,22.1070222 82.355147,22.4722747 C82.355147,22.8368808 82.3039613,23.1526788 82.2022298,23.4106182 C82.1017779,23.6630626 81.9606973,23.8579717 81.783147,23.9898505 C81.6039971,24.1223758 81.4024535,24.186699 81.1666794,24.186699 M82.0749054,20.5083152 C81.8090597,20.3273051 81.5038651,20.2355071 81.1666794,20.2355071 C80.8294937,20.2355071 80.5242991,20.3273051 80.2590933,20.5083152 C79.9945273,20.6896485 79.7859456,20.9517899 79.6391067,21.2892444 C79.4932275,21.6228202 79.4190083,22.0207192 79.4190083,22.4722747 C79.4190083,22.9241535 79.4932275,23.3217293 79.6391067,23.6549818 C79.7859456,23.9927596 79.9948472,24.2552242 80.2590933,24.4359111 C80.5233394,24.6169212 80.828534,24.7087192 81.1666794,24.7087192 C81.5045049,24.7087192 81.8100195,24.6169212 82.0749054,24.4359111 C82.3388315,24.2558707 82.5483729,23.9934061 82.6977711,23.6556283 C82.8458897,23.3217293 82.9207488,22.9235071 82.9207488,22.4722747 C82.9207488,22.0213657 82.8458897,21.6228202 82.6977711,21.288598 C82.5483729,20.9514667 82.3388315,20.689002 82.0749054,20.5083152" id="Fill-31"></path>
                        <path d="M87.6768904,24.5548929 C87.6704922,24.5403475 87.6596152,24.5216 87.6445794,24.4989737 L85.7145593,22.1959434 C85.9887226,21.9056808 86.2600067,21.6176808 86.5277718,21.3332364 C86.7948971,21.0487919 87.0617025,20.7601455 87.3262685,20.4676202 L87.3262685,20.4734384 C87.3470626,20.4527515 87.3572998,20.4333576 87.3572998,20.4165495 C87.3572998,20.3955394 87.334906,20.385196 87.2897987,20.385196 L86.7315548,20.385196 C86.6886868,20.385196 86.6454989,20.4149333 86.602311,20.4734384 L84.6550157,22.5401859 L84.6550157,20.5106101 C84.6550157,20.4724687 84.6418993,20.4420848 84.6153468,20.4194586 C84.5891141,20.3968323 84.5590425,20.385196 84.525132,20.385196 L84.2349732,20.385196 C84.1937047,20.385196 84.1626734,20.3974788 84.1418792,20.4223677 C84.1214049,20.4469333 84.1111678,20.4763475 84.1111678,20.5106101 L84.1111678,24.4876606 C84.1111678,24.5710545 84.1524362,24.6127515 84.2349732,24.6127515 L84.525132,24.6127515 C84.6118277,24.6127515 84.6550157,24.5710545 84.6550157,24.4876606 L84.6550157,23.329196 L85.3425034,22.5889939 L86.9433356,24.5245091 C86.9804452,24.5839838 87.0220336,24.6127515 87.0671409,24.6127515 L87.6250649,24.6127515 C87.6660134,24.6127515 87.6871275,24.6024081 87.6871275,24.5817212 C87.6871275,24.5781657 87.6836085,24.5687919 87.6768904,24.5548929" id="Fill-33"></path>
                    </g>
                    <g id="Group-30">
                        <path d="M29.1154,9.4232 C29.1134,9.5442 29.2104,9.6452 29.3314,9.6472 L30.0254,9.6592 C30.1464,9.6612 30.2474,9.5642 30.2494,9.4432 L30.2614,8.7492 C30.2634,8.6282 30.1664,8.5272 30.0454,8.5262 L29.3514,8.5132 C29.2304,8.5112 29.1294,8.6092 29.1274,8.7292 L29.1154,9.4232 Z" id="Fill-1" fill="#FEFEFE"></path>
                        <path d="M30.9293,9.455 C30.9273,9.576 31.0243,9.677 31.1453,9.679 L31.8393,9.691 C31.9603,9.693 32.0613,9.596 32.0633,9.475 L32.0753,8.781 C32.0773,8.66 31.9803,8.559 31.8593,8.557 L31.1653,8.545 C31.0443,8.543 30.9433,8.64 30.9413,8.761 L30.9293,9.455 Z" id="Fill-3" fill="#FEFEFE"></path>
                        <path d="M29.0841,11.2372 C29.0821,11.3582 29.1791,11.4592 29.3001,11.4612 L29.9941,11.4732 C30.1151,11.4752 30.2151,11.3782 30.2171,11.2572 L30.2301,10.5632 C30.2321,10.4422 30.1341,10.3412 30.0141,10.3392 L29.3201,10.3272 C29.1991,10.3252 29.0981,10.4222 29.0961,10.5432 L29.0841,11.2372 Z" id="Fill-5" fill="#FEFEFE"></path>
                        <path d="M30.8981,11.2689 C30.8961,11.3899 30.9931,11.4909 31.1141,11.4929 L31.8081,11.5049 C31.9291,11.5069 32.0291,11.4099 32.0311,11.2889 L32.0441077,10.5949 C32.0451,10.4739 31.9481,10.3729 31.8271,10.3709 L31.1331,10.3589 C31.0131,10.3569 30.9121,10.4539 30.9101,10.5749 L30.8981,11.2689 Z" id="Fill-7" fill="#FEFEFE"></path>
                        <path d="M29.0524,13.0512 C29.0504,13.1722 29.1474,13.2732 29.2684,13.2752 L29.9624,13.2872 C30.0834,13.2892 30.1844,13.1922 30.1864,13.0712 L30.1984,12.3772 C30.2004,12.2562 30.1034,12.1552 29.9824,12.1532 L29.2884,12.1412 C29.1674,12.1392 29.0664,12.2362 29.0644,12.3572 L29.0524,13.0512 Z" id="Fill-9" fill="#FEFEFE"></path>
                        <path d="M30.8663,13.0824 C30.8643,13.2034 30.9613,13.3044 31.0823,13.3064 L31.7763,13.3184 C31.8973,13.3204 31.9973,13.2234 32.0003,13.1024 L32.0123,12.4084 C32.0143,12.2874 31.9173,12.1864 31.7963,12.1854 L31.1023,12.1724 C30.9813,12.1704 30.8803,12.2684 30.8783,12.3884 L30.8663,13.0824 Z" id="Fill-11" fill="#FEFEFE"></path>
                        <path d="M29.0211,14.8651 C29.0191,14.9861 29.1161,15.0861 29.2371,15.0891 L29.9311,15.1001 C30.0521,15.1031 30.1521,15.0061 30.1541,14.8851 L30.1671077,14.1911 C30.1681,14.0701 30.0711,13.9691 29.9511,13.9671 L29.2561,13.9551 C29.1361,13.9531 29.0351,14.0501 29.0331,14.1711 L29.0211,14.8651 Z" id="Fill-13" fill="#FEFEFE"></path>
                        <path d="M30.8346,14.8964 C30.8326,15.0174 30.9296,15.1184 31.0506,15.1204 L31.7446,15.1324 C31.8656,15.1344 31.9666,15.0374 31.9686,14.9164 L31.9806,14.2224 C31.9826,14.1014 31.8856,14.0004 31.7646,13.9984 L31.0706,13.9864 C30.9496,13.9844 30.8486,14.0814 30.8466,14.2024 L30.8346,14.8964 Z" id="Fill-15" fill="#FEFEFE"></path>
                        <path d="M13.7159,13.5141 C13.7199,13.6351 13.8229,13.7281 13.9439,13.7211 L16.0369,13.6021 C16.1579,13.5951 16.2549,13.4901 16.2529,13.3691 L16.2489,13.0941 C16.2469,12.9731 16.1469,12.8791 16.0259,12.8861 L13.9179,13.0011 C13.7969,13.0081 13.7019,13.1131 13.7059,13.2331 L13.7159,13.5141 Z" id="Fill-17" fill="#FEFEFE"></path>
                        <path d="M13.7618,14.7894 C13.7658,14.9104 13.8688,15.0034 13.9898,14.9974 L16.0558,14.8824 C16.1768,14.8754 16.2738,14.7714 16.2728077,14.6504 L16.2678,14.3634 C16.2658,14.2424 16.1658,14.1484 16.0448,14.1554 L13.9638,14.2694 C13.8428,14.2764 13.7468,14.3804 13.7518,14.5014 L13.7618,14.7894 Z" id="Fill-19" fill="#FEFEFE"></path>
                        <path d="M13.8073,16.0575 C13.8113,16.1785 13.9143,16.2715 14.0353,16.2655 L16.0753,16.1505 C16.1963,16.1435 16.2933,16.0395 16.2913,15.9185 L16.2873,15.6315 C16.2853,15.5105 16.1853,15.4165 16.0643,15.4235 L14.0093,15.5375 C13.8883,15.5435 13.7923,15.6485 13.7973,15.7695 L13.8073,16.0575 Z" id="Fill-21" fill="#FEFEFE"></path>
                        <path d="M13.8531,17.3324 C13.8571,17.4534 13.9601,17.5464 14.0811,17.5394 L16.0941,17.4204 C16.2151,17.4134 16.3121,17.3084 16.3111077,17.1874 L16.3061,16.9024 C16.3041,16.7814 16.2041,16.6874 16.0831,16.6944 L14.0541,16.8054 C13.9341,16.8124 13.8381,16.9164 13.8421,17.0374 L13.8531,17.3324 Z" id="Fill-23" fill="#FEFEFE"></path>
                        <path d="M22.2433,11.9618 C22.2473,12.0828 22.1523,12.1848 22.0313,12.1888 L20.5413,12.2398 C20.4203,12.2438 20.3183,12.1488 20.3143,12.0268 L20.3043,11.7418 C20.3003,11.6208 20.3963,11.5188 20.5163,11.5148 L22.0063,11.4638 C22.1273,11.4598 22.2293,11.5548 22.2333,11.6758 L22.2433,11.9618 Z M21.6913,9.0328 C21.5713,9.0368 21.4313,8.9598 21.3813,8.8608 C21.3313,8.7638 21.3893,8.6798 21.5103,8.6758 L23.4463,8.6148 C23.5673,8.6108 23.6353,8.6908 23.5973,8.7928 C23.5583,8.8938 23.4283,8.9798 23.3073,8.9828 L21.6913,9.0328 Z M20.6643,15.8658 L22.1543,15.8158 C22.2753,15.8108 22.3773,15.9068 22.3813,16.0268 L22.3913,16.3128 C22.3953,16.4338 22.3003,16.5358 22.1793,16.5408 L20.6893,16.5908 C20.5683,16.5948 20.4663,16.4998 20.4623,16.3788 L20.4523,16.0928 C20.4483,15.9718 20.5433,15.8698 20.6643,15.8658 L20.6643,15.8658 Z M20.3633,13.4778 L20.3533,13.1918 C20.3493,13.0708 20.4453,12.9688 20.5663,12.9648 L22.0563,12.9148 C22.1763,12.9098 22.2793,13.0058 22.2833,13.1268 L22.2923,13.4118 C22.2963,13.5328 22.2013,13.6348 22.0803,13.6398 L20.5913,13.6908 C20.4703,13.6938 20.3683,13.5988 20.3633,13.4778 L20.3633,13.4778 Z M20.6153,14.4158 L22.1053,14.3648 C22.2253,14.3608 22.3283,14.4558 22.3323,14.5768 L22.3423,14.8628 C22.3463,14.9838 22.2503,15.0858 22.1293,15.0898 L20.6403,15.1408 C20.5193,15.1448 20.4173,15.0488 20.4123,14.9278 L20.4033,14.6428 C20.3993,14.5218 20.4943,14.4198 20.6153,14.4158 L20.6153,14.4158 Z M48.9303,15.4978 L45.1733,26.1138 C45.1393,26.2308 45.0353,26.2768 44.9293,26.2338 C44.8203,26.1888 44.7473,26.1378 44.6313,26.0828 C44.6313,26.0828 44.5453,26.0408 44.5433,26.0408 C41.7203,24.3388 35.7643,23.5178 30.1933,23.3128 C29.3733,23.2408 28.2753,23.2358 27.5573,23.2298 C27.3163,23.2278 27.0773,23.2208 26.8423,23.2268 C25.3913,23.2618 24.0183,23.3148 22.7163,23.3878 C19.1913,23.5488 15.9913,23.9188 13.4533,24.4678 C11.6773,24.8528 10.2933,25.3098 9.3263,25.8308 C9.1823,25.8928 9.1003,25.9308 9.1003,25.9308 C8.9913,25.9818 8.8233,26.0738 8.7283,26.1358 C8.6333,26.1978 8.5273,26.1538 8.4943,26.0378 L4.7533,15.4978 C4.7203,15.3808 4.7913,15.2858 4.9123,15.2858 L6.8773,15.2858 C6.9983,15.2858 7.1033,15.3848 7.1113,15.5048 L7.2293,17.3148 C7.2373,17.4348 7.3423,17.5338 7.4633,17.5338 L9.1963,17.5338 C9.3173,17.5338 9.4203,17.6328 9.4263,17.7538 L9.5673,20.8458 C9.5723,20.9668 9.5793,21.1648 9.5813,21.2858 L9.5823,21.3318 C9.5853,21.4528 9.6813,21.5238 9.7983,21.4888 L12.7483,20.7128 C12.8663,20.6838 12.9583,20.5608 12.9543,20.4398 L12.6783,11.9378 C12.6743,11.8168 12.7693,11.7088 12.8893,11.6968 L13.6643,11.6218 C13.7853,11.6098 13.8753,11.5018 13.8643,11.3808 L13.8563,11.2828 C13.8503,11.2228 13.8443,11.1428 13.8383,11.0638 L13.8373,11.0638 C13.8373,11.0638 13.8263,10.9858 13.8253,10.8718 C13.8243,10.8628 13.8233,10.8518 13.8233,10.8438 L13.8243,10.8428 C13.8263,10.4358 13.9593,9.6158 15.0203,9.6908 L15.0203,9.6928 C15.0973,9.7008 15.2613,9.7378 15.4743,9.9118 C15.6943,10.0908 15.8073,10.6298 15.8073,10.6298 C15.8333,10.7478 15.8603,10.9428 15.8693,11.0638 L15.8773,11.1788 C15.8863,11.2998 15.9923,11.3898 16.1123,11.3788 L16.9513,11.3008 C17.0723,11.2898 17.1723,11.3788 17.1743,11.5008 L17.3133,19.6548 C17.3153,19.7758 17.4153,19.8628 17.5353,19.8478 L20.3283,19.5358 C20.4493,19.5238 20.5453,19.4158 20.5423,19.2948 L20.5043,17.6748 C20.5013,17.5538 20.5973,17.4518 20.7183,17.4468 L22.3603,17.3918 C22.4813,17.3878 22.5803,17.3838 22.5803,17.3838 C22.5803,17.3838 22.6793,17.3798 22.8003,17.3768 L22.9203,17.3718 C23.0413,17.3678 23.1373,17.2658 23.1333,17.1448 L22.8823,9.7608 C22.8783,9.6398 22.9733,9.5378 23.0943,9.5338 L23.6883,9.5158 C23.8093,9.5118 23.9433,9.4168 23.9863,9.3028 L24.3853,8.2438 C24.4283,8.1308 24.3643,8.0418 24.2433,8.0448 L20.6373,8.1598 C20.5163,8.1638 20.4623,8.2548 20.5163,8.3618 L21.0433,9.3988 C21.0983,9.5058 21.2423,9.5908 21.3633,9.5868 L21.9423,9.5698 C22.0623,9.5658 22.1653,9.6618 22.1693,9.7828 L22.1943,10.5118 C22.1983,10.6318 22.1023,10.7338 21.9813,10.7388 L20.4923,10.7898 C20.3713,10.7938 20.2693,10.6978 20.2643,10.5768 L20.1703,7.7968 C20.1663,7.6758 20.2623,7.5748 20.3833,7.5718 L24.6003,7.4658 C24.7213,7.4628 24.8213,7.5588 24.8233,7.6798 L24.9513,19.0838 C24.9533,19.2048 25.0533,19.3038 25.1743,19.3038 L27.6923,19.3368 C27.8133,19.3388 27.9113,19.2428 27.9113,19.1218 L27.9093,18.4808 C27.9093,18.3598 27.9093,18.1618 27.9093,18.0408 L27.9493,7.8428 C27.9493,7.7218 28.0483,7.6238 28.1693,7.6258 L28.9293,7.6348 C29.0503,7.6368 29.1503,7.5398 29.1503,7.4188 L29.1603,5.7968 C29.1603,5.6758 29.2603,5.5788 29.3803,5.5808 L30.1503,5.5938 C30.2713,5.5958 30.3723,5.4988 30.3753,5.3778 L30.3993,4.2888 C30.4023,4.1678 30.5033,4.0708 30.6243,4.07373224 L30.9443,4.0828 C31.0653,4.0858 31.1623,4.1878 31.1603,4.3078 L31.1443,5.3878 C31.1423,5.5088 31.2403,5.6088 31.3603,5.6118 L32.0733,5.6238 C32.1943,5.6258 32.2913,5.7268 32.2903,5.8478 L32.2703,7.4748 C32.2683,7.5958 32.3663,7.6968 32.4873,7.6988 L33.2223,7.7118 C33.3433,7.7128 33.4413,7.8148 33.4413,7.9348 L33.4053,19.4268 C33.4053,19.5478 33.5033,19.6558 33.6233,19.6668 L36.1803,19.9178 C36.3013,19.9308 36.3993,19.8418 36.3993,19.7208 L36.4043,13.9078 C36.4043,13.7868 36.4183,13.7858 36.4363,13.9058 L37.3123,19.8368 C37.3293,19.9568 37.4423,20.0678 37.5623,20.0848 L39.3773,20.3438 C39.4973,20.3618 39.6173,20.2808 39.6433,20.1628 L41.0413,13.9388 C41.0683,13.8198 41.0853,13.8228 41.0803,13.9438 L40.8013,20.3648 C40.7963,20.4858 40.8893,20.6048 41.0073,20.6288 L43.8773,21.2848 C43.9943,21.3138 44.0903,21.2768 44.0913,21.2018 C44.0913,21.1268 44.0953,21.0658 44.0993,21.0658 C44.1043,21.0658 44.1133,20.9668 44.1193,20.8458 L44.2703,17.7538 C44.2763,17.6328 44.3803,17.5338 44.5013,17.5338 L46.2093,17.5338 C46.3303,17.5338 46.4323,17.4348 46.4353,17.3138 L46.4833,15.5058 C46.4863,15.3848 46.5873,15.2858 46.7083,15.2858 L48.7713,15.2858 C48.8923,15.2858 48.9643,15.3808 48.9303,15.4978 L48.9303,15.4978 Z M13.7123,25.6608 C17.1223,24.9228 26.6033,24.5248 26.6033,24.5248 C26.7233,24.5208 29.0973,24.5438 29.2183,24.5438 L29.5663,24.5458 C29.6863,24.5458 29.7853,24.6458 29.7853,24.7668 L27.6103,31.2578 C27.6103,31.2688 27.6053,31.2778 27.6033,31.2878 C27.5673,31.3598 27.4943,31.4108 27.4093,31.4118 L27.0623,31.4138 C26.9413,31.4138 26.7433,31.4098 26.6223,31.4048 C26.6223,31.4048 17.1923,30.9798 13.7383,30.1908 C10.2423,29.3918 9.0013,28.4438 9.0013,27.8748 C9.0013,27.8518 9.0063,27.8278 9.0113,27.8018 C9.1873,27.2948 10.3143,26.3968 13.7123,25.6608 L13.7123,25.6608 Z M36.7713,25.1578 L37.8613,25.2788 C37.9813,25.2928 38.1403,25.3118 38.2143,25.3198 C38.2873,25.3298 38.3473,25.4358 38.3473,25.5568 L36.2393,30.7088 C36.2393,30.7298 36.2353,30.7498 36.2313,30.7698 C36.2073,30.8288 36.1693,30.8718 36.1243,30.8778 C36.0513,30.8868 35.8923,30.9048 35.7723,30.9198 L34.6823,31.0398 C34.5623,31.0518 34.4643,30.9628 34.4643,30.8418 L36.5723,25.2878 C36.5723,25.2778 36.5763,25.2708 36.5783,25.2608 C36.6143,25.1928 36.6863,25.1498 36.7713,25.1578 L36.7713,25.1578 Z M31.1883,24.6058 L31.5643,24.6228 C31.9513,24.6328 33.3833,24.7768 33.4623,24.7808 C33.5423,24.7848 33.6073,24.8878 33.6073,25.0088 L31.5833,31.1308 C31.5833,31.1498 31.5793,31.1668 31.5763,31.1848 C31.5503,31.2448 31.5083,31.2888 31.4583,31.2908 C31.3783,31.2948 31.2143,31.3028 31.0943,31.3088 L29.1533,31.3818 C29.0323,31.3858 28.9333,31.2898 28.9333,31.1688 L30.9883,24.7508 C30.9883,24.7408 30.9933,24.7318 30.9943,24.7218 C31.0303,24.6508 31.1033,24.6028 31.1883,24.6058 L31.1883,24.6058 Z M36.3493,9.5868 C36.3573,9.4658 36.4623,9.3728 36.5833,9.3788 L36.8303,9.3938 C36.9513,9.3998 37.0043,9.4938 36.9483,9.6008 L36.3653,10.7178 C36.3093,10.8248 36.2703,10.8148 36.2783,10.6928 L36.3493,9.5868 Z M37.0813,11.1628 L38.2573,8.7478 C38.3093,8.6388 38.4453,8.5128 38.5563,8.4668 L38.8213,8.3588 C38.9333,8.3138 39.1123,8.3228 39.2183,8.3808 L39.4283,8.4948 C39.5353,8.5518 39.6533,8.6928 39.6923,8.8078 L40.5713,11.4008 C40.6103,11.5158 40.6183,11.7058 40.5913,11.8228 L38.8863,19.0038 C38.8583,19.1218 38.7383,19.1978 38.6193,19.1738 L38.4783,19.1448 C38.3603,19.1208 38.2463,19.0028 38.2273,18.8828 L37.0213,11.5778 C37.0013,11.4588 37.0283,11.2718 37.0813,11.1628 L37.0813,11.1628 Z M41.0053,9.6288 L41.2443,9.6418 C41.3653,9.6488 41.4613,9.7538 41.4573,9.8748 L41.4193,11.1408 C41.4163,11.2618 41.3793,11.2678 41.3383,11.1538 L40.8603,9.8228 C40.8193,9.7088 40.8853,9.6218 41.0053,9.6288 L41.0053,9.6288 Z M7.6283,27.9878 C8.0793,29.7668 9.3293,30.5078 13.4463,31.4498 C16.9863,32.2588 21.7373,32.7038 26.8233,32.7038 C38.4403,32.7038 45.4373,30.9778 46.0213,27.9668 L46.1013,27.6888 L50.7093,14.2758 C50.7433,14.1598 50.6713,14.0648 50.5503,14.0648 L45.5283,14.0648 C45.4083,14.0648 45.3033,14.1628 45.2963,14.2838 L45.1963,16.0928 C45.1893,16.2128 45.0843,16.3118 44.9633,16.3118 L43.3373,16.3118 C43.2163,16.3118 43.1113,16.4108 43.1033,16.5318 L42.9013,19.7008 C42.8933,19.8218 42.7923,19.8938 42.6763,19.8608 L42.0593,19.6878 C41.9433,19.6548 41.8513,19.5288 41.8573,19.4078 L42.2743,9.1428 C42.2793,9.0218 42.1843,8.9158 42.0643,8.9068 L40.7863,8.8148 C40.6653,8.8058 40.5313,8.7068 40.4873,8.5938 L40.2603,8.0108 C40.2163,7.8988 40.0923,7.7608 39.9843,7.7058 L39.2413,7.3238 C39.1333,7.2688 38.9523,7.2588 38.8403,7.3028 L38.0613,7.6008 C37.9483,7.6438 37.8063,7.7648 37.7463,7.8698 L37.4243,8.4318 C37.3643,8.5368 37.2153,8.6168 37.0953,8.6088 L35.8293,8.5358 C35.7083,8.5278 35.6073,8.6218 35.6033,8.7428 L35.3163,18.5538 C35.3123,18.6748 35.2123,18.7588 35.0923,18.7418 L34.7193,18.6868 C34.5993,18.6688 34.5023,18.5558 34.5023,18.4348 L34.5483,6.8658 C34.5483,6.7448 34.4503,6.6438 34.3283,6.6418 L33.5893,6.6288 C33.4683,6.6268 33.3703,6.5258 33.3713,6.4058 L33.3923,4.7778 C33.3933,4.6568 33.2963,4.5568 33.1753,4.5548 L32.4653,4.5418 C32.3443,4.5398 32.2473,4.4398 32.2483,4.3178 L32.2643,3.2488 C32.2663,3.1278 32.1693,3.0258 32.0483,3.0228 L29.5603,2.95773156 C29.4393,2.9548 29.3383,3.0508 29.3353,3.1718 L29.3113,4.2718 C29.3083,4.3928 29.2073,4.4898 29.0863,4.4878 L28.2983,4.4738 C28.1773,4.4718 28.0773,4.5698 28.0773,4.6908 L28.0683,6.3158 C28.0673,6.4368 27.9683,6.5338 27.8473,6.5328 L27.0993,6.5228 C26.9793,6.5218 26.8783,6.6188 26.8763,6.7398 L26.7023,16.7538 C26.7003,16.8748 26.6973,17.0718 26.6953,17.1928 L26.6813,18.0888 C26.6803,18.2108 26.5793,18.3068 26.4583,18.3038 L26.2783,18.2988 C26.1573,18.2948 26.0563,18.1938 26.0543,18.0728 L25.8753,6.5648 C25.8733,6.4438 25.7723,6.3478 25.6513,6.3508 L19.2573,6.5118 C19.1373,6.5148 19.0403,6.6158 19.0443,6.7368 L19.3913,18.3878 C19.3953,18.5088 19.2993,18.6188 19.1793,18.6328 L18.6213,18.6988 C18.5013,18.7118 18.4003,18.6248 18.3963,18.5038 L18.1563,10.3158 C18.1523,10.1958 18.0513,10.1058 17.9303,10.1168 L17.0743,10.1958 C16.9533,10.2078 16.8173,10.1248 16.7723,10.0128 C16.7723,10.0128 16.4963,9.3348 16.1463,9.0558 C15.5073,8.5458 14.7503,8.6328 14.6073,8.6398 C13.1463,8.7128 12.8053,10.3998 12.8053,10.3998 C12.7823,10.5188 12.6633,10.6248 12.5433,10.6368 L11.7013,10.7178 C11.5813,10.7298 11.4853,10.8378 11.4883,10.9588 L11.7213,19.6298 C11.7243,19.7518 11.6303,19.8708 11.5123,19.8968 L11.0213,20.0018 C10.9033,20.0278 10.8013,19.9498 10.7943,19.8288 L10.6133,16.5318 C10.6063,16.4108 10.5023,16.3118 10.3813,16.3118 L8.7223,16.3118 C8.6013,16.3118 8.4963,16.2128 8.4893,16.0928 L8.3783,14.2838 C8.3703,14.1628 8.2653,14.0648 8.1443,14.0648 L3.1343,14.0648 C3.0133,14.0648 2.9423,14.1598 2.9753,14.2758 L7.5523,27.7058 C7.5523,27.7058 7.6223,27.9428 7.6283,27.9878 L7.6283,27.9878 Z" id="Fill-25" fill="#FEFEFE"></path>
                        <g id="Group-29" transform="translate(0.000000, 0.067200)">
                            <mask id="mask-2" fill="white">
                                <use xlink:href="#path-1"></use>
                            </mask>
                            <g id="Clip-28"></g>
                            <path d="M52.587,13.377 L46.789,29.429 C46.741,29.561 46.637,29.763 46.558,29.877 C46.558,29.877 45.796,30.862 43.365,31.962 C38.62,34.11 27.709,33.919 27.709,33.919 C10.843,34.189 7.261,29.968 6.959,29.517 C6.888,29.377 6.83,29.243 6.811,29.187 L1.393,13.257 C1.348,13.125 1.426,13.016 1.566,13.016 L9.096,13.011 C9.236,13.011 9.357,13.125 9.365,13.265 L9.465,15.044 C9.473,15.184 9.594,15.298 9.734,15.298 L10.374,15.298 C10.514,15.298 10.624,15.184 10.618,15.044 L10.414,10.264 C10.408,10.124 10.517,10.001 10.656,9.989 L11.889,9.891 C12.028,9.88 12.156,9.814 12.173,9.745 C12.19,9.675 12.234,9.508 12.272,9.373 C12.272,9.373 12.764,7.747 14.444,7.491 C15.297,7.361 16.205,7.879 16.205,7.879 C16.78,8.181 17.046,8.961 17.186,8.96 L17.639,8.958 C17.779,8.958 17.893,8.842 17.893,8.702 L17.887,5.877 C17.887,5.737 18.001,5.62 18.141,5.616 L27.024,5.402 C27.164,5.399 27.276,5.282 27.274,5.142 L27.25,3.835 C27.248,3.695 27.36,3.575 27.5,3.568 L28.379,3.528 C28.519,3.522 28.636,3.402 28.64,3.262 L28.669,2.186 C28.672,2.046 28.79,1.933 28.93,1.93497385 L32.665,1.981 C32.804,1.983 32.923,2.099 32.928,2.238 L32.963,3.161 C32.968,3.301 33.087,3.422 33.226,3.429 L33.869,3.465 C34.008,3.473 34.125,3.594 34.127,3.734 L34.151,5.4 C34.153,5.54 34.269,5.666 34.408,5.679 L34.926,5.728 C35.066,5.741 35.18,5.866 35.18,6.006 L35.18,7.02 C35.18,7.16 35.294,7.283 35.434,7.294 L36.621,7.39 C36.76,7.4 36.971,7.349 37.09,7.274 L38.577,6.338 C38.908,6.136 39.358,6.268 39.47,6.352 L40.868,7.404 C40.98,7.488 41.185,7.567 41.325,7.58 L43.247,7.75 C43.386,7.762 43.497,7.887 43.492,8.027 L43.272,14.684 C43.267,14.824 43.377,14.939 43.517,14.94 L44.03,14.943 C44.17,14.944 44.289,14.831 44.293,14.69 L44.335,13.448 C44.339,13.308 44.458,13.193 44.598,13.192 L52.419,13.14 C52.559,13.139 52.635,13.246 52.587,13.377 M53.914,12.113 L44.605,12.176 C44.465,12.177 44.354,12.064 44.359,11.923 L44.514,7.118 C44.519,6.978 44.409,6.853 44.269,6.841 L41.69,6.616 C41.551,6.604 41.345,6.525 41.233,6.441 L39.527,5.157 C39.415,5.073 38.922,4.941 38.606,5.143 L36.841,6.261 C36.723,6.335 36.523,6.389 36.398,6.378 C36.273,6.369 36.17,6.246 36.17,6.106 L36.17,5.105 C36.17,4.964 36.056,4.839 35.917,4.826 L35.385,4.776 C35.246,4.763 35.13,4.638 35.128,4.498 L35.103,2.797 C35.101,2.657 34.984,2.536 34.845,2.528 L34.182,2.491 C34.042,2.483 33.923,2.363 33.918,2.223 L33.882,1.26 C33.878,1.121 33.758,1.004 33.619,1.003 L27.966,0.932973855 C27.826,0.931 27.709,1.044 27.705,1.184 L27.675,2.315 C27.671,2.455 27.553,2.575 27.414,2.582 L26.493,2.624 C26.353,2.63 26.241,2.75 26.243,2.89 L26.266,4.176 C26.269,4.316 26.156,4.433 26.016,4.437 L17.149,4.65 C17.008,4.653 16.894,4.771 16.895,4.911 L16.9,6.976 C16.901,7.115 16.795,7.187 16.666,7.133 C16.666,7.133 15.441,6.353 14.35,6.506 C12.496,6.765 11.496,8.662 11.496,8.662 C11.434,8.787 11.269,8.897 11.129,8.906 L9.624,9.003 C9.484,9.012 9.375,9.134 9.381,9.274 L9.487,11.764 C9.493,11.904 9.383,12.019 9.243,12.019 L0.185,12.031 C0.045,12.032 -0.032,12.14 0.013,12.273 L5.895,29.568 C5.94,29.701 5.981,29.823 5.987,29.839 C6.044,30.061 8.675,35.146 26.212,34.997 C26.673,34.997 29.355,34.971 29.837,34.963 C44.941,34.963 47.475,30.321 47.475,30.321 C47.542,30.199 47.636,29.99 47.684,29.859 L54.081,12.351 C54.129,12.219 54.054,12.112 53.914,12.113" id="Fill-27" fill="#FEFEFE" mask="url(#mask-2)"></path>
                        </g>
                    </g>
                </g>
            </g>
        </g>
    </g>
</svg>