<svg id="Layer_1" data-name="Layer 1" xmlns="http://www.w3.org/2000/svg" xmlns:xlink="http://www.w3.org/1999/xlink" viewBox="0 0 470 80"><defs><style>.cls-1,.cls-2{fill:#fff;}.cls-2{fill-rule:evenodd;}.cls-3{clip-path:url(#clip-path);}.cls-4{clip-path:url(#clip-path-2);}.cls-5{clip-path:url(#clip-path-3);}.cls-6{clip-path:url(#clip-path-4);}.cls-7{clip-path:url(#clip-path-5);}.cls-8{clip-path:url(#clip-path-6);}.cls-9{clip-path:url(#clip-path-7);}</style><clipPath id="clip-path"><path class="cls-1" d="M436.46,33.08h28.46v12.6h-8.66V39.46h-3.34V55.3h3.34V49.07h8.66V61.68H436.46V49.07h8.66V55.3h3.34V39.46h-3.34v6.22h-8.66Zm0-2.83a2.84,2.84,0,0,0-2.9,2.83v28.6a2.84,2.84,0,0,0,2.9,2.83h28.46a2.85,2.85,0,0,0,2.91-2.83V33.08a2.85,2.85,0,0,0-2.91-2.83Z"/></clipPath><clipPath id="clip-path-2"><path class="cls-1" d="M398.62,37.1c-3,.64-4.71,2.57-4.84,5.35a5,5,0,0,0,.45,2.65c.74,1.52,1.94,2.33,5.11,3.45,3.46,1.22,4.1,1.72,4.1,3.19a1.93,1.93,0,0,1-.65,1.64,3.6,3.6,0,0,1-2.81.86,8.31,8.31,0,0,1-4-1c-.48-.24-1-.53-1.22-.64l-.33-.21V56l.53.24a13.13,13.13,0,0,0,3.95,1.06,14,14,0,0,0,2.91-.09,9.49,9.49,0,0,0,2-.65,5.52,5.52,0,0,0,2.81-3.21,6.8,6.8,0,0,0,.26-2.62A4.28,4.28,0,0,0,405.64,48c-.9-.95-1.92-1.48-4.67-2.42s-3.6-1.58-3.75-2.86a2.26,2.26,0,0,1,1.26-2.24c1.51-.76,4-.47,6.17.73a4.78,4.78,0,0,0,.54.28,14.92,14.92,0,0,0,.05-1.76V37.94l-.36-.15a13.9,13.9,0,0,0-2.32-.69,11.33,11.33,0,0,0-2-.15,10.24,10.24,0,0,0-1.94.15"/></clipPath><clipPath id="clip-path-3"><polygon class="cls-1" points="322.33 37.31 322.33 40.5 328.55 40.5 328.55 56.92 331.98 56.92 331.98 40.5 338.19 40.5 338.19 37.31 322.33 37.31"/></clipPath><clipPath id="clip-path-4"><rect class="cls-1" x="384.59" y="37.31" width="3.43" height="19.61"/></clipPath><clipPath id="clip-path-5"><polygon class="cls-1" points="409.3 37.31 409.34 40.46 415.52 40.5 415.52 56.92 418.94 56.92 418.94 40.5 425.16 40.5 425.16 37.31 409.3 37.31"/></clipPath><clipPath id="clip-path-6"><path class="cls-1" d="M374.66,37.31v6.32c0,7.16,0,7.16-.57,8.33a4.46,4.46,0,0,1-7.75,0c-.57-1.17-.56-1.17-.56-8.33V37.31h-3.43v6.32c0,7,0,7.32.51,8.76a7.35,7.35,0,0,0,6.3,4.93,8.76,8.76,0,0,0,2.11,0,7.34,7.34,0,0,0,6.31-4.93c.49-1.44.5-1.71.5-8.76V37.31Z"/></clipPath><clipPath id="clip-path-7"><path class="cls-1" d="M345.92,46.86v-6.4l2.27,0H349a5.6,5.6,0,0,1,2.77.37,3.24,3.24,0,0,1,.85,5.15,3.12,3.12,0,0,1-1.67.89A24.18,24.18,0,0,1,348,47a10.6,10.6,0,0,1-2.11-.1m-3.34,10.06h3.34V50h.94c2.11,0,2.62.38,3.88,2.86a10,10,0,0,0,1.86,2.92,5.11,5.11,0,0,0,2.25,1.2,10.2,10.2,0,0,0,2.71,0V53.88l-.46,0a2.56,2.56,0,0,1-2.29-.94,15.12,15.12,0,0,1-.87-1.44,8.18,8.18,0,0,0-1.26-1.92l-.23-.25.56-.18a5.68,5.68,0,0,0,3.73-3.63,7.6,7.6,0,0,0,.11-3.49,5.85,5.85,0,0,0-3.71-4.2c-1.21-.49-1.35-.5-6.16-.54l-4.4,0Z"/></clipPath></defs><path class="cls-2" d="M452.92,39.46h3.34v6.22h8.66V33.08H436.46v12.6h8.66V39.46h3.34V55.3h-3.34V49.08h-8.66v12.6h28.46V49.08h-8.66V55.3h-3.34Zm14.91-6.38a2.85,2.85,0,0,0-2.91-2.83H436.46a2.84,2.84,0,0,0-2.9,2.83v28.6a2.84,2.84,0,0,0,2.9,2.83h28.46a2.85,2.85,0,0,0,2.91-2.83Z"/><path class="cls-1" d="M436.46,33.08h28.46v12.6h-8.66V39.46h-3.34V55.3h3.34V49.07h8.66V61.68H436.46V49.07h8.66V55.3h3.34V39.46h-3.34v6.22h-8.66Zm0-2.83a2.84,2.84,0,0,0-2.9,2.83v28.6a2.84,2.84,0,0,0,2.9,2.83h28.46a2.85,2.85,0,0,0,2.91-2.83V33.08a2.85,2.85,0,0,0-2.91-2.83Z"/><g class="cls-3"><rect class="cls-1" x="432.32" y="29" width="36.75" height="36.75"/></g><path class="cls-2" d="M400.56,37a10.31,10.31,0,0,0-1.94.15c-3,.64-4.71,2.57-4.84,5.35a5.05,5.05,0,0,0,.45,2.65c.74,1.52,1.94,2.33,5.11,3.45,3.46,1.22,4.1,1.72,4.1,3.19a1.9,1.9,0,0,1-.65,1.64,3.6,3.6,0,0,1-2.81.86,8.31,8.31,0,0,1-4-1c-.48-.24-1-.53-1.22-.64l-.33-.21V56l.53.24a13.13,13.13,0,0,0,3.95,1.06,14,14,0,0,0,2.91-.09,9.49,9.49,0,0,0,2-.65,5.57,5.57,0,0,0,2.82-3.21,7,7,0,0,0,.25-2.62A4.33,4.33,0,0,0,405.64,48c-.9-.95-1.92-1.48-4.67-2.42s-3.6-1.57-3.75-2.86a2.26,2.26,0,0,1,1.26-2.24c1.51-.77,4-.47,6.17.73a4.78,4.78,0,0,0,.54.28,14.92,14.92,0,0,0,.05-1.76V37.94l-.36-.15a14.19,14.19,0,0,0-2.32-.69,11.33,11.33,0,0,0-2-.15"/><path class="cls-1" d="M398.62,37.1c-3,.64-4.71,2.57-4.84,5.35a5,5,0,0,0,.45,2.65c.74,1.52,1.94,2.33,5.11,3.45,3.46,1.22,4.1,1.72,4.1,3.19a1.93,1.93,0,0,1-.65,1.64,3.6,3.6,0,0,1-2.81.86,8.31,8.31,0,0,1-4-1c-.48-.24-1-.53-1.22-.64l-.33-.21V56l.53.24a13.13,13.13,0,0,0,3.95,1.06,14,14,0,0,0,2.91-.09,9.49,9.49,0,0,0,2-.65,5.52,5.52,0,0,0,2.81-3.21,6.8,6.8,0,0,0,.26-2.62A4.28,4.28,0,0,0,405.64,48c-.9-.95-1.92-1.48-4.67-2.42s-3.6-1.58-3.75-2.86a2.26,2.26,0,0,1,1.26-2.24c1.51-.76,4-.47,6.17.73a4.78,4.78,0,0,0,.54.28,14.92,14.92,0,0,0,.05-1.76V37.94l-.36-.15a13.9,13.9,0,0,0-2.32-.69,11.33,11.33,0,0,0-2-.15,10.24,10.24,0,0,0-1.94.15"/><g class="cls-4"><rect class="cls-1" x="392.53" y="35.71" width="15.66" height="22.89"/></g><polygon class="cls-2" points="322.33 37.31 322.33 40.5 328.55 40.5 328.55 56.92 331.98 56.92 331.98 40.5 338.19 40.5 338.19 37.31 322.33 37.31"/><polygon class="cls-1" points="322.33 37.31 322.33 40.5 328.55 40.5 328.55 56.92 331.98 56.92 331.98 40.5 338.19 40.5 338.19 37.31 322.33 37.31"/><g class="cls-5"><rect class="cls-1" x="321.09" y="36.07" width="18.34" height="22.09"/></g><rect class="cls-1" x="384.59" y="37.31" width="3.43" height="19.61"/><rect class="cls-1" x="384.59" y="37.31" width="3.43" height="19.61"/><g class="cls-6"><rect class="cls-1" x="383.35" y="36.07" width="5.91" height="22.09"/></g><polygon class="cls-2" points="409.3 37.31 409.34 40.46 415.52 40.5 415.52 56.92 418.95 56.92 418.95 40.5 425.16 40.5 425.16 37.31 409.3 37.31"/><polygon class="cls-1" points="409.3 37.31 409.34 40.46 415.52 40.5 415.52 56.92 418.94 56.92 418.94 40.5 425.16 40.5 425.16 37.31 409.3 37.31"/><g class="cls-7"><rect class="cls-1" x="408.06" y="36.07" width="18.35" height="22.09"/></g><path class="cls-2" d="M377.58,52.39c.49-1.44.5-1.71.5-8.76V37.31h-3.43v6.32c0,7.16,0,7.16-.57,8.33a4.46,4.46,0,0,1-7.75,0c-.57-1.17-.56-1.17-.56-8.33V37.31h-3.43v6.32c0,7,0,7.32.51,8.76a7.35,7.35,0,0,0,6.3,4.93,8.76,8.76,0,0,0,2.11,0,7.33,7.33,0,0,0,6.31-4.93"/><path class="cls-1" d="M374.66,37.31v6.32c0,7.16,0,7.16-.57,8.33a4.46,4.46,0,0,1-7.75,0c-.57-1.17-.56-1.17-.56-8.33V37.31h-3.43v6.32c0,7,0,7.32.51,8.76a7.35,7.35,0,0,0,6.3,4.93,8.76,8.76,0,0,0,2.11,0,7.34,7.34,0,0,0,6.31-4.93c.49-1.44.5-1.71.5-8.76V37.31Z"/><g class="cls-8"><rect class="cls-1" x="361.11" y="36.07" width="18.22" height="22.56"/></g><path class="cls-2" d="M342.58,37.3V56.92h3.34V50h.94c2.11,0,2.62.37,3.88,2.85a10,10,0,0,0,1.86,2.92,5.11,5.11,0,0,0,2.25,1.2,10.2,10.2,0,0,0,2.71,0v-3.1l-.46.05a2.56,2.56,0,0,1-2.29-.94,15.12,15.12,0,0,1-.87-1.44,8.18,8.18,0,0,0-1.26-1.92l-.23-.25.56-.18a5.68,5.68,0,0,0,3.73-3.63,7.6,7.6,0,0,0,.11-3.49,5.9,5.9,0,0,0-3.71-4.21c-1.21-.48-1.35-.49-6.16-.53ZM349,40.43a5.6,5.6,0,0,1,2.77.37,3.24,3.24,0,0,1,.85,5.15,3.12,3.12,0,0,1-1.67.89,28.25,28.25,0,0,1-5,0v-6.4l2.27,0Z"/><path class="cls-1" d="M345.92,46.86v-6.4l2.27,0H349a5.6,5.6,0,0,1,2.77.37,3.24,3.24,0,0,1,.85,5.15,3.12,3.12,0,0,1-1.67.89A24.18,24.18,0,0,1,348,47a10.6,10.6,0,0,1-2.11-.1m-3.34,10.06h3.34V50h.94c2.11,0,2.62.38,3.88,2.86a10,10,0,0,0,1.86,2.92,5.11,5.11,0,0,0,2.25,1.2,10.2,10.2,0,0,0,2.71,0V53.88l-.46,0a2.56,2.56,0,0,1-2.29-.94,15.12,15.12,0,0,1-.87-1.44,8.18,8.18,0,0,0-1.26-1.92l-.23-.25.56-.18a5.68,5.68,0,0,0,3.73-3.63,7.6,7.6,0,0,0,.11-3.49,5.85,5.85,0,0,0-3.71-4.2c-1.21-.49-1.35-.5-6.16-.54l-4.4,0Z"/><g class="cls-9"><rect class="cls-1" x="341.33" y="36.06" width="17.47" height="22.24"/></g><path class="cls-1" d="M134.7,14.42a.56.56,0,0,1,.11-.22,1.28,1.28,0,0,1,.24-.22,1,1,0,0,1,.29-.16.75.75,0,0,1,.29-.06H140a.73.73,0,0,1,.5.18,3,3,0,0,1,.31.31l.42,1,9,23.1a.51.51,0,0,1-.05.56.85.85,0,0,1-.65.21h-4.9A1.11,1.11,0,0,1,144,39a1,1,0,0,1-.33-.49c-.23-.58-.45-1.16-.67-1.73L142.33,35h-9.06l-.66,1.74c-.22.57-.44,1.15-.65,1.73a.86.86,0,0,1-.87.63h-5a.89.89,0,0,1-.54-.17.41.41,0,0,1-.07-.51Zm3.11,7.31c-.22.58-.44,1.2-.66,1.87s-.44,1.35-.65,2l-.66,2c-.22.66-.44,1.29-.66,1.87h5.24Z"/><path class="cls-1" d="M156.34,14.54a.82.82,0,0,1,.19-.57.7.7,0,0,1,.56-.21h11a8.28,8.28,0,0,1,3.3.66,8.77,8.77,0,0,1,2.68,1.78,8.36,8.36,0,0,1,1.8,2.64,7.91,7.91,0,0,1,.65,3.21,7.62,7.62,0,0,1-.31,2.21A8.35,8.35,0,0,1,174,27.88a8.37,8.37,0,0,1-1.7,1.27l4.39,8.26c.08.16.18.35.31.56a1.24,1.24,0,0,1,.18.57A.52.52,0,0,1,177,39a.78.78,0,0,1-.48.14h-5.86a.9.9,0,0,1-.52-.17.78.78,0,0,1-.29-.46l-4.15-7.8h-2.77v7.7c0,.49-.26.73-.78.73h-5.07a.77.77,0,0,1-.54-.18.68.68,0,0,1-.21-.55Zm13.36,7.58a3,3,0,0,0-.18-1,3.62,3.62,0,0,0-.53-.94,3.15,3.15,0,0,0-.82-.72,2.74,2.74,0,0,0-1.06-.37l-.9-.06c-.28,0-.58,0-.91,0h-2.36v6.26h3.69l.53-.06a2.64,2.64,0,0,0,1.07-.34,3.06,3.06,0,0,0,.81-.7,3.24,3.24,0,0,0,.49-.94,3.52,3.52,0,0,0,.17-1.07"/><path class="cls-1" d="M181.87,26.46a12.88,12.88,0,0,1,.46-3.48,13.46,13.46,0,0,1,1.31-3.12,12.87,12.87,0,0,1,2.05-2.65,12.62,12.62,0,0,1,2.63-2,13.49,13.49,0,0,1,3.12-1.32,13,13,0,0,1,6.94,0,13.38,13.38,0,0,1,3.13,1.32,12.68,12.68,0,0,1,2.64,2,12.48,12.48,0,0,1,2,2.65A13.49,13.49,0,0,1,207.51,23a13.08,13.08,0,0,1,0,7,13.16,13.16,0,0,1-1.32,3.1,12.37,12.37,0,0,1-2,2.63,13.4,13.4,0,0,1-2.64,2A12.56,12.56,0,0,1,198.38,39a13,13,0,0,1-6.94,0,12.65,12.65,0,0,1-3.12-1.31,13.33,13.33,0,0,1-2.63-2A12.75,12.75,0,0,1,183.64,33a13.13,13.13,0,0,1-1.31-3.1,12.86,12.86,0,0,1-.46-3.47m6.6,0a7.2,7.2,0,0,0,.48,2.64,6.37,6.37,0,0,0,1.34,2.14,6.17,6.17,0,0,0,4.62,2,6.26,6.26,0,0,0,4.65-2,6.53,6.53,0,0,0,1.34-2.14,7.65,7.65,0,0,0,0-5.28,6.83,6.83,0,0,0-1.34-2.16,6.5,6.5,0,0,0-7.24-1.45,6.28,6.28,0,0,0-2,1.45A6.66,6.66,0,0,0,189,23.8a7.24,7.24,0,0,0-.48,2.64"/><path class="cls-1" d="M221.39,29a5.9,5.9,0,0,0,.35,2.15,4.06,4.06,0,0,0,.92,1.43,3.55,3.55,0,0,0,1.34.81,4.89,4.89,0,0,0,1.58.26,4.31,4.31,0,0,0,1.61-.3,3.79,3.79,0,0,0,1.34-.89,4.37,4.37,0,0,0,.91-1.46,5.59,5.59,0,0,0,.33-2V14.51A.76.76,0,0,1,230,14a.74.74,0,0,1,.57-.22h5a.82.82,0,0,1,.61.23.72.72,0,0,1,.22.52V28.9a12.52,12.52,0,0,1-.88,5,8.47,8.47,0,0,1-2.36,3.27A9,9,0,0,1,229.69,39a15.73,15.73,0,0,1-4.1.53,14.94,14.94,0,0,1-4.11-.55A9.06,9.06,0,0,1,218,37.13a8.74,8.74,0,0,1-2.36-3.28,12.35,12.35,0,0,1-.88-5V14.51A.78.78,0,0,1,215,14a.62.62,0,0,1,.49-.23h5.1a.92.92,0,0,1,.54.21.64.64,0,0,1,.28.54Z"/><path class="cls-1" d="M244.12,14.51a.78.78,0,0,1,.19-.53.68.68,0,0,1,.56-.22h5.58a1.18,1.18,0,0,1,.5.12,1.14,1.14,0,0,1,.44.41c1.44,2.33,2.88,4.63,4.3,6.89l4.32,6.9V14.41a.75.75,0,0,1,.75-.65h4.86a.92.92,0,0,1,.6.2.66.66,0,0,1,.24.55V38.43a.61.61,0,0,1-.21.51.85.85,0,0,1-.56.16h-5.44a.6.6,0,0,1-.4-.15,2.55,2.55,0,0,1-.35-.41L255,31.11c-1.48-2.44-3-4.92-4.51-7.42V38.35a.81.81,0,0,1-.17.56.78.78,0,0,1-.61.19h-4.85a.71.71,0,0,1-.57-.21.8.8,0,0,1-.18-.52Z"/><path class="cls-1" d="M296.69,26.46a12.41,12.41,0,0,1-.46,3.43,11.94,11.94,0,0,1-1.31,3,12.56,12.56,0,0,1-2,2.55,12.91,12.91,0,0,1-2.63,2,13.93,13.93,0,0,1-3.11,1.24,13.75,13.75,0,0,1-3.47.43h-8.41a1.09,1.09,0,0,1-.54-.14c-.16-.09-.24-.28-.24-.58V14.54a.86.86,0,0,1,.19-.58.78.78,0,0,1,.59-.22h8.41a13.18,13.18,0,0,1,3.46.45,12.84,12.84,0,0,1,3.11,1.26,13.33,13.33,0,0,1,2.63,2,12,12,0,0,1,2,2.56A12.86,12.86,0,0,1,296.23,23a12.46,12.46,0,0,1,.46,3.43m-15.61-6.59V33h1.43l.77,0,.75-.06a6.81,6.81,0,0,0,2.39-.63,6.52,6.52,0,0,0,1.94-1.36,6.41,6.41,0,0,0,1.3-2,6.53,6.53,0,0,0,.47-2.49,6.36,6.36,0,0,0-.54-2.64,6.68,6.68,0,0,0-1.46-2.08A6.54,6.54,0,0,0,286,20.36a7,7,0,0,0-2.64-.49Z"/><path class="cls-1" d="M130.75,53.05H125.1a.28.28,0,0,0-.18.06.21.21,0,0,0-.07.18v.55a.23.23,0,0,0,.25.27h2.3V61a.22.22,0,0,0,.08.18.28.28,0,0,0,.17.07h.56a.22.22,0,0,0,.18-.08.23.23,0,0,0,.07-.17V54.11h2.29A.25.25,0,0,0,131,54a.29.29,0,0,0,.07-.19v-.55a.31.31,0,0,0-.09-.19.41.41,0,0,0-.18-.05"/><path class="cls-1" d="M139.4,53.05h-.55a.24.24,0,0,0-.18.07.24.24,0,0,0-.06.17v3.08H134V53.29a.21.21,0,0,0-.07-.17.26.26,0,0,0-.18-.07h-.57a.24.24,0,0,0-.24.24V61a.21.21,0,0,0,.24.24h.56c.18,0,.26-.08.26-.24V57.44h4.64V61a.21.21,0,0,0,.24.24h.55q.27,0,.27-.24V53.29a.22.22,0,0,0-.08-.18.33.33,0,0,0-.19-.06"/><path class="cls-1" d="M147.6,60.14h-4.45v-2.7h3.48a.22.22,0,0,0,.18-.08.28.28,0,0,0,.06-.18v-.56a.22.22,0,0,0-.07-.19.25.25,0,0,0-.17-.06h-3.48V54.11h4.43a.22.22,0,0,0,.2-.08.28.28,0,0,0,.06-.18v-.54c0-.18-.08-.27-.25-.27h-5.27c-.16,0-.24.09-.24.26V61a.21.21,0,0,0,.24.23h5.29a.21.21,0,0,0,.24-.24V60.4c0-.17-.08-.26-.25-.26"/><path class="cls-1" d="M159.86,52.44a7.78,7.78,0,0,1,2.39-1.58,7.57,7.57,0,0,1,3-.58,7.81,7.81,0,0,1,2.12.4,7.56,7.56,0,0,1,1.91,1,1.73,1.73,0,0,0,.28.16c.32.13.58,0,.83-.32l.67-1.12a.63.63,0,0,0,.14-.4.65.65,0,0,0-.12-.36,1.11,1.11,0,0,0-.26-.27h0A10.38,10.38,0,0,0,168,47.94a9.86,9.86,0,0,0-3.1-.48,9.76,9.76,0,0,0-2.66.36,10.45,10.45,0,0,0-2.38,1,9.94,9.94,0,0,0-3.58,3.59,9.47,9.47,0,0,0-1,2.38,10,10,0,0,0,1,7.69,10.1,10.1,0,0,0,1.56,2,10.51,10.51,0,0,0,2,1.56,10.1,10.1,0,0,0,8.23.85,10.06,10.06,0,0,0,2.69-1.38.67.67,0,0,0,.38-.61.77.77,0,0,0-.11-.39l-.73-1.21a.67.67,0,0,0-.55-.39,1,1,0,0,0-.48.16,12.84,12.84,0,0,1-1.25.71,9.29,9.29,0,0,1-1.12.47,6,6,0,0,1-1.05.26,7.13,7.13,0,0,1-7.59-4.19,6.92,6.92,0,0,1-.58-2.85,6.77,6.77,0,0,1,.57-2.75,7.17,7.17,0,0,1,1.57-2.31"/><path class="cls-1" d="M189.52,57.34a6.45,6.45,0,0,0,.72-1.58,6.25,6.25,0,0,0-1.55-6.2,6.1,6.1,0,0,0-4.43-1.84h-7.44a.67.67,0,0,0-.71.76v18a.64.64,0,0,0,.71.71h1.35a.65.65,0,0,0,.73-.71V60.2h5.58l3.05,6.4a.81.81,0,0,0,.75.56h1.56c.4,0,.62-.19.62-.54v-.17l-3.35-6.9a6.87,6.87,0,0,0,1.31-.89,6.17,6.17,0,0,0,1.1-1.3m-2-2.06a3.65,3.65,0,0,1-.72,1.12,3.43,3.43,0,0,1-2.45,1.05H178.9v-7h5.36a3.35,3.35,0,0,1,1.38.29,3.58,3.58,0,0,1,1.1.77,3.5,3.5,0,0,1,.73,1.12,3.3,3.3,0,0,1,.27,1.31,3.49,3.49,0,0,1-.26,1.32"/><path class="cls-1" d="M213.88,52.41a9.93,9.93,0,0,0-1.57-2,10.12,10.12,0,0,0-2-1.56,10,10,0,0,0-2.39-1,10,10,0,0,0-7.69,1,9.56,9.56,0,0,0-2,1.56,10.25,10.25,0,0,0-1.56,2,9.63,9.63,0,0,0-1,2.38,10,10,0,0,0,1,7.69,10.1,10.1,0,0,0,1.56,2,10.21,10.21,0,0,0,2,1.56,10,10,0,0,0,2.38,1,10,10,0,0,0,5.33,0,9.73,9.73,0,0,0,4.41-2.55,10.12,10.12,0,0,0,1.56-2,10.09,10.09,0,0,0,0-10.1m-1.71,6.92a7.67,7.67,0,0,1-.73,1.72,6.85,6.85,0,0,1-1.12,1.45,7.45,7.45,0,0,1-1.45,1.13,7.27,7.27,0,0,1-1.72.72,7.08,7.08,0,0,1-3.82,0,7.1,7.1,0,0,1-3.18-1.85A6.85,6.85,0,0,1,199,61.05a7.67,7.67,0,0,1-.73-1.72,7.18,7.18,0,0,1-.26-1.92,7.08,7.08,0,0,1,.26-1.9,7,7,0,0,1,.73-1.72,7.18,7.18,0,0,1,1.12-1.46,7.26,7.26,0,0,1,1.46-1.12,7.74,7.74,0,0,1,1.72-.73,7.16,7.16,0,0,1,4.71.31,7.21,7.21,0,0,1,3.82,3.83,6.86,6.86,0,0,1,.57,2.79,7.18,7.18,0,0,1-.26,1.92"/><path class="cls-1" d="M266.46,47.9a.86.86,0,0,0-.52-.18h-1.3a.67.67,0,0,0-.72.62V62.29l-10.7-14.23a.78.78,0,0,0-.66-.34h-1.73a.7.7,0,0,0-.52.21.8.8,0,0,0-.19.53v18a.64.64,0,0,0,.71.71h1.31a.65.65,0,0,0,.73-.71V52.08l11,14.72a.73.73,0,0,0,.61.34h1.47c.5,0,.77-.25.77-.71v-18a.64.64,0,0,0-.25-.53"/><path class="cls-1" d="M245.4,47.88h0a.55.55,0,0,0-.2-.11l-.14,0a.58.58,0,0,0-.14,0h-1.44a.48.48,0,0,0-.18,0h-.07a.79.79,0,0,0-.52.52l-4.16,10.29-1.73,4.25L236.5,62l-2.62-6.56,2.89-7v-.22a.57.57,0,0,0-.15-.4.67.67,0,0,0-.54-.17h-1.67a.52.52,0,0,0-.5.37l-1.49,3.75-1.5-3.75a.52.52,0,0,0-.5-.37h-1.67a.71.71,0,0,0-.54.17.57.57,0,0,0-.15.4v.17l2.9,7-2.65,6.65-.29.7-1.83-4.51-4.06-10a.82.82,0,0,0-.51-.52h-.06a.69.69,0,0,0-.2,0h-1.44a1.2,1.2,0,0,0-.2,0h-.07a.51.51,0,0,0-.38.5v0h0v.12L226.8,66.5l0,.11a1,1,0,0,0,.13.22l.11.09h0l.12.11h0a.75.75,0,0,0,.3.09h1a.4.4,0,0,0,.15,0,.68.68,0,0,0,.38-.18.57.57,0,0,0,.2-.37L232.43,59l3.16,7.54a.59.59,0,0,0,.2.38.65.65,0,0,0,.35.18.58.58,0,0,0,.18,0h.94a.75.75,0,0,0,.34-.09h0c.05,0,.07-.07.11-.1s0,0,0,0h0l.1-.09a1,1,0,0,0,.13-.22l0-.11,7.5-18,0-.17h0v0a.57.57,0,0,0-.17-.38"/><polygon class="cls-1" points="274.77 53.73 276.74 53.73 276.74 61.3 277.83 61.3 277.83 52.73 274.77 52.73 274.77 53.73"/><path class="cls-1" d="M285.76,53.19a3.27,3.27,0,0,0-3.57,0A3.57,3.57,0,0,0,281,54.71a6.39,6.39,0,0,0,0,4.61,3.46,3.46,0,0,0,1.22,1.52,3.27,3.27,0,0,0,3.57,0A3.46,3.46,0,0,0,287,59.32a6.26,6.26,0,0,0,0-4.61,3.57,3.57,0,0,0-1.22-1.52M284,60.35a2,2,0,0,1-1.21-.38,2.45,2.45,0,0,1-.82-1.13,5.7,5.7,0,0,1,0-3.65,2.5,2.5,0,0,1,.82-1.13,2,2,0,0,1,1.21-.38,1.94,1.94,0,0,1,1.21.38,2.59,2.59,0,0,1,.83,1.13,5,5,0,0,1,.3,1.83,4.92,4.92,0,0,1-.3,1.82,2.59,2.59,0,0,1-.83,1.13,1.94,1.94,0,0,1-1.21.38"/><path class="cls-1" d="M296.78,61.07l-.07-.11-3.79-4.48,1.6-1.68c.52-.55,1.05-1.12,1.57-1.69v0c0-.05.06-.08.06-.11s0-.07-.14-.07h-1.09c-.09,0-.17.06-.26.18l-3.83,4V53.2a.21.21,0,0,0-.08-.18.28.28,0,0,0-.17-.07H290a.24.24,0,0,0-.19.08.24.24,0,0,0-.06.17v7.74c0,.16.08.24.25.24h.57c.17,0,.25-.08.25-.24V58.68l1.36-1.44L295.33,61a.3.3,0,0,0,.25.17h1.1c.07,0,.12,0,.12-.06l0,0"/><rect class="cls-1" x="61.67" y="20.56" width="2.32" height="2.32" rx="0.45" transform="translate(40.04 84.17) rotate(-89.02)"/><rect class="cls-1" x="65.38" y="20.63" width="2.32" height="2.32" rx="0.45" transform="translate(43.56 87.92) rotate(-88.97)"/><rect class="cls-1" x="61.61" y="24.27" width="2.32" height="2.32" rx="0.45" transform="translate(36.27 87.75) rotate(-89.02)"/><rect class="cls-1" x="65.31" y="24.33" width="2.32" height="2.32" rx="0.45" transform="translate(39.79 91.49) rotate(-88.97)"/><rect class="cls-1" x="61.54" y="27.97" width="2.32" height="2.32" rx="0.45" transform="matrix(0.02, -1, 1, 0.02, 32.5, 91.32)"/><rect class="cls-1" x="65.25" y="28.04" width="2.32" height="2.32" rx="0.45" transform="translate(36.02 95.07) rotate(-88.97)"/><rect class="cls-1" x="61.48" y="31.68" width="2.32" height="2.32" rx="0.45" transform="translate(28.73 94.9) rotate(-89.02)"/><rect class="cls-1" x="65.18" y="31.74" width="2.32" height="2.32" rx="0.45" transform="translate(32.25 98.64) rotate(-88.97)"/><path class="cls-1" d="M30.2,30.77a.44.44,0,0,0,.46.42L34.94,31a.49.49,0,0,0,.44-.48v-.56a.43.43,0,0,0-.45-.43l-4.31.24a.45.45,0,0,0-.43.47Z"/><path class="cls-1" d="M30.29,33.37a.45.45,0,0,0,.46.43L35,33.56a.47.47,0,0,0,.44-.47V32.5a.42.42,0,0,0-.45-.42l-4.26.23a.46.46,0,0,0-.43.47Z"/><path class="cls-1" d="M30.38,36a.45.45,0,0,0,.47.43L35,36.15a.47.47,0,0,0,.44-.47v-.59a.43.43,0,0,0-.46-.42l-4.2.23a.46.46,0,0,0-.43.47Z"/><path class="cls-1" d="M30.48,38.57a.43.43,0,0,0,.46.42l4.12-.24a.49.49,0,0,0,.44-.48v-.58a.43.43,0,0,0-.46-.43l-4.14.23a.48.48,0,0,0-.44.48Z"/><path class="cls-1" d="M17.76,60.34c.92,3.63,3.47,5.15,11.89,7.07C36.88,69.06,46.58,70,57,70c23.74,0,38-3.52,39.23-9.67l.16-.57,9.42-27.41a.32.32,0,0,0-.33-.43H95.19a.48.48,0,0,0-.47.45L94.51,36a.47.47,0,0,1-.47.45H90.72a.48.48,0,0,0-.48.45l-.42,6.48a.34.34,0,0,1-.46.32l-1.25-.35a.61.61,0,0,1-.42-.57l.85-21a.47.47,0,0,0-.43-.48l-2.61-.19a.77.77,0,0,1-.61-.45l-.46-1.19a1.4,1.4,0,0,0-.56-.62l-1.52-.78a1.16,1.16,0,0,0-.82,0l-1.59.6a1.52,1.52,0,0,0-.65.55l-.66,1.15a.79.79,0,0,1-.67.37l-2.58-.16a.45.45,0,0,0-.47.43l-.58,20a.4.4,0,0,1-.46.39l-.76-.12a.52.52,0,0,1-.44-.51l.09-23.64a.45.45,0,0,0-.45-.45l-1.51,0a.44.44,0,0,1-.44-.46l0-3.32a.46.46,0,0,0-.45-.46l-1.45,0a.46.46,0,0,1-.44-.46l0-2.19a.45.45,0,0,0-.44-.46L62.57,9.2a.44.44,0,0,0-.46.44l0,2.24a.45.45,0,0,1-.46.44L60,12.3a.43.43,0,0,0-.45.44l0,3.32a.44.44,0,0,1-.45.44l-1.53,0a.46.46,0,0,0-.46.45l-.35,20.46c0,.24,0,.65,0,.89l0,1.83a.45.45,0,0,1-.46.44h-.37a.46.46,0,0,1-.45-.46L55,16.57a.45.45,0,0,0-.46-.44l-13.06.33a.45.45,0,0,0-.44.46l.71,23.81a.51.51,0,0,1-.43.5l-1.14.13a.41.41,0,0,1-.46-.4l-.49-16.73a.42.42,0,0,0-.46-.4L37.06,24a.65.65,0,0,1-.62-.38,5.84,5.84,0,0,0-1.28-1.95A4.43,4.43,0,0,0,32,20.81c-3,.15-3.68,3.59-3.68,3.59a.65.65,0,0,1-.54.49l-1.72.16a.49.49,0,0,0-.43.5l.47,17.71a.58.58,0,0,1-.43.55l-1,.21a.37.37,0,0,1-.46-.35l-.37-6.74a.49.49,0,0,0-.48-.45H20a.48.48,0,0,1-.47-.45l-.23-3.69a.48.48,0,0,0-.48-.45H8.58a.32.32,0,0,0-.33.43L17.6,59.76s.15.49.16.58M86,22.83l.49,0a.46.46,0,0,1,.43.48l-.07,2.59c0,.24-.08.26-.17,0l-1-2.72a.27.27,0,0,1,.3-.39m-8,3.13L80.34,21a1.3,1.3,0,0,1,.61-.57l.54-.23a1.08,1.08,0,0,1,.81.05l.43.23a1.35,1.35,0,0,1,.54.64l1.79,5.3a1.79,1.79,0,0,1,0,.86L81.62,42a.47.47,0,0,1-.54.35l-.29-.06a.71.71,0,0,1-.51-.53L77.81,26.81a1.78,1.78,0,0,1,.12-.85m-1.49-3.22a.45.45,0,0,1,.48-.42l.5,0a.26.26,0,0,1,.24.42l-1.19,2.28c-.11.22-.19.2-.18-.05ZM65.89,53.43l.77,0c.79,0,3.72.32,3.88.33s.3.21.3.46L66.7,66.76s0,.07,0,.11a.34.34,0,0,1-.25.22l-.74,0-4,.15a.43.43,0,0,1-.45-.43l4.19-13.12s0,0,0,0a.41.41,0,0,1,.39-.24M77.3,54.56l2.23.24.72.09c.15,0,.27.23.27.48L76.21,65.9a.49.49,0,0,1,0,.12c0,.12-.13.21-.22.22l-.72.09L73,66.57a.39.39,0,0,1-.44-.4l4.3-11.35s0,0,0,0a.38.38,0,0,1,.39-.21m-47.11,1c7-1.5,26.34-2.32,26.34-2.32.24,0,5.09,0,5.34,0h.71a.46.46,0,0,1,.45.46L58.58,67s0,0,0,.06a.43.43,0,0,1-.4.25h-.71l-.89,0s-19.27-.87-26.33-2.48-9.68-3.57-9.68-4.73a.77.77,0,0,1,0-.15c.36-1,2.67-2.87,9.61-4.38m72-20.76L94.47,56.51a.35.35,0,0,1-.5.24c-.23-.09-.37-.19-.61-.3l-.18-.09c-5.77-3.48-17.94-5.16-29.32-5.58-1.67-.14-3.92-.15-5.38-.16-.5,0-1,0-1.47,0q-4.44.11-8.43.33a117.07,117.07,0,0,0-18.92,2.21,33,33,0,0,0-8.43,2.78l-.46.2c-.23.11-.57.3-.76.42a.3.3,0,0,1-.48-.2L11.89,34.82a.31.31,0,0,1,.32-.43h4a.48.48,0,0,1,.48.44l.24,3.7a.49.49,0,0,0,.48.45H21a.47.47,0,0,1,.47.45l.29,6.32c0,.24,0,.65,0,.89v.1a.32.32,0,0,0,.44.32l6-1.58a.6.6,0,0,0,.42-.56l-.56-17.37a.49.49,0,0,1,.43-.5l1.58-.15a.45.45,0,0,0,.41-.49l0-.2c0-.13,0-.29,0-.45h0a3.48,3.48,0,0,1,0-.39v-.06h0A2.1,2.1,0,0,1,32.86,23h0a1.81,1.81,0,0,1,.93.45,3.24,3.24,0,0,1,.68,1.46c.05.25.11.64.13.89V26a.44.44,0,0,0,.48.4l1.72-.16a.41.41,0,0,1,.45.41l.29,16.66a.39.39,0,0,0,.45.4l5.71-.64a.49.49,0,0,0,.43-.49l-.08-3.31a.47.47,0,0,1,.44-.47l3.36-.11.45,0H49a.46.46,0,0,0,.44-.47L48.92,23.1a.44.44,0,0,1,.44-.46l1.21,0a.74.74,0,0,0,.61-.44L52,20a.29.29,0,0,0-.3-.41l-7.36.24a.26.26,0,0,0-.25.41l1.08,2.12a.75.75,0,0,0,.65.38l1.18,0a.46.46,0,0,1,.47.43l.05,1.49a.46.46,0,0,1-.44.47l-3,.1a.45.45,0,0,1-.46-.43l-.2-5.68a.44.44,0,0,1,.44-.46l8.61-.22a.44.44,0,0,1,.46.44l.26,23.3a.47.47,0,0,0,.46.45l5.14.06a.43.43,0,0,0,.45-.44V40.91c0-.24,0-.65,0-.9l.08-20.83a.43.43,0,0,1,.45-.44l1.55,0a.45.45,0,0,0,.45-.45l0-3.31a.43.43,0,0,1,.45-.44l1.57,0a.46.46,0,0,0,.46-.45l0-2.22a.45.45,0,0,1,.46-.44l.66,0a.45.45,0,0,1,.44.46l0,2.2a.46.46,0,0,0,.45.46l1.45,0a.44.44,0,0,1,.44.45l0,3.33a.45.45,0,0,0,.45.45l1.5,0a.46.46,0,0,1,.45.46l-.08,23.48a.51.51,0,0,0,.45.49l5.22.51a.4.4,0,0,0,.45-.4V31.57c0-.25,0-.25.07,0l1.79,12.12a.62.62,0,0,0,.51.5l3.71.53a.49.49,0,0,0,.54-.37L86,31.63c.06-.24.09-.23.08,0l-.56,13.12a.53.53,0,0,0,.42.54l5.86,1.34c.24.06.43,0,.44-.17a1.3,1.3,0,0,1,0-.27,2.7,2.7,0,0,0,0-.45l.31-6.32a.48.48,0,0,1,.47-.45h3.49a.47.47,0,0,0,.47-.45l.09-3.69a.47.47,0,0,1,.46-.45h4.22a.31.31,0,0,1,.32.43M44.29,32.61l3.05-.11a.46.46,0,0,1,.46.44l0,.58a.46.46,0,0,1-.43.47l-3,.1a.45.45,0,0,1-.46-.43l0-.59a.45.45,0,0,1,.43-.46m-.51-1.92,0-.58a.45.45,0,0,1,.43-.47l3.05-.1a.45.45,0,0,1,.46.43l0,.59a.45.45,0,0,1-.43.46l-3,.11a.46.46,0,0,1-.46-.44m.61,4.88,3-.1a.45.45,0,0,1,.46.43l0,.59a.45.45,0,0,1-.43.46l-3.05.1a.45.45,0,0,1-.46-.43L44,36a.46.46,0,0,1,.43-.47m2.1-14a.72.72,0,0,1-.63-.35c-.1-.2,0-.37.26-.38l4-.12c.24,0,.38.15.3.36a.68.68,0,0,1-.59.39Zm1.13,6a.45.45,0,0,1-.44.46l-3,.1a.44.44,0,0,1-.46-.43l0-.58a.45.45,0,0,1,.43-.47l3-.1a.45.45,0,0,1,.46.43Z"/><path class="cls-1" d="M112.32,28l-19,.13a.5.5,0,0,1-.51-.52l.32-9.81a.57.57,0,0,0-.5-.57l-5.27-.46a2.13,2.13,0,0,1-.93-.36l-3.49-2.62a2.07,2.07,0,0,0-1.88,0l-3.61,2.29a1.76,1.76,0,0,1-.9.24.56.56,0,0,1-.47-.56v-2a.59.59,0,0,0-.52-.57l-1.08-.1a.59.59,0,0,1-.53-.57l0-3.47a.56.56,0,0,0-.53-.55L72,8.38a.57.57,0,0,1-.54-.55l-.07-2a.56.56,0,0,0-.54-.53L59.31,5.2a.52.52,0,0,0-.53.51L58.72,8a.58.58,0,0,1-.54.55l-1.88.08a.56.56,0,0,0-.51.55l.05,2.63a.54.54,0,0,1-.51.53l-18.12.43a.54.54,0,0,0-.52.54v4.21a.32.32,0,0,1-.48.33s-2.5-1.6-4.73-1.29C27.7,17.12,25.66,21,25.66,21a1,1,0,0,1-.75.5l-3.07.2a.54.54,0,0,0-.5.55l.22,5.09a.51.51,0,0,1-.5.52l-18.51,0a.36.36,0,0,0-.35.5l12,35.33c.09.27.17.52.19.56.11.45,5.49,10.84,41.32,10.53l7.4-.06c30.86,0,36-9.49,36-9.49a8,8,0,0,0,.43-.94l13.07-35.77a.35.35,0,0,0-.35-.49m-2.71,2.58L97.77,63.42a5.32,5.32,0,0,1-.47.92s-1.56,2-6.53,4.26c-9.69,4.38-32,4-32,4-34.46.56-41.78-8.07-42.4-9-.14-.28-.26-.56-.3-.67L5,30.38a.35.35,0,0,1,.35-.49H20.76a.56.56,0,0,1,.55.51l.2,3.64a.56.56,0,0,0,.55.52h1.31a.5.5,0,0,0,.5-.52l-.42-9.77a.55.55,0,0,1,.5-.56l2.51-.2c.29,0,.55-.16.58-.3s.13-.48.2-.76a5.79,5.79,0,0,1,4.44-3.84,6.44,6.44,0,0,1,3.6.79c1.18.62,1.72,2.21,2,2.21h.92a.53.53,0,0,0,.52-.53V15.3a.53.53,0,0,1,.52-.53l18.15-.44a.54.54,0,0,0,.51-.53l0-2.67a.53.53,0,0,1,.51-.54l1.79-.09a.57.57,0,0,0,.54-.54l.06-2.2a.51.51,0,0,1,.53-.51l7.63.09a.55.55,0,0,1,.54.53l.07,1.88a.58.58,0,0,0,.54.55l1.31.07a.58.58,0,0,1,.53.55l0,3.41a.6.6,0,0,0,.52.57l1.06.09a.59.59,0,0,1,.52.57v2.08a.58.58,0,0,0,.52.56l2.42.19a1.87,1.87,0,0,0,1-.23l3-1.92a1.93,1.93,0,0,1,1.82,0l2.86,2.15a2.26,2.26,0,0,0,.93.36l3.93.35a.55.55,0,0,1,.5.56L90.55,34a.51.51,0,0,0,.51.52h1a.53.53,0,0,0,.54-.51l.11-3.22a.55.55,0,0,1,.54-.52l16-.11a.33.33,0,0,1,.34.48"/><path class="cls-1" d="M327.23,18.05a2.62,2.62,0,0,1,1,1,3.26,3.26,0,0,1,0,3,2.65,2.65,0,0,1-1,1,2.93,2.93,0,0,1-1.46.36,2.67,2.67,0,0,1-1.1-.23,2.42,2.42,0,0,1-.85-.68v2.89h-1V17.75h1v.88a2.17,2.17,0,0,1,.86-.7,2.63,2.63,0,0,1,1.13-.24A2.93,2.93,0,0,1,327.23,18.05Zm-.58,4.21a1.74,1.74,0,0,0,.68-.69,2.25,2.25,0,0,0,0-2.06,1.74,1.74,0,0,0-.68-.69,1.9,1.9,0,0,0-1-.24,1.8,1.8,0,0,0-.95.25,1.74,1.74,0,0,0-.68.69,2.08,2.08,0,0,0-.25,1,2,2,0,0,0,.25,1,1.65,1.65,0,0,0,.67.69,1.86,1.86,0,0,0,1,.25A1.81,1.81,0,0,0,326.65,22.26Z"/><path class="cls-1" d="M331.75,18a2.86,2.86,0,0,1,1.26-.26v1h-.23a1.76,1.76,0,0,0-1.3.49,2,2,0,0,0-.46,1.4v2.78h-1V17.75h1v.93A1.72,1.72,0,0,1,331.75,18Z"/><path class="cls-1" d="M339.23,20.88H334.7a1.72,1.72,0,0,0,.64,1.18,2.12,2.12,0,0,0,1.38.45,2,2,0,0,0,1.61-.67l.56.65a2.48,2.48,0,0,1-.94.68,3.4,3.4,0,0,1-1.26.23,3.2,3.2,0,0,1-1.57-.37,2.58,2.58,0,0,1-1.06-1,3.09,3.09,0,0,1,0-2.95,2.56,2.56,0,0,1,1-1,3,3,0,0,1,2.87,0,2.57,2.57,0,0,1,1,1,3.19,3.19,0,0,1,.35,1.5C339.25,20.65,339.24,20.75,339.23,20.88Zm-4-1.89a1.72,1.72,0,0,0-.57,1.16h3.58a1.86,1.86,0,0,0-.57-1.16,1.79,1.79,0,0,0-1.22-.44A1.73,1.73,0,0,0,335.27,19Z"/><path class="cls-1" d="M340.94,23.21a2.85,2.85,0,0,1-1-.47l.42-.8a2.68,2.68,0,0,0,.9.42,3.49,3.49,0,0,0,1.06.16c.89,0,1.33-.25,1.33-.76a.49.49,0,0,0-.18-.4,1,1,0,0,0-.45-.21c-.18,0-.43-.1-.76-.16a8,8,0,0,1-1.11-.24,1.81,1.81,0,0,1-.73-.46,1.32,1.32,0,0,1-.3-.92,1.44,1.44,0,0,1,.63-1.22,2.88,2.88,0,0,1,1.7-.46,4.84,4.84,0,0,1,1.12.14,2.83,2.83,0,0,1,.91.37l-.43.8a2.88,2.88,0,0,0-1.61-.44,1.85,1.85,0,0,0-1,.21.63.63,0,0,0-.34.56.53.53,0,0,0,.19.43,1.22,1.22,0,0,0,.47.23c.18.05.45.11.78.17a8.24,8.24,0,0,1,1.09.25,1.69,1.69,0,0,1,.72.45,1.26,1.26,0,0,1,.29.88A1.38,1.38,0,0,1,344,23a3,3,0,0,1-1.76.45A4.44,4.44,0,0,1,340.94,23.21Z"/><path class="cls-1" d="M351,20.88h-4.54a1.77,1.77,0,0,0,.65,1.18,2.12,2.12,0,0,0,1.38.45,2.08,2.08,0,0,0,1.61-.67l.56.65a2.48,2.48,0,0,1-.94.68,3.4,3.4,0,0,1-1.26.23,3.24,3.24,0,0,1-1.58-.37,2.65,2.65,0,0,1-1.06-1,3.16,3.16,0,0,1,0-2.95,2.65,2.65,0,0,1,1-1,2.75,2.75,0,0,1,1.43-.37,2.7,2.7,0,0,1,1.43.37,2.6,2.6,0,0,1,1,1,3.19,3.19,0,0,1,.35,1.5C351,20.65,351,20.75,351,20.88ZM347,19a1.78,1.78,0,0,0-.58,1.16H350a1.82,1.82,0,0,0-.58-1.16,1.76,1.76,0,0,0-1.22-.44A1.7,1.7,0,0,0,347,19Z"/><path class="cls-1" d="M357.07,18.31a2.41,2.41,0,0,1,.63,1.81v3.21h-1v-3.1a1.7,1.7,0,0,0-.39-1.22,1.48,1.48,0,0,0-1.12-.41,1.73,1.73,0,0,0-1.29.48,1.87,1.87,0,0,0-.48,1.38v2.87h-1V17.75h1v.84a2,2,0,0,1,.83-.67,3,3,0,0,1,1.19-.23A2.31,2.31,0,0,1,357.07,18.31Z"/><path class="cls-1" d="M362.71,23a1.63,1.63,0,0,1-.54.29,2.6,2.6,0,0,1-.68.1,1.77,1.77,0,0,1-1.31-.46,1.71,1.71,0,0,1-.46-1.29V18.58h-1v-.83h1V16.52h1v1.23h1.61v.83h-1.61v3a1,1,0,0,0,.23.7.85.85,0,0,0,.65.24,1.19,1.19,0,0,0,.79-.26Z"/><path class="cls-1" d="M368.78,20.88h-4.54a1.77,1.77,0,0,0,.65,1.18,2.12,2.12,0,0,0,1.38.45,2.06,2.06,0,0,0,1.61-.67l.56.65a2.48,2.48,0,0,1-.94.68,3.4,3.4,0,0,1-1.26.23,3.2,3.2,0,0,1-1.57-.37,2.52,2.52,0,0,1-1.06-1,3.09,3.09,0,0,1,0-2.95,2.56,2.56,0,0,1,1-1,2.76,2.76,0,0,1,1.44-.37,2.69,2.69,0,0,1,1.42.37,2.6,2.6,0,0,1,1,1,3.19,3.19,0,0,1,.35,1.5C368.8,20.65,368.79,20.75,368.78,20.88Zm-4-1.89a1.78,1.78,0,0,0-.58,1.16h3.59a1.82,1.82,0,0,0-.58-1.16,1.75,1.75,0,0,0-1.21-.44A1.71,1.71,0,0,0,364.82,19Z"/><path class="cls-1" d="M375.47,15.51v7.82h-1v-.88a2.36,2.36,0,0,1-.86.71,2.64,2.64,0,0,1-1.14.24,2.89,2.89,0,0,1-1.45-.36,2.58,2.58,0,0,1-1-1,3.26,3.26,0,0,1,0-3,2.56,2.56,0,0,1,1-1,2.89,2.89,0,0,1,1.45-.36,2.72,2.72,0,0,1,1.11.23,2,2,0,0,1,.84.67V15.51Zm-1.91,6.75a1.71,1.71,0,0,0,.67-.69,2.33,2.33,0,0,0,0-2.06,1.71,1.71,0,0,0-.67-.69,2.06,2.06,0,0,0-1.93,0,1.71,1.71,0,0,0-.67.69,2.25,2.25,0,0,0,0,2.06,1.71,1.71,0,0,0,.67.69,2,2,0,0,0,1.93,0Z"/><path class="cls-1" d="M384.65,18.05a2.62,2.62,0,0,1,1,1,3.26,3.26,0,0,1,0,3,2.65,2.65,0,0,1-1,1,2.93,2.93,0,0,1-1.46.36,2.71,2.71,0,0,1-1.14-.24,2.33,2.33,0,0,1-.85-.71v.88h-1V15.51h1v3.08a2.14,2.14,0,0,1,.85-.67,2.64,2.64,0,0,1,1.1-.23A2.93,2.93,0,0,1,384.65,18.05Zm-.58,4.21a1.74,1.74,0,0,0,.68-.69,2.25,2.25,0,0,0,0-2.06,1.74,1.74,0,0,0-.68-.69,1.9,1.9,0,0,0-1-.24,2,2,0,0,0-1,.24,1.74,1.74,0,0,0-.68.69,2.33,2.33,0,0,0,0,2.06,1.74,1.74,0,0,0,.68.69,1.86,1.86,0,0,0,1,.25A1.81,1.81,0,0,0,384.07,22.26Z"/><path class="cls-1" d="M392.21,17.75l-2.71,6.14a2.86,2.86,0,0,1-.84,1.21,1.91,1.91,0,0,1-1.15.34,2.4,2.4,0,0,1-.8-.13,1.63,1.63,0,0,1-.64-.38l.44-.76a1.41,1.41,0,0,0,1,.41,1,1,0,0,0,.61-.2,1.56,1.56,0,0,0,.45-.67l.18-.39-2.47-5.57h1.06l2,4.47,1.93-4.47Z"/></svg>