<?xml version="1.0" encoding="UTF-8"?>
<svg id="Layer_1" data-name="Layer 1" xmlns="http://www.w3.org/2000/svg" xmlns:xlink="http://www.w3.org/1999/xlink" version="1.1" viewBox="0 0 200 80">
  <defs>
    <style>
      .cls-1 {
        clip-path: url(#clippath);
      }

      .cls-2 {
        fill: none;
      }

      .cls-2, .cls-3, .cls-4 {
        stroke-width: 0px;
      }

      .cls-5 {
        clip-path: url(#clippath-1);
      }

      .cls-6 {
        clip-path: url(#clippath-4);
      }

      .cls-7 {
        clip-path: url(#clippath-3);
      }

      .cls-8 {
        clip-path: url(#clippath-2);
      }

      .cls-9 {
        clip-path: url(#clippath-6);
      }

      .cls-10 {
        clip-path: url(#clippath-5);
      }

      .cls-3 {
        fill-rule: evenodd;
      }

      .cls-3, .cls-4 {
        fill: #fff;
      }
    </style>
    <clipPath id="clippath">
      <path class="cls-2" d="M150.8,59.7h17.3v7.6h-5.2v-3.8h-2v9.6h2v-3.8h5.2v7.6h-17.3v-7.6h5.2v3.8h2v-9.6h-2v3.8h-5.2v-7.6ZM150.8,58c-1,0-1.8.7-1.8,1.7,0,0,0,0,0,0v17.4c0,1,.8,1.7,1.7,1.7,0,0,0,0,0,0h17.3c.9,0,1.7-.7,1.8-1.7,0,0,0,0,0,0v-17.4c0-1-.8-1.7-1.7-1.7h-17.3Z"/>
    </clipPath>
    <clipPath id="clippath-1">
      <path class="cls-2" d="M127.8,62.2c-1.6.2-2.9,1.6-2.9,3.2,0,.6,0,1.1.3,1.6.4.9,1.2,1.4,3.1,2.1,2.1.7,2.5,1,2.5,1.9,0,.4-.1.8-.4,1-.5.4-1.1.6-1.7.5-.9,0-1.7-.2-2.4-.6-.3-.1-.6-.3-.7-.4h-.2c0-.1,0,2.1,0,2.1h.3c.8.5,1.6.7,2.4.8.6,0,1.2,0,1.8,0,.4-.1.8-.3,1.2-.4.8-.4,1.4-1.1,1.7-2,.2-.5.2-1.1.2-1.6,0-.6-.3-1.2-.8-1.7-.8-.7-1.8-1.2-2.8-1.5-1.7-.6-2.2-1-2.3-1.7,0-.6.3-1.1.8-1.4,1.2-.4,2.6-.3,3.7.4l.3.2c0-.4,0-.7,0-1.1v-1h-.2c-.5-.3-.9-.4-1.4-.5-.4,0-.8,0-1.2,0-.4,0-.8,0-1.2,0h0Z"/>
    </clipPath>
    <clipPath id="clippath-2">
      <polygon class="cls-2" points="81.5 62.3 81.5 64.2 85.3 64.2 85.3 74.2 87.4 74.2 87.4 64.2 91.2 64.2 91.2 62.3 81.5 62.3"/>
    </clipPath>
    <clipPath id="clippath-3">
      <rect class="cls-2" x="119.3" y="62.3" width="2.1" height="11.9"/>
    </clipPath>
    <clipPath id="clippath-4">
      <polygon class="cls-2" points="134.3 62.3 134.3 64.2 138.1 64.2 138.1 74.2 140.2 74.2 140.2 64.2 143.9 64.2 143.9 62.3 134.3 62.3"/>
    </clipPath>
    <clipPath id="clippath-5">
      <path class="cls-2" d="M113.3,62.3v3.8q0,4.4-.3,5.1c-.7,1.3-2.4,1.7-3.7,1-.4-.2-.8-.6-1-1-.3-.7-.3-.7-.3-5.1v-3.8h-2.1v3.8c0,4.3,0,4.4.3,5.3.6,1.7,2.1,2.8,3.8,3,.4,0,.9,0,1.3,0,1.8-.2,3.3-1.3,3.8-3,.3-.9.3-1,.3-5.3v-3.8h-2.1Z"/>
    </clipPath>
    <clipPath id="clippath-6">
      <path class="cls-2" d="M95.9,68.1v-3.9h1.9c.6,0,1.1,0,1.7.2,1,.5,1.3,1.7.8,2.7,0,.1-.2.3-.3.4-.3.3-.6.5-1,.5-.6,0-1.2,0-1.8,0-.4,0-.8,0-1.3,0M93.9,74.2h2v-4.2h.6c1.3,0,1.6.2,2.3,1.7.3.7.7,1.3,1.1,1.8.4.4.9.6,1.4.7.5,0,1.1,0,1.7,0v-1.9h-.3c-.5,0-1.1-.2-1.4-.6-.2-.3-.4-.6-.5-.9-.2-.4-.5-.8-.8-1.2h-.1c0-.1.3-.2.3-.2,1.1-.3,1.9-1.2,2.3-2.2.2-.7.2-1.4,0-2.1-.3-1.2-1.1-2.1-2.3-2.5-.7-.3-.8-.3-3.7-.3h-2.7v11.9Z"/>
    </clipPath>
  </defs>
  <path class="cls-4" d="M90.3,7.3c0,0,0-.1,0-.1,0,0,0,0,.2-.1,0,0,.1,0,.2-.1h3.1c.1,0,.2,0,.3.1,0,0,.1.1.2.2l.3.6,5.9,15.2c0,.1,0,.3,0,.4-.1.1-.3.2-.4.1h-3.3c-.1,0-.3,0-.4,0-.1,0-.2-.2-.2-.3-.1-.4-.3-.8-.4-1.1s-.3-.8-.4-1.1h-6c-.1.4-.3.8-.4,1.1s-.3.8-.4,1.1c0,.3-.3.4-.6.4h-3.3c-.1,0-.2,0-.3-.1,0,0-.1-.2,0-.3l6-15.8ZM92.3,12.1c-.1.4-.3.8-.4,1.2s-.3.9-.4,1.3-.3.9-.4,1.3c-.2.4-.3.9-.4,1.2h3.5l-1.7-5.1Z"/>
  <path class="cls-4" d="M104.5,7.3c0-.1,0-.3.1-.4,0-.1.2-.2.4-.1h7.3c.7,0,1.5.1,2.2.4.7.3,1.3.7,1.8,1.2.5.5.9,1.1,1.2,1.7.3.7.4,1.4.4,2.1,0,.5,0,1-.2,1.4-.1.4-.4.9-.6,1.3-.2.4-.5.8-.9,1.1-.3.4-.7.7-1.1.9l2.9,5.4.2.4c0,.1.1.2.1.4,0,.1,0,.2-.1.3,0,0-.2,0-.3,0h-3.8c-.1,0-.2,0-.3-.1,0,0-.2-.2-.2-.3l-2.8-5.1h-1.8v5c0,.3-.2.5-.5.5h-3.3c-.1,0-.3,0-.4-.1,0,0-.1-.2-.1-.4V7.3ZM113.3,12.4c0-.2,0-.5-.1-.7,0-.2-.2-.4-.3-.6-.1-.2-.3-.3-.5-.5-.2-.1-.4-.2-.7-.2h-2.8v4.1h2.8c.3,0,.5-.1.7-.2.4-.3.7-.7.8-1.2,0-.2.1-.5.1-.7"/>
  <path class="cls-4" d="M121.3,15.2c0-.8,0-1.5.3-2.3.2-.7.5-1.4.9-2.1.4-.6.8-1.2,1.3-1.8.5-.5,1.1-1,1.7-1.3.6-.4,1.3-.7,2.1-.9.7-.2,1.5-.3,2.3-.3.8,0,1.5.1,2.3.3.7.2,1.4.5,2.1.9,1.3.7,2.4,1.8,3.1,3.1.4.6.7,1.3.9,2.1.4,1.5.4,3.1,0,4.6-.2.7-.5,1.4-.9,2-.4.6-.8,1.2-1.3,1.7-.5.5-1.1,1-1.8,1.3-.6.4-1.3.7-2.1.9-.7.2-1.5.3-2.3.3-.8,0-1.5,0-2.3-.3-.7-.2-1.4-.5-2.1-.9-.6-.4-1.2-.8-1.7-1.3-.5-.5-1-1.1-1.3-1.7-.4-.6-.7-1.3-.9-2-.2-.7-.3-1.5-.3-2.3M125.7,15.2c0,.6.1,1.2.3,1.7.2.5.5,1,.9,1.4.8.8,1.9,1.3,3,1.3.6,0,1.2-.1,1.7-.3.5-.2,1-.5,1.3-.9.4-.4.7-.9.9-1.4.4-1.1.4-2.4,0-3.5-.2-.5-.4-1-.8-1.5-.4-.4-.8-.8-1.3-1-.5-.2-1.1-.4-1.7-.4-.6,0-1.2.1-1.7.4-.5.2-1,.6-1.3,1-.4.4-.7.9-.9,1.4-.2.6-.3,1.1-.3,1.7"/>
  <path class="cls-4" d="M147.4,16.9c0,.5,0,1,.2,1.4.1.4.3.7.6.9.2.2.5.4.9.5.3.1.7.2,1,.2.4,0,.7,0,1.1-.2.3-.1.6-.3.9-.6.3-.3.5-.6.6-1,.1-.4.2-.9.2-1.3V7.3c0-.1,0-.2.2-.3,0-.1.2-.2.4-.1h3.3c.2,0,.3,0,.4.2,0,0,.1.2.1.3v9.4c0,1.1-.2,2.3-.6,3.3-.3.8-.9,1.6-1.6,2.1-.7.5-1.4.9-2.3,1.2-.9.2-1.8.4-2.7.4-.9,0-1.8-.1-2.7-.4-.8-.2-1.6-.6-2.3-1.2-.7-.6-1.2-1.3-1.6-2.1-.4-1-.6-2.2-.6-3.3V7.3c0-.1,0-.2.1-.3,0,0,.2-.2.3-.2h3.4c.1,0,.3,0,.4.1.1,0,.2.2.2.3v9.5Z"/>
  <path class="cls-4" d="M162.3,7.3c0-.1,0-.3.1-.3,0-.1.2-.2.4-.1h3.7c.1,0,.2,0,.3,0,.1,0,.2.2.3.3,1,1.5,1.9,3.1,2.8,4.5l2.9,4.5V7.3c0-.1.1-.2.2-.3,0,0,.2-.1.3-.1h3.2c.1,0,.3,0,.4.1.1,0,.2.2.1.4v15.7c0,.1,0,.3-.1.3-.1,0-.2.1-.4.1h-3.6c0,0-.2,0-.2-.1,0,0-.2-.2-.2-.3l-3-4.9c-1-1.6-2-3.2-3-4.9v9.6c0,.2-.1.5-.4.5,0,0-.1,0-.2,0h-3.2c-.1,0-.3,0-.4-.1,0,0-.1-.2-.1-.3V7.3Z"/>
  <path class="cls-4" d="M196.9,15.2c0,.8,0,1.5-.3,2.3-.2.7-.5,1.4-.9,2-.4.6-.8,1.2-1.4,1.7-.5.5-1.1.9-1.7,1.3-1.3.7-2.8,1.1-4.3,1.1h-5.5c-.1,0-.2,0-.4,0-.1,0-.2-.2-.2-.4V7.3c0-.1,0-.3.1-.4.1-.1.2-.2.4-.2h5.5c.8,0,1.5,0,2.3.3.7.2,1.4.5,2,.8.6.4,1.2.8,1.7,1.3.5.5,1,1.1,1.3,1.7.4.6.7,1.3.9,2,.2.7.3,1.5.3,2.3M186.6,10.8v8.7h1.9c.5,0,1.1-.2,1.6-.4.5-.2.9-.5,1.3-.9.4-.4.7-.8.9-1.3.2-.5.3-1.1.3-1.6,0-.6-.1-1.2-.4-1.7-.2-.5-.6-1-1-1.4-.4-.4-.9-.7-1.4-.9-.6-.2-1.1-.3-1.7-.3h-1.5Z"/>
  <path class="cls-4" d="M87.7,32.7h-3.7s0,0-.1,0c0,0,0,0,0,.1v.4s0,0,0,.1c0,0,0,0,.1,0h1.5v4.5s0,0,0,.1c0,0,0,0,.1,0h.4s0,0,.1,0c0,0,0,0,0-.1v-4.5h1.5c0,0,.1,0,.1,0,0,0,0,0,0-.1v-.4s0,0,0-.1c0,0,0,0-.1,0"/>
  <path class="cls-4" d="M93.4,32.7h-.4s0,0-.1,0c0,0,0,0,0,.1v2h-3v-2s0,0,0-.1c0,0,0,0-.1,0h-.4s0,0-.1,0c0,0,0,0,0,.1v5.1c0,0,0,.1.1.2,0,0,0,0,0,0h.4c.1,0,.2,0,.2-.2v-2.3h3v2.3c0,0,0,.1.1.2,0,0,0,0,0,0h.4c.1,0,.2,0,.2-.2v-5.1s0,0,0-.1c0,0,0,0-.1,0"/>
  <path class="cls-4" d="M98.8,37.4h-2.9v-1.8h2.3s0,0,.1,0c0,0,0,0,0-.1v-.4s0,0,0-.1c0,0,0,0-.1,0h-2.3v-1.5h2.9s0,0,.1,0c0,0,0,0,0-.1v-.4c0-.1,0-.2-.2-.2h-3.4c0,0-.2,0-.2.1,0,0,0,0,0,0v5.1c0,0,0,.1.1.2,0,0,0,0,0,0h3.5c0,0,.1,0,.2-.1,0,0,0,0,0,0v-.4c0-.1,0-.2-.2-.2"/>
  <path class="cls-4" d="M106.8,32.3c.9-.9,2.2-1.4,3.6-1.4.5,0,.9.1,1.4.3.5.1.9.4,1.3.6,0,0,.1,0,.2.1.2,0,.4,0,.6-.2l.4-.7c0,0,0-.2,0-.3,0,0,0-.2,0-.2,0,0-.1-.1-.2-.2h0c-.6-.4-1.2-.7-1.8-.9-.6-.2-1.3-.3-2-.3-.6,0-1.2,0-1.8.2-.6.2-1.1.4-1.6.7-.5.3-.9.6-1.3,1-.4.4-.7.8-1,1.3-.3.5-.5,1-.7,1.6-.5,1.7-.2,3.5.7,5.1.3.5.6.9,1,1.3.4.4.8.7,1.3,1,.5.3,1,.5,1.6.7.6.2,1.2.2,1.8.2,1.4,0,2.7-.4,3.8-1.2.2,0,.3-.2.2-.4,0,0,0-.2,0-.3l-.5-.8c0-.1-.2-.2-.4-.3-.1,0-.2,0-.3.1-.3.2-.5.3-.8.5-.2.1-.5.2-.7.3-.2,0-.5.1-.7.2-.8.1-1.7,0-2.5-.3-.6-.2-1.1-.6-1.5-1-.9-.9-1.4-2.1-1.4-3.4,0-.6.1-1.2.4-1.8.2-.6.6-1.1,1-1.5"/>
  <path class="cls-4" d="M126.4,35.5c.2-.3.4-.6.5-1,.4-1.4,0-3-1-4.1-.4-.4-.8-.7-1.3-.9-.5-.2-1.1-.3-1.6-.3h-4.9c-.2,0-.5.2-.5.4,0,0,0,0,0,0v11.8c0,.2.1.5.4.5,0,0,0,0,0,0h.9c.2,0,.5-.1.5-.4,0,0,0,0,0,0v-4.1h3.7l2,4.2c0,.2.3.4.5.4h1c.3,0,.4-.1.4-.4h0c0-.1-2.2-4.6-2.2-4.6.3-.2.6-.3.9-.6.3-.3.5-.5.7-.9M125,34.2c-.1.3-.3.5-.5.7-.2.2-.4.4-.7.5-.3.1-.6.2-.9.2h-3.6v-4.6h3.5c.3,0,.6,0,.9.2.3.1.5.3.7.5.2.2.4.5.5.7.1.3.2.6.2.9,0,.3,0,.6-.2.9"/>
  <path class="cls-4" d="M142.4,32.3c-.3-.5-.6-.9-1-1.3-.4-.4-.8-.7-1.3-1-.5-.3-1-.5-1.6-.7-1.1-.3-2.3-.3-3.5,0-.6.2-1.1.4-1.6.7-1,.6-1.8,1.4-2.4,2.4-.9,1.5-1.1,3.4-.7,5.1.3,1.1.9,2.1,1.7,2.9.4.4.8.7,1.3,1,1.5.9,3.4,1.1,5.1.7.6-.1,1.1-.4,1.6-.7.5-.3.9-.6,1.3-1,.4-.4.7-.8,1-1.3.3-.5.5-1,.7-1.6.2-.6.2-1.2.2-1.8,0-.6,0-1.2-.2-1.8-.2-.6-.4-1.1-.7-1.6M141.3,36.9c-.1.4-.3.8-.5,1.1-.2.4-.5.7-.7,1-.6.5-1.3.9-2.1,1.2-1.2.3-2.5.2-3.6-.5-.4-.2-.7-.4-1-.7-.3-.3-.5-.6-.7-1-.2-.4-.4-.7-.5-1.1-.1-.4-.2-.8-.2-1.3,0-.4,0-.8.2-1.3.1-.4.3-.8.5-1.1.2-.3.5-.7.7-1,.3-.3.6-.5,1-.7.4-.2.7-.4,1.1-.5.4-.1.8-.2,1.2-.2.6,0,1.3.1,1.9.4,1.1.5,2,1.4,2.5,2.5.3.6.4,1.2.4,1.8,0,.4,0,.8-.2,1.3"/>
  <path class="cls-4" d="M177,29.3c0,0-.2-.1-.3-.1h-.9c-.2,0-.4.2-.5.4,0,0,0,0,0,0v9.2l-7.1-9.4c-.1-.1-.3-.2-.4-.2h-1.1c-.1,0-.3,0-.4.1,0,0-.1.2-.1.3v11.8c0,.2.1.4.4.5,0,0,0,0,.1,0h.9c.2,0,.5-.1.5-.4,0,0,0,0,0-.1v-9.5l7.2,9.7c0,.1.2.2.4.2h1c.3,0,.5-.2.5-.5v-11.8c0-.1,0-.3-.2-.4"/>
  <path class="cls-4" d="M163.2,29.3h0s0,0-.1,0h-1.3c-.2,0-.3.2-.3.3l-2.7,6.8-1.1,2.8-.2-.5-1.7-4.3,1.9-4.6h0c0-.2,0-.3-.1-.4,0,0-.2-.1-.4-.1h-1.1c-.2,0-.3,0-.3.2l-1,2.5-1-2.5c0-.1-.2-.2-.3-.2h-1.1c-.1,0-.3,0-.4.1,0,0-.1.2-.1.3h0c0,.1,1.9,4.7,1.9,4.7l-1.8,4.4-.2.5-1.2-3-2.7-6.6c0-.2-.2-.3-.3-.3h-1.2c-.1,0-.2.2-.2.3h0c0,0,4.9,12,4.9,12h0c0,.1,0,.2,0,.2h0c0,0,0,.1,0,.1h0c0,0,.1,0,.2,0h.7c0,0,.2,0,.2-.1,0,0,.1-.2.1-.2l2.1-5,2.1,5c0,0,0,.2.1.2,0,0,.1,0,.2.1,0,0,0,0,.1,0h.6c0,0,.2,0,.2,0h0c0,0,0-.1,0-.1,0,0,0,0,0-.2,0,0,0,0,0,0l4.9-11.9h0c0-.2,0-.3-.1-.4"/>
  <polygon class="cls-4" points="182.5 33.2 183.8 33.2 183.8 38.1 184.5 38.1 184.5 32.5 182.5 32.5 182.5 33.2"/>
  <path class="cls-4" d="M189.7,32.8c-.3-.2-.8-.4-1.2-.3-.4,0-.8.1-1.2.3-.4.3-.6.6-.8,1-.4,1-.4,2,0,3,.2.4.4.7.8,1,.7.5,1.6.5,2.4,0,.4-.3.6-.6.8-1,.4-1,.4-2,0-3-.2-.4-.5-.7-.8-1M188.6,37.5c-.3,0-.6,0-.8-.3-.2-.2-.4-.4-.5-.7-.1-.4-.2-.8-.2-1.2,0-.4,0-.8.2-1.2.1-.3.3-.6.5-.8.2-.2.5-.3.8-.2.3,0,.6,0,.8.2.2.2.4.5.5.8.3.8.3,1.6,0,2.4-.1.3-.3.6-.5.7-.2.2-.5.3-.8.3"/>
  <path class="cls-4" d="M197,38h0c0,0-2.5-3.1-2.5-3.1l1.1-1.1,1-1.1h0s0,0,0,0h-.8c0,0-.1,0-.2.1l-2.5,2.7v-2.6s0,0,0-.1c0,0,0,0-.1,0h-.4s0,0-.1,0c0,0,0,0,0,.1v5.1c0,0,0,.1.1.2,0,0,0,0,0,0h.4c.1,0,.2,0,.2-.2v-1.5l.9-1,2,2.6c0,0,0,.1.2.1h.8"/>
  <rect class="cls-4" x="42.2" y="11.3" width="1.5" height="1.5" rx=".3" ry=".3" transform="translate(30.1 54.8) rotate(-89)"/>
  <rect class="cls-4" x="44.6" y="11.3" width="1.5" height="1.5" rx=".3" ry=".3" transform="translate(32.5 57.3) rotate(-89)"/>
  <rect class="cls-4" x="42.1" y="13.8" width="1.5" height="1.5" rx=".3" ry=".3" transform="translate(27.6 57.2) rotate(-89)"/>
  <rect class="cls-4" x="44.6" y="13.8" width="1.5" height="1.5" rx=".3" ry=".3" transform="translate(30 59.6) rotate(-89)"/>
  <rect class="cls-4" x="42.1" y="16.2" width="1.5" height="1.5" rx=".3" ry=".3" transform="translate(25.2 59.5) rotate(-89)"/>
  <rect class="cls-4" x="44.5" y="16.2" width="1.5" height="1.5" rx=".3" ry=".3" transform="translate(27.5 62) rotate(-89)"/>
  <rect class="cls-4" x="42" y="18.6" width="1.5" height="1.5" rx=".3" ry=".3" transform="translate(22.7 61.9) rotate(-89)"/>
  <rect class="cls-4" x="44.5" y="18.7" width="1.5" height="1.5" rx=".3" ry=".3" transform="translate(25 64.3) rotate(-89)"/>
  <path class="cls-4" d="M21.5,18c0,.2.1.3.3.3,0,0,0,0,0,0l2.8-.2c.2,0,.3-.1.3-.3h0v-.4c0-.2-.1-.3-.3-.3,0,0,0,0,0,0h-2.8c-.2.2-.3.3-.3.5,0,0,0,0,0,0v.4Z"/>
  <path class="cls-4" d="M21.5,19.8c0,.2.1.3.3.3h2.8c.2-.2.3-.3.3-.5v-.4c0-.1-.1-.3-.3-.3,0,0,0,0,0,0h-2.8c-.2.2-.3.3-.3.5v.4Z"/>
  <path class="cls-4" d="M21.6,21.5c0,.2.1.3.3.3l2.8-.2c.2,0,.3-.1.3-.3v-.4c0-.2-.1-.3-.3-.3,0,0,0,0,0,0l-2.8.2c-.2,0-.3.1-.3.3v.4Z"/>
  <path class="cls-4" d="M21.6,23.2c0,.2.1.3.3.3,0,0,0,0,0,0l2.7-.2c.2,0,.3-.1.3-.3v-.4c0-.2-.1-.3-.3-.3,0,0,0,0,0,0h-2.7c-.2.2-.3.3-.3.5v.4Z"/>
  <path class="cls-4" d="M13.3,37.5c.6,2.4,2.3,3.4,7.8,4.7,5.9,1.2,12,1.8,18,1.7,15.6,0,25-2.3,25.8-6.4v-.4c0,0,6.3-18,6.3-18,0-.1,0-.2-.1-.3,0,0,0,0,0,0h-6.7c-.2,0-.3.1-.3.3v2.4c-.2.2-.3.3-.5.3h-2.2c-.2,0-.3.1-.3.3l-.3,4.3c0,.1-.1.2-.2.2,0,0,0,0,0,0l-.8-.2c-.2,0-.3-.2-.3-.4l.6-13.8c0-.2-.1-.3-.3-.3h-1.7c-.2-.2-.3-.3-.4-.4l-.3-.8c0-.2-.2-.3-.4-.4l-1-.5c-.2,0-.4,0-.5,0l-1,.4c-.2,0-.3.2-.4.4l-.4.8c-.1.2-.3.2-.5.2h-1.7c-.2-.1-.3,0-.3.2,0,0,0,0,0,0l-.4,13.2c0,.1-.1.3-.3.3,0,0,0,0,0,0h-.5c-.2-.1-.3-.3-.3-.4v-15.6c0-.2,0-.3-.2-.3h-1c-.2,0-.3-.1-.3-.3v-2.2c0-.2-.1-.3-.3-.3h-1c-.2,0-.3-.1-.3-.3,0,0,0,0,0,0v-1.4c0-.2-.1-.3-.3-.3h-3.3c-.2,0-.3,0-.3.2v1.5c0,.2-.1.3-.3.3h-1.1c-.2,0-.3.1-.3.3v2.1c0,.2-.1.3-.3.3h-1c-.2,0-.3.1-.3.3,0,0,0,0,0,0l-.2,13.5v1.8c0,.2-.1.3-.3.3,0,0,0,0,0,0h-.2c-.2,0-.3-.1-.3-.3l-.2-15.5c0-.2-.1-.3-.3-.3,0,0,0,0,0,0l-8.6.2c-.2,0-.3.1-.3.3,0,0,0,0,0,0l.5,15.7c0,.2-.1.3-.3.3h-.8c-.1.1-.3,0-.3-.1,0,0,0,0,0,0l-.3-11c0-.2-.1-.3-.3-.3,0,0,0,0,0,0h-1.1c-.2,0-.3,0-.4-.2-.2-.5-.5-.9-.9-1.3-.6-.4-1.3-.6-2.1-.6-2,.1-2.4,2.4-2.4,2.4,0,.2-.2.3-.4.3h-1.1c-.2.1-.3.3-.3.4l.3,11.7c0,.2-.1.3-.3.4h-.7c-.1.2-.3,0-.3,0,0,0,0,0,0,0l-.2-4.4c0-.1-.1-.2-.3-.2h-2.3c-.2,0-.3-.1-.3-.3v-2.4c-.2-.2-.3-.3-.5-.3h-6.7c-.1,0-.2,0-.2.2,0,0,0,0,0,0l6.2,18.1s0,.3.1.4M58.2,12.8h.3c.2,0,.3.2.3.3,0,0,0,0,0,0v1.7c0,.2,0,.2-.2,0l-.6-1.8c0,0,0-.2,0-.2,0,0,0,0,.1,0M52.9,14.9l1.6-3.2c0-.2.2-.3.4-.4h.4c.2-.2.4-.2.5-.1h.3c.2.2.3.4.4.6l1.2,3.5c0,.2,0,.4,0,.6l-2.3,9.7c0,.2-.2.3-.4.2h-.2c-.2,0-.3-.2-.3-.4l-1.6-9.8c0-.2,0-.4,0-.6M51.9,12.8c0-.2.1-.3.3-.3h.3c0,0,.2,0,.2.2,0,0,0,0,0,.1l-.8,1.5c0,.1-.1.1-.1,0v-1.5ZM45,33h.5c.5,0,2.5.2,2.6.2s.2.1.2.3l-2.7,8.2h0c0,.1,0,.2-.2.2h-3.1c-.2.1-.3,0-.3-.2,0,0,0,0,0,0l2.8-8.6h0c0,0,.2-.2.3-.2M52.5,33.7l1.5.2h.5c0,0,.2.2.2.4l-2.8,6.9s0,0,0,0c0,0,0,.1-.1.1h-.5c0,0-1.5.2-1.5.2-.1,0-.3,0-.3-.2,0,0,0,0,0,0l2.8-7.5h0c0,0,.2-.2.3-.1M21.5,34.5c4.6-1,17.3-1.5,17.3-1.5h4c.2,0,.3.1.3.3,0,0,0,0,0,0l-2.9,8.7h0c0,.1-.1.2-.3.2h-1.1s-12.7-.6-17.3-1.6-6.4-2.3-6.4-3.1c0,0,0,0,0,0,.2-.7,1.7-1.9,6.3-2.9M68.8,20.7l-5.1,14.3c0,.1-.2.2-.3.2,0,0,0,0,0,0-.1,0-.2-.1-.4-.2h-.1c-3.8-2.3-11.8-3.4-19.3-3.7-1.1-.1-2.6-.1-3.5-.1h-1c-2,0-3.8.1-5.5.2-4.2.1-8.3.6-12.4,1.4-1.9.4-3.8,1-5.6,1.8h-.3c-.1.2-.4.3-.5.4,0,0-.2,0-.3,0,0,0,0,0,0-.1l-5-14.2c0-.1,0-.2.1-.3,0,0,0,0,0,0h2.6c.2,0,.3.1.3.3v2.4c.2.2.3.3.5.3h2.3c.2,0,.3.1.3.3l.2,4.2v.6h0c0,.2,0,.3.2.3,0,0,0,0,0,0l4-1c.2,0,.3-.2.3-.4l-.4-11.4c0-.2.1-.3.3-.3h1c.2-.1.3-.3.3-.4,0,0,0,0,0,0v-.2c0,0,0-.2,0-.3h0v-.3h0c0-.8.4-1.5,1.2-1.6.1,0,.3,0,.4,0h0c.2,0,.4.1.6.3.2.3.4.6.5,1,0,.2,0,.4,0,.6h0c0,.3.1.4.3.4,0,0,0,0,0,0h1.1c.1-.1.3,0,.3.1,0,0,0,0,0,0l.2,11c0,.1.1.3.3.3,0,0,0,0,0,0l3.8-.4c.2,0,.3-.2.3-.3v-2.2c0-.2,0-.3.2-.3h2.2c0,0,.8,0,.8,0,.2,0,.3-.1.3-.3,0,0,0,0,0,0l-.4-10c0-.2.1-.3.3-.3h.8c.2,0,.3-.1.4-.3l.5-1.4c0,0,0-.2,0-.2,0,0,0,0-.1,0h-4.9c0,.1-.2.2-.2.3,0,0,0,0,0,.1l.7,1.4c0,.2.3.2.4.2h.8c.2,0,.3.1.3.3,0,0,0,0,0,0v1c0,.2-.1.3-.3.3,0,0,0,0,0,0h-2c-.2,0-.3,0-.3-.2h0s-.1-3.7-.1-3.7c0-.2.1-.3.3-.3h5.7c.2-.2.3,0,.3.1,0,0,0,0,0,0l.2,15.3c0,.2.1.3.3.3,0,0,0,0,0,0h3.4c.2,0,.3,0,.3-.2,0,0,0,0,0,0v-15.3c0-.2.2-.3.4-.3,0,0,0,0,0,0h1c.2,0,.3-.1.3-.3v-2.2c0-.2.1-.3.3-.3,0,0,0,0,0,0h1c.2,0,.3-.1.3-.3v-1.5c0-.2.1-.3.3-.3h.4c.2,0,.3.1.3.3v1.4c0,.2.1.3.3.3,0,0,0,0,0,0h1c.2,0,.3.1.3.3v2.2c0,.2.1.3.3.3h1c.2,0,.3.1.3.3v15.5c0,.2,0,.3.2.3l3.4.3c.1,0,.3,0,.3-.2,0,0,0,0,0,0v-7.8q0-.2,0,0l1.2,8c0,.2.2.3.3.3l2.4.4c.2,0,.3,0,.4-.2l1.9-8.4c0-.1,0-.1,0,0l-.4,8.6c0,.2.1.3.3.4l3.9.9c.2,0,.3,0,.3-.1,0,0,0-.1,0-.2,0,0,0-.2,0-.3l.2-4.2c0-.2.1-.3.3-.3h2.3c.2,0,.3-.1.3-.3v-2.4c0-.2.2-.3.4-.3h2.8c.1,0,.2,0,.2.2,0,0,0,0,0,0M30.7,19.3h2c.2,0,.3,0,.3.2,0,0,0,0,0,0v.4c0,.2-.1.3-.3.3h-2c-.2,0-.3,0-.3-.2,0,0,0,0,0,0v-.4c0-.2.1-.3.3-.3,0,0,0,0,0,0M30.4,18v-.4c0-.2.1-.3.3-.3h2c.2,0,.3,0,.3.2v.4c0,.2-.1.3-.3.3,0,0,0,0,0,0h-2c-.2,0-.3,0-.3-.2M30.8,21.2h2c.2,0,.3,0,.3.2,0,0,0,0,0,0v.4c0,.2-.1.3-.3.3h-2c-.2,0-.3,0-.3-.2,0,0,0,0,0,0v-.4c0-.2.1-.3.3-.3M32.2,12c-.2,0-.3,0-.4-.2,0-.1,0-.2.2-.2h2.6c.2,0,.3,0,.2.1,0,.1-.2.2-.4.3h-2.2ZM32.9,16c0,.2-.1.3-.3.3,0,0,0,0,0,0h-2c-.2,0-.3,0-.3-.2,0,0,0,0,0,0v-.4c0-.2.1-.3.3-.3h2c.2,0,.3,0,.3.2,0,0,0,0,0,0v.4Z"/>
  <path class="cls-4" d="M75.5,16.2h-12.5c-.2,0-.3,0-.3-.2,0,0,0,0,0,0l.2-6.5c0-.2-.1-.4-.3-.4l-3.5-.3c-.2,0-.4-.1-.6-.2l-2.3-1.7c-.4-.2-.8-.2-1.2,0l-2.4,1.5c-.2.1-.4.2-.6.2-.2,0-.3-.2-.3-.4v-1.3c0-.2-.1-.4-.3-.4h-.7c-.2,0-.3-.3-.3-.4v-2.3c0-.2-.2-.3-.3-.4h-.9c-.2,0-.3-.2-.3-.4v-1.3c0-.2-.2-.3-.4-.4h-7.7c-.2-.1-.3,0-.3.2v1.5c0,.2-.2.3-.3.4h-1.2c-.2,0-.3.2-.3.4v1.7c0,.2-.2.3-.3.3l-11.9.3c-.2,0-.3.2-.3.3v2.8c0,.1,0,.2-.2.2,0,0,0,0-.1,0-.9-.6-2-.9-3.1-.8-1.6.4-3,1.4-3.8,2.9-.1.2-.3.3-.5.3h-2c-.2.1-.3.3-.3.5v3.4c.2.2,0,.3-.2.3,0,0,0,0,0,0H3.3c-.1,0-.2,0-.3.2,0,0,0,0,0,.1l7.9,23.3v.4c.2.3,3.7,7.1,27.3,6.9h4.9c20.3,0,23.7-6.2,23.7-6.2,0-.2.2-.5.3-.6l8.6-23.5c0-.1,0-.3-.1-.3,0,0,0,0-.1,0M73.7,18l-7.7,21.6c0,.2-.2.4-.3.6,0,0-1,1.3-4.3,2.8-6.4,2.9-21.1,2.6-21.1,2.6-22.7.4-27.5-5.3-27.9-5.9,0-.2-.2-.4-.2-.4l-7.3-21.4c0-.1,0-.3.1-.3,0,0,0,0,0,0h10.1c.2,0,.3.2.4.3v2.4c.1.2.3.3.5.4h.9c.2,0,.3-.1.3-.3,0,0,0,0,0,0l-.3-6.4c0-.2.1-.3.3-.4h1.7c.2-.1.4-.2.4-.3s0-.3.1-.5c.4-1.3,1.5-2.3,2.9-2.6.8,0,1.6.1,2.4.5.8.5,1.1,1.5,1.3,1.5h.6c.2,0,.3-.2.3-.4v-3.8c0-.2.2-.3.3-.3l12-.3c.2,0,.3-.2.3-.3v-1.8c0-.2,0-.3.2-.4h1.2c.2,0,.3-.2.3-.4v-1.5c0-.2.2-.3.3-.3,0,0,0,0,0,0h5c.2,0,.4.2.4.4,0,0,0,0,0,0v1.2c0,.2.2.3.4.4h.9c.2,0,.3.2.3.4v2.2c0,.2.2.4.3.4h.7c.2,0,.3.3.3.4v1.3c0,.2.1.3.3.4h1.6c.2.1.4,0,.6,0l2-1.3c.4-.2.8-.2,1.2,0l2,1.4c.2.1.4.2.6.2l2.6.2c.2,0,.3.2.3.4l-.3,9.4c0,.2.1.3.3.3,0,0,0,0,0,0h.7c.2,0,.3-.2.3-.3v-2.1c0-.2.2-.3.4-.4h10.5c.1,0,.2,0,.2.1,0,0,0,0,0,.1"/>
  <path class="cls-3" d="M160.8,63.6h2v3.8h5.2v-7.6h-17.2v7.6h5.2v-3.8h2v9.6h-2v-3.8h-5.2v7.6h17.3v-7.6h-5.2v3.8h-2v-9.6ZM169.8,59.7c0-1-.8-1.7-1.7-1.7h-17.3c-1,0-1.8.7-1.8,1.7,0,0,0,0,0,0v17.4c0,.9.8,1.7,1.7,1.7,0,0,0,0,0,0h17.3c.9,0,1.7-.7,1.8-1.7,0,0,0,0,0,0v-17.4Z"/>
  <path class="cls-4" d="M150.8,59.7h17.3v7.6h-5.2v-3.8h-2v9.6h2v-3.8h5.2v7.6h-17.3v-7.6h5.2v3.8h2v-9.6h-2v3.8h-5.2v-7.6ZM150.8,58c-1,0-1.8.7-1.8,1.7,0,0,0,0,0,0v17.4c0,1,.8,1.7,1.7,1.7,0,0,0,0,0,0h17.3c.9,0,1.7-.7,1.8-1.7,0,0,0,0,0,0v-17.4c0-1-.8-1.7-1.7-1.7,0,0,0,0,0,0h-17.3Z"/>
  <g class="cls-1">
    <rect class="cls-4" x="148.3" y="57.3" width="22.3" height="22.3"/>
  </g>
  <path class="cls-3" d="M129,62.1c-.4,0-.8,0-1.2,0-1.6.2-2.9,1.6-2.9,3.2,0,.6,0,1.1.3,1.6.4.9,1.2,1.4,3.1,2.1,2.1.7,2.5,1,2.5,1.9,0,.4-.1.8-.4,1-.5.4-1.1.6-1.7.5-.9,0-1.7-.2-2.4-.6-.3-.1-.6-.3-.7-.4h-.2c0-.1,0,2.1,0,2.1l.3.2c.8.3,1.6.5,2.4.6.6,0,1.2,0,1.8,0,.4,0,.8-.2,1.2-.4.8-.4,1.4-1.1,1.7-2,.1-.5.2-1.1.2-1.6,0-.6-.3-1.2-.8-1.7-.8-.7-1.8-1.2-2.8-1.5-1.7-.6-2.2-1-2.3-1.7,0-.6.3-1.1.8-1.3,1.2-.4,2.6-.3,3.7.4l.3.2c0-.4,0-.7,0-1.1v-1h-.2c-.5-.3-.9-.4-1.4-.5-.4,0-.8,0-1.2,0"/>
  <path class="cls-4" d="M127.8,62.2c-1.6.2-2.9,1.6-2.9,3.2,0,.6,0,1.1.3,1.6.4.9,1.2,1.4,3.1,2.1,2.1.7,2.5,1,2.5,1.9,0,.4-.1.8-.4,1-.5.4-1.1.6-1.7.5-.9,0-1.7-.2-2.4-.6-.3-.1-.6-.3-.7-.4h-.2c0-.1,0,2.1,0,2.1l.3.2c.8.3,1.6.5,2.4.6.6,0,1.2,0,1.8,0,.4-.1.8-.3,1.2-.4.8-.4,1.4-1.1,1.7-2,.2-.5.2-1.1.2-1.6,0-.6-.3-1.2-.8-1.7-.8-.7-1.8-1.2-2.8-1.5-1.7-.6-2.2-1-2.3-1.7,0-.6.3-1.1.8-1.3,1.2-.4,2.6-.3,3.7.4l.3.2c0-.4,0-.7,0-1.1v-1h-.2c-.5-.3-.9-.4-1.4-.5-.4,0-.8,0-1.2,0-.4,0-.8,0-1.2,0"/>
  <g class="cls-5">
    <rect class="cls-4" x="124.1" y="61.3" width="9.5" height="13.9"/>
  </g>
  <polygon class="cls-3" points="81.5 62.3 81.5 64.2 85.3 64.2 85.3 74.2 87.4 74.2 87.4 64.2 91.2 64.2 91.2 62.3 81.5 62.3"/>
  <polygon class="cls-4" points="81.5 62.3 81.5 64.2 85.3 64.2 85.3 74.2 87.4 74.2 87.4 64.2 91.2 64.2 91.2 62.3 81.5 62.3"/>
  <g class="cls-8">
    <rect class="cls-4" x="80.8" y="61.5" width="11.1" height="13.4"/>
  </g>
  <rect class="cls-4" x="119.3" y="62.3" width="2.1" height="11.9"/>
  <rect class="cls-4" x="119.3" y="62.3" width="2.1" height="11.9"/>
  <g class="cls-7">
    <rect class="cls-4" x="118.6" y="61.5" width="3.6" height="13.4"/>
  </g>
  <polygon class="cls-3" points="134.3 62.3 134.3 64.2 138.1 64.2 138.1 74.2 140.2 74.2 140.2 64.2 143.9 64.2 143.9 62.3 134.3 62.3"/>
  <polygon class="cls-4" points="134.3 62.3 134.3 64.2 138.1 64.2 138.1 74.2 140.2 74.2 140.2 64.2 143.9 64.2 143.9 62.3 134.3 62.3"/>
  <g class="cls-6">
    <rect class="cls-4" x="133.6" y="61.5" width="11.1" height="13.4"/>
  </g>
  <path class="cls-3" d="M115.1,71.4c.3-.9.3-1,.3-5.3v-3.8h-2.1v3.8q0,4.3-.3,5.1c-.7,1.3-2.4,1.7-3.7,1-.4-.2-.8-.6-1-1q-.3-.7-.3-5.1v-3.8h-2.1v3.8c0,4.3,0,4.4.3,5.3.6,1.7,2.1,2.8,3.8,3,.4,0,.9,0,1.3,0,1.8-.2,3.3-1.3,3.8-3"/>
  <path class="cls-4" d="M113.3,62.3v3.8q0,4.3-.3,5.1c-.7,1.3-2.4,1.7-3.7,1-.4-.2-.8-.6-1-1-.3-.7-.3-.7-.3-5.1v-3.8h-2.1v3.8c0,4.3,0,4.4.3,5.3.6,1.7,2.1,2.8,3.8,3,.4,0,.9,0,1.3,0,1.8-.2,3.3-1.3,3.8-3,.3-.9.3-1,.3-5.3v-3.8h-2.1Z"/>
  <g class="cls-10">
    <rect class="cls-4" x="105.1" y="61.5" width="11.1" height="13.7"/>
  </g>
  <path class="cls-3" d="M93.8,62.3v11.9h2v-4.2h.6c1.3,0,1.6.2,2.3,1.7.3.7.7,1.3,1.1,1.8.4.4.9.6,1.4.7.5,0,1.1,0,1.7,0v-1.9h-.3c-.5,0-1.1-.2-1.4-.6-.2-.3-.4-.6-.5-.9-.2-.4-.5-.8-.8-1.2v-.2c-.1,0,.2-.1.2-.1,1.1-.3,1.9-1.2,2.3-2.2.2-.7.2-1.4,0-2.1-.3-1.2-1.1-2.1-2.3-2.5-.7-.3-.8-.3-3.7-.3h-2.6ZM97.7,64.2c.6,0,1.1,0,1.7.2,1,.5,1.3,1.7.8,2.7,0,.1-.2.3-.3.4-.3.3-.6.5-1,.5-1,0-2,0-3,0v-3.9h1.9,0Z"/>
  <path class="cls-4" d="M95.9,68.1v-3.9h1.9c.6,0,1.1,0,1.7.2,1,.5,1.3,1.7.8,2.7,0,.1-.2.3-.3.4-.3.3-.6.5-1,.5-.6,0-1.2,0-1.8,0-.4,0-.8,0-1.3,0M93.9,74.2h2v-4.2h.6c1.3,0,1.6.2,2.3,1.7.3.7.7,1.3,1.1,1.8.4.4.9.6,1.4.7.5,0,1.1,0,1.7,0v-1.9h-.3c-.5,0-1.1-.2-1.4-.6-.2-.3-.4-.6-.5-.9-.2-.4-.5-.8-.8-1.2v-.2c-.1,0,.2,0,.2,0,1.1-.3,1.9-1.2,2.3-2.2.2-.7.2-1.4,0-2.1-.3-1.2-1.1-2.1-2.3-2.5-.7-.3-.8-.3-3.7-.3h-2.7v11.9Z"/>
  <g class="cls-9">
    <rect class="cls-4" x="93.1" y="61.5" width="10.6" height="13.5"/>
  </g>
  <path class="cls-4" d="M33.5,66.7c.3.1.5.4.6.6.3.6.3,1.2,0,1.8-.1.3-.4.5-.6.6-.3.1-.6.2-.9.2-.2,0-.5,0-.7-.1-.2,0-.4-.2-.5-.4v1.8h-.6v-4.6h.6v.5c.1-.2.3-.3.5-.4.2-.1.5-.2.7-.2.3,0,.6,0,.9.3ZM33.1,69.2c.2-.1.3-.2.4-.4.1-.2.2-.4.2-.6,0-.2,0-.4-.2-.6,0-.2-.2-.3-.4-.4-.2-.1-.4-.2-.6-.2-.2,0-.4,0-.6.2-.2,0-.3.2-.4.4-.1.2-.2.4-.1.6,0,.2,0,.4.1.6,0,.2.2.3.4.4.4.2.8.2,1.2,0Z"/>
  <path class="cls-4" d="M36.2,66.6c.2-.1.5-.2.8-.2v.6h-.1c-.3,0-.6,0-.8.3-.2.2-.3.5-.3.8v1.7h-.6v-3.4h.6v.6c.1-.2.3-.3.5-.4Z"/>
  <path class="cls-4" d="M40.7,68.4h-2.7c0,.3.2.5.4.7.2.2.5.3.8.3.4,0,.7-.1,1-.4l.3.4c-.2.2-.3.3-.6.4-.2,0-.5.1-.8.1-.3,0-.7,0-1-.2-.3-.1-.5-.4-.6-.6-.2-.3-.2-.6-.2-.9,0-.3,0-.6.2-.9.1-.3.4-.5.6-.6.3-.1.6-.2.9-.2.3,0,.6,0,.9.2.3.1.5.4.6.6.1.3.2.6.2.9,0,0,0,.1,0,.2ZM38.3,67.3c-.2.2-.3.5-.3.7h2.2c0-.3-.1-.5-.3-.7-.2-.2-.5-.3-.7-.3-.3,0-.5,0-.8.2Z"/>
  <path class="cls-4" d="M41.8,69.8c-.2,0-.4-.1-.6-.3l.3-.5c.2.1.3.2.5.3.2,0,.4,0,.7,0,.5,0,.8-.2.8-.5,0,0,0-.2-.1-.2,0,0-.2-.1-.3-.1h-.5c-.2-.1-.4-.2-.7-.2-.2,0-.3-.2-.4-.3-.1-.2-.2-.4-.2-.6,0-.3.1-.6.4-.7.3-.2.6-.3,1-.3.2,0,.5,0,.7,0,.2,0,.4.1.5.2l-.3.5c-.3-.2-.6-.3-1-.3-.2,0-.4,0-.6.1-.1,0-.2.2-.2.3,0,.1,0,.2.1.3,0,0,.2.1.3.1h.5c.3.1.5.2.7.2.2,0,.3.1.4.3.1.2.2.3.2.5,0,.3-.1.6-.4.7-.3.2-.7.3-1.1.3-.3,0-.5,0-.8-.1Z"/>
  <path class="cls-4" d="M47.8,68.4h-2.8c0,.3.2.5.4.7.2.2.5.3.8.3.4,0,.7-.1,1-.4l.3.4c-.2.2-.4.3-.6.4-.2,0-.5.1-.8.1-.3,0-.7,0-1-.2-.3-.1-.5-.4-.7-.6-.3-.6-.3-1.2,0-1.8.1-.3.3-.5.6-.6.3-.1.6-.2.9-.2.3,0,.6,0,.9.2.3.1.5.4.6.6.1.3.2.6.2.9,0,0,0,.1,0,.2ZM45.4,67.3c-.2.2-.3.4-.3.7h2.2c0-.3-.1-.5-.3-.7-.2-.2-.5-.3-.7-.3-.3,0-.5,0-.7.3Z"/>
  <path class="cls-4" d="M51.5,66.8c.3.3.4.7.4,1.1v2h-.6v-1.9c0-.3,0-.5-.2-.7-.2-.2-.4-.3-.7-.3-.3,0-.6,0-.8.3-.2.2-.3.5-.3.8v1.7h-.6v-3.4h.6v.5c.1-.2.3-.3.5-.4.2,0,.5-.1.7-.1.4,0,.8.1,1,.4Z"/>
  <path class="cls-4" d="M55,69.7c-.1,0-.2.1-.3.2-.1,0-.3,0-.4,0-.3,0-.6,0-.8-.3-.2-.2-.3-.5-.3-.8v-1.9h-.6v-.5h.6v-.7h.6v.7h1v.5h-1v1.8c0,.2,0,.3.1.4.1.1.3.2.4.1.2,0,.3,0,.5-.2l.2.5Z"/>
  <path class="cls-4" d="M58.7,68.4h-2.8c0,.3.2.5.4.7.2.2.5.3.8.3.4,0,.7-.1,1-.4l.3.4c-.2.2-.3.3-.6.4-.2,0-.5.1-.8.1-.3,0-.7,0-1-.2-.3-.1-.5-.4-.6-.6-.3-.6-.3-1.2,0-1.8.1-.3.4-.5.6-.6.3-.1.6-.2.9-.2.3,0,.6,0,.9.2.3.1.5.4.6.6.2.3.2.6.2.9,0,0,0,.1,0,.2ZM56.2,67.3c-.2.2-.3.4-.3.7h2.2c0-.3-.1-.5-.3-.7-.2-.2-.5-.3-.7-.3-.3,0-.5,0-.8.3Z"/>
  <path class="cls-4" d="M62.7,65.2v4.7h-.6v-.5c-.1.2-.3.3-.5.4-.2,0-.5.1-.7.1-.3,0-.6,0-.9-.2-.3-.1-.5-.4-.6-.6-.3-.6-.3-1.2,0-1.8.1-.3.4-.5.6-.6.3-.2.6-.2.9-.2.2,0,.5,0,.7.1.2,0,.4.2.5.4v-1.9h.6ZM61.6,69.2c.2,0,.3-.2.4-.4.1-.2.2-.4.2-.6,0-.2,0-.4-.2-.6,0-.2-.2-.3-.4-.4-.4-.2-.8-.2-1.2,0-.2,0-.3.2-.4.4-.1.2-.2.4-.2.6,0,.2,0,.4.2.6.3.5,1,.7,1.6.4Z"/>
  <path class="cls-4" d="M68.3,66.7c.3.1.5.4.6.6.3.6.3,1.2,0,1.8-.1.3-.4.5-.6.6-.3.1-.6.2-.9.2-.2,0-.5,0-.7-.1-.2-.1-.4-.2-.5-.4v.5h-.6v-4.7h.6v1.8c.1-.2.3-.3.5-.4.2,0,.4-.1.7-.1.3,0,.6,0,.9.2ZM67.9,69.2c.2-.1.3-.2.4-.4.1-.2.2-.4.2-.6,0-.2,0-.4-.2-.6,0-.2-.2-.3-.4-.4-.2-.1-.4-.2-.6-.2-.2,0-.4,0-.6.2-.2,0-.3.2-.4.4-.1.2-.2.4-.2.6,0,.2,0,.4.2.6,0,.2.2.3.4.4.2.1.4.2.6.2.2,0,.4,0,.6-.2Z"/>
  <path class="cls-4" d="M72.9,66.5l-1.6,3.7c-.1.3-.3.5-.5.7-.2.1-.5.2-.7.2-.2,0-.3,0-.5,0-.1,0-.3-.1-.4-.2l.3-.5c.2.2.4.3.6.2.1,0,.3,0,.4-.1.1-.1.2-.3.3-.4v-.2c.1,0-1.4-3.4-1.4-3.4h.6l1.2,2.7,1.2-2.7h.6Z"/>
</svg>