<svg id="Layer_1" data-name="Layer 1" xmlns="http://www.w3.org/2000/svg" xmlns:xlink="http://www.w3.org/1999/xlink" viewBox="0 0 200 80"><defs><style>.cls-1,.cls-2{fill:#fff;}.cls-2{fill-rule:evenodd;}.cls-3{clip-path:url(#clip-path);}.cls-4{clip-path:url(#clip-path-2);}.cls-5{clip-path:url(#clip-path-3);}.cls-6{clip-path:url(#clip-path-4);}.cls-7{clip-path:url(#clip-path-5);}.cls-8{clip-path:url(#clip-path-6);}.cls-9{clip-path:url(#clip-path-7);}</style><clipPath id="clip-path"><path class="cls-1" d="M150.79,59.73h17.26v7.65H162.8V63.6h-2v9.61h2V69.44h5.25v7.64H150.79V69.44H156v3.77h2V63.6h-2v3.78h-5.25Zm0-1.72A1.74,1.74,0,0,0,149,59.73V77.08a1.73,1.73,0,0,0,1.77,1.72h17.26a1.72,1.72,0,0,0,1.76-1.72V59.73A1.73,1.73,0,0,0,168.05,58Z"/></clipPath><clipPath id="clip-path-2"><path class="cls-1" d="M127.83,62.17a3.38,3.38,0,0,0-2.94,3.25,3.09,3.09,0,0,0,.27,1.61c.45.92,1.18,1.41,3.1,2.09,2.1.74,2.49,1,2.49,1.93a1.17,1.17,0,0,1-.4,1,2.2,2.2,0,0,1-1.7.52,5.08,5.08,0,0,1-2.44-.62c-.3-.14-.63-.32-.74-.39l-.21-.13v2.22l.33.15a8.21,8.21,0,0,0,2.39.64,8.63,8.63,0,0,0,1.77,0A6.45,6.45,0,0,0,131,74,3.38,3.38,0,0,0,132.7,72a4.25,4.25,0,0,0,.16-1.59,2.59,2.59,0,0,0-.77-1.68,6.27,6.27,0,0,0-2.84-1.47c-1.69-.58-2.18-1-2.28-1.74a1.37,1.37,0,0,1,.77-1.35,4.3,4.3,0,0,1,3.74.44l.33.16a8.58,8.58,0,0,0,0-1.06V62.68l-.21-.09a8.12,8.12,0,0,0-1.41-.42,7.08,7.08,0,0,0-1.22-.09,6.24,6.24,0,0,0-1.17.09"/></clipPath><clipPath id="clip-path-3"><polygon class="cls-1" points="81.54 62.3 81.54 64.23 85.31 64.23 85.31 74.19 87.39 74.19 87.39 64.23 91.17 64.23 91.17 62.3 81.54 62.3"/></clipPath><clipPath id="clip-path-4"><rect class="cls-1" x="119.31" y="62.3" width="2.08" height="11.9"/></clipPath><clipPath id="clip-path-5"><polygon class="cls-1" points="134.31 62.3 134.33 64.21 138.08 64.23 138.08 74.19 140.16 74.19 140.16 64.23 143.93 64.23 143.93 62.3 134.31 62.3"/></clipPath><clipPath id="clip-path-6"><path class="cls-1" d="M113.29,62.3v3.83c0,4.35,0,4.35-.34,5.06a2.71,2.71,0,0,1-4.7,0c-.35-.72-.35-.71-.35-5.06V62.3h-2.08v3.83c0,4.28,0,4.44.31,5.32a4.45,4.45,0,0,0,3.82,3,5.57,5.57,0,0,0,1.29,0,4.43,4.43,0,0,0,3.82-3c.3-.88.31-1,.31-5.32V62.3Z"/></clipPath><clipPath id="clip-path-7"><path class="cls-1" d="M95.86,68.09V64.21h1.87a3.27,3.27,0,0,1,1.68.23,2,2,0,0,1,.52,3.12,1.91,1.91,0,0,1-1,.54,14.54,14.54,0,0,1-1.78.07,6.53,6.53,0,0,1-1.27-.06m-2,6.11h2V70h.57c1.27,0,1.58.22,2.35,1.73a6,6,0,0,0,1.13,1.77,3.09,3.09,0,0,0,1.36.73,6.51,6.51,0,0,0,1.65,0V72.35l-.28,0a1.53,1.53,0,0,1-1.39-.58,7.11,7.11,0,0,1-.53-.87,5.8,5.8,0,0,0-.76-1.17l-.14-.15.33-.1a3.48,3.48,0,0,0,2.27-2.21,4.72,4.72,0,0,0,.07-2.12,3.58,3.58,0,0,0-2.26-2.54c-.73-.3-.82-.31-3.73-.33l-2.67,0Z"/></clipPath></defs><path class="cls-1" d="M90.27,7.27a.26.26,0,0,1,.07-.14A1.06,1.06,0,0,1,90.49,7a1.18,1.18,0,0,1,.19-.11l.19,0h2.88a.47.47,0,0,1,.33.11,1.83,1.83,0,0,1,.2.21l.28.64L100.46,23a.33.33,0,0,1,0,.36.58.58,0,0,1-.43.14H96.77a.76.76,0,0,1-.4-.09.72.72,0,0,1-.22-.32c-.14-.39-.29-.77-.43-1.14s-.29-.76-.43-1.15h-6c-.14.39-.28.77-.43,1.15s-.29.75-.43,1.14a.57.57,0,0,1-.58.41H84.57a.56.56,0,0,1-.35-.11c-.1-.08-.11-.19,0-.34Zm2,4.81c-.14.38-.28.8-.43,1.24s-.29.89-.43,1.34-.29.89-.44,1.33-.29.85-.43,1.23H94Z"/><path class="cls-1" d="M104.51,7.35a.54.54,0,0,1,.13-.37.44.44,0,0,1,.37-.14h7.26a5.46,5.46,0,0,1,2.17.43,5.76,5.76,0,0,1,1.76,1.17,5.67,5.67,0,0,1,1.19,1.74,5.39,5.39,0,0,1,.43,2.12,4.94,4.94,0,0,1-.21,1.45A5.36,5.36,0,0,1,117,15a5.46,5.46,0,0,1-.88,1.09A5.38,5.38,0,0,1,115,17l2.89,5.44.2.37a.82.82,0,0,1,.13.37.35.35,0,0,1-.12.28.53.53,0,0,1-.32.09H114a.6.6,0,0,1-.34-.11.55.55,0,0,1-.2-.3L110.68,18h-1.82V23q0,.48-.51.48H105a.52.52,0,0,1-.36-.12.46.46,0,0,1-.14-.36Zm8.8,5a2,2,0,0,0-.12-.67,2.11,2.11,0,0,0-.35-.62,1.87,1.87,0,0,0-.54-.47,1.85,1.85,0,0,0-.69-.25l-.6,0-.6,0h-1.55V14.4h2.43l.35,0a1.7,1.7,0,0,0,.71-.23A2,2,0,0,0,113.2,13a2.38,2.38,0,0,0,.11-.7"/><path class="cls-1" d="M121.32,15.2a8.22,8.22,0,0,1,.31-2.29,8.71,8.71,0,0,1,.86-2.06,9.18,9.18,0,0,1,1.35-1.75,8.62,8.62,0,0,1,1.73-1.34,8.71,8.71,0,0,1,2.06-.86,8.2,8.2,0,0,1,2.28-.31,8.33,8.33,0,0,1,2.29.31,8.46,8.46,0,0,1,2.05.86,8.38,8.38,0,0,1,3.09,3.09,9.17,9.17,0,0,1,.87,2.06,8.58,8.58,0,0,1,0,4.57,9.09,9.09,0,0,1-.87,2.05A8.62,8.62,0,0,1,136,21.26a8.74,8.74,0,0,1-1.75,1.34,8.91,8.91,0,0,1-2.05.87,8.72,8.72,0,0,1-2.29.3,8.59,8.59,0,0,1-2.28-.3,9.17,9.17,0,0,1-2.06-.87,8.62,8.62,0,0,1-1.73-1.34,9,9,0,0,1-1.35-1.73,8.63,8.63,0,0,1-.86-2.05,8.2,8.2,0,0,1-.31-2.28m4.35,0a4.78,4.78,0,0,0,.32,1.75,4.26,4.26,0,0,0,.88,1.41,4.1,4.1,0,0,0,3,1.28,4.19,4.19,0,0,0,1.72-.34,4.11,4.11,0,0,0,1.34-.94,4.26,4.26,0,0,0,.88-1.41,4.89,4.89,0,0,0,0-3.48A4.2,4.2,0,0,0,133,12a4,4,0,0,0-1.34-1,4.2,4.2,0,0,0-1.72-.35,4.1,4.1,0,0,0-1.7.35,4,4,0,0,0-1.34,1,4.2,4.2,0,0,0-.88,1.42,4.75,4.75,0,0,0-.32,1.73"/><path class="cls-1" d="M147.35,16.87a3.72,3.72,0,0,0,.23,1.41,2.64,2.64,0,0,0,.61.94,2.28,2.28,0,0,0,.88.54,3.29,3.29,0,0,0,1,.17,2.89,2.89,0,0,0,1.06-.2,2.48,2.48,0,0,0,.88-.59,2.71,2.71,0,0,0,.6-1,3.79,3.79,0,0,0,.21-1.31V7.33A.47.47,0,0,1,153,7a.46.46,0,0,1,.37-.14h3.28a.54.54,0,0,1,.41.15.49.49,0,0,1,.14.34V16.8a8.5,8.5,0,0,1-.57,3.31,5.81,5.81,0,0,1-1.56,2.15,6.06,6.06,0,0,1-2.27,1.17,10.3,10.3,0,0,1-2.7.35,9.74,9.74,0,0,1-2.71-.37,6,6,0,0,1-2.27-1.19,5.76,5.76,0,0,1-1.55-2.15A8.14,8.14,0,0,1,143,16.8V7.33a.48.48,0,0,1,.13-.34.39.39,0,0,1,.32-.15h3.36a.54.54,0,0,1,.35.14.41.41,0,0,1,.19.35Z"/><path class="cls-1" d="M162.31,7.33a.56.56,0,0,1,.13-.35.45.45,0,0,1,.37-.14h3.67a.78.78,0,0,1,.33.07.82.82,0,0,1,.29.27c1,1.54,1.9,3.05,2.83,4.54l2.85,4.54v-9A.54.54,0,0,1,173,7a.44.44,0,0,1,.31-.11h3.2a.65.65,0,0,1,.4.12.47.47,0,0,1,.15.37V23.08a.42.42,0,0,1-.13.34.58.58,0,0,1-.37.1h-3.59a.35.35,0,0,1-.25-.1,1.64,1.64,0,0,1-.24-.27l-3-4.89q-1.46-2.42-3-4.88V23a.43.43,0,0,1-.52.49h-3.19a.49.49,0,0,1-.38-.14.5.5,0,0,1-.12-.34Z"/><path class="cls-1" d="M196.93,15.2a8.39,8.39,0,0,1-.3,2.26,8.28,8.28,0,0,1-.86,2,8.44,8.44,0,0,1-1.35,1.68,8.08,8.08,0,0,1-1.73,1.28,9,9,0,0,1-4.33,1.1h-5.54a.74.74,0,0,1-.36-.09.42.42,0,0,1-.16-.38V7.35a.58.58,0,0,1,.13-.38.5.5,0,0,1,.39-.15h5.54a8.59,8.59,0,0,1,2.28.3,8.32,8.32,0,0,1,2,.83,9.12,9.12,0,0,1,1.74,1.29,8,8,0,0,1,1.34,1.68,8.87,8.87,0,0,1,.87,2,8.39,8.39,0,0,1,.3,2.26m-10.28-4.34V19.5h.95l.5,0,.5,0a4.39,4.39,0,0,0,1.57-.41,4.48,4.48,0,0,0,1.28-.9,4.06,4.06,0,0,0,.85-1.31,4.17,4.17,0,0,0,.31-1.64,4.12,4.12,0,0,0-.36-1.73,4,4,0,0,0-1-1.37,4.1,4.1,0,0,0-1.42-.9,4.55,4.55,0,0,0-1.73-.32Z"/><path class="cls-1" d="M87.66,32.7H83.94a.21.21,0,0,0-.12,0,.15.15,0,0,0,0,.11v.37a.17.17,0,0,0,0,.13.21.21,0,0,0,.12,0h1.52v4.5a.13.13,0,0,0,.05.12.16.16,0,0,0,.11,0H86a.17.17,0,0,0,.12,0,.18.18,0,0,0,0-.12v-4.5h1.5a.14.14,0,0,0,.13-.06.17.17,0,0,0,0-.12v-.37a.23.23,0,0,0-.06-.12.28.28,0,0,0-.12,0"/><path class="cls-1" d="M93.36,32.7H93a.17.17,0,0,0-.12,0,.15.15,0,0,0,0,.11v2h-3v-2a.16.16,0,0,0-.05-.11.21.21,0,0,0-.12,0h-.37a.17.17,0,0,0-.12,0,.15.15,0,0,0,0,.11v5.06a.14.14,0,0,0,.16.16h.36c.12,0,.18,0,.18-.16V35.6h3v2.32a.14.14,0,0,0,.16.16h.36c.12,0,.18,0,.18-.16V32.86a.14.14,0,0,0-.06-.11.18.18,0,0,0-.12,0"/><path class="cls-1" d="M98.76,37.38H95.83V35.6h2.29a.17.17,0,0,0,.12-.05.19.19,0,0,0,0-.12v-.37a.17.17,0,0,0,0-.13.21.21,0,0,0-.11,0H95.83V33.41h2.91a.2.2,0,0,0,.14,0,.28.28,0,0,0,0-.12v-.36c0-.12-.06-.18-.17-.18H95.28a.15.15,0,0,0-.16.17v5.06a.14.14,0,0,0,.16.15h3.48a.14.14,0,0,0,.16-.16v-.37c0-.12,0-.17-.16-.17"/><path class="cls-1" d="M106.83,32.31a5,5,0,0,1,3.55-1.43,5.19,5.19,0,0,1,1.39.27,4.57,4.57,0,0,1,1.26.65.88.88,0,0,0,.19.1c.21.09.38,0,.55-.21l.44-.73a.44.44,0,0,0,.09-.27.4.4,0,0,0-.08-.23.58.58,0,0,0-.17-.18h0a6.73,6.73,0,0,0-1.83-.93,6.27,6.27,0,0,0-2-.32,6.66,6.66,0,0,0-1.75.23,6.46,6.46,0,0,0-1.57.67,6.07,6.07,0,0,0-1.33,1,6.58,6.58,0,0,0-1,1.33,6.46,6.46,0,0,0-.67,1.57,6.55,6.55,0,0,0,.66,5.06,6.67,6.67,0,0,0,1,1.33,6.9,6.9,0,0,0,1.32,1,6.22,6.22,0,0,0,1.57.66,6.37,6.37,0,0,0,1.75.24A6.64,6.64,0,0,0,114,40.93a.44.44,0,0,0,.25-.4.72.72,0,0,0-.07-.26l-.49-.79a.43.43,0,0,0-.36-.26.58.58,0,0,0-.31.11,9.05,9.05,0,0,1-.83.46,5.08,5.08,0,0,1-.74.31,3.48,3.48,0,0,1-.69.17,4.6,4.6,0,0,1-2.47-.3,4.72,4.72,0,0,1-1.5-1,4.63,4.63,0,0,1-1.41-3.36,4.5,4.5,0,0,1,.38-1.82,4.61,4.61,0,0,1,1-1.51"/><path class="cls-1" d="M126.37,35.53a4.25,4.25,0,0,0,.47-1,4.14,4.14,0,0,0-1-4.08,4.35,4.35,0,0,0-1.3-.89,4.14,4.14,0,0,0-1.62-.32H118a.44.44,0,0,0-.47.5V41.52A.43.43,0,0,0,118,42h.89a.43.43,0,0,0,.48-.47V37.41h3.68l2,4.22a.55.55,0,0,0,.5.37h1c.26,0,.41-.13.41-.36v-.11L124.77,37a4,4,0,0,0,.87-.58,4.62,4.62,0,0,0,.73-.86M125,34.18a2.37,2.37,0,0,1-.48.73,2.43,2.43,0,0,1-.71.51,2.26,2.26,0,0,1-.9.18h-3.56V31h3.53a2.15,2.15,0,0,1,.91.19,2.47,2.47,0,0,1,.72.51,2.37,2.37,0,0,1,.48.73,2.19,2.19,0,0,1,.18.87,2.36,2.36,0,0,1-.17.87"/><path class="cls-1" d="M142.4,32.29a6.38,6.38,0,0,0-1-1.34,7,7,0,0,0-1.33-1,6.44,6.44,0,0,0-1.57-.66,6.66,6.66,0,0,0-3.49,0,6.46,6.46,0,0,0-1.57.67,6.67,6.67,0,0,0-2.36,2.36,6.64,6.64,0,0,0-.67,5.07,6.54,6.54,0,0,0,1.69,2.89,6.6,6.6,0,0,0,1.32,1,6.57,6.57,0,0,0,5.08.66,6.29,6.29,0,0,0,1.58-.66,6.53,6.53,0,0,0,1.33-1,7.06,7.06,0,0,0,1-1.33,7,7,0,0,0,.66-1.56,6.77,6.77,0,0,0,.23-1.75,6.32,6.32,0,0,0-.24-1.75,6.68,6.68,0,0,0-.66-1.58m-1.12,4.55A5.41,5.41,0,0,1,140.8,38a4.92,4.92,0,0,1-.74,1A4.8,4.8,0,0,1,138,40.15a4.71,4.71,0,0,1-3.65-.48,4.56,4.56,0,0,1-1-.74,5,5,0,0,1-.74-1,5.41,5.41,0,0,1-.48-1.13,4.73,4.73,0,0,1-.17-1.26,4.85,4.85,0,0,1,.17-1.26,5.41,5.41,0,0,1,.48-1.13,4.94,4.94,0,0,1,.74-.95,4.56,4.56,0,0,1,1-.74,4.44,4.44,0,0,1,1.14-.48,4.29,4.29,0,0,1,1.25-.17,4.63,4.63,0,0,1,1.85.37,4.78,4.78,0,0,1,2.51,2.52,4.56,4.56,0,0,1,.38,1.84,4.79,4.79,0,0,1-.17,1.26"/><path class="cls-1" d="M177,29.32a.54.54,0,0,0-.34-.12h-.86a.43.43,0,0,0-.46.41v9.18l-7.05-9.37a.52.52,0,0,0-.44-.22h-1.13a.45.45,0,0,0-.35.14.5.5,0,0,0-.12.34V41.52a.42.42,0,0,0,.47.47h.85a.43.43,0,0,0,.49-.47V32.07l7.23,9.69a.5.5,0,0,0,.4.23h1c.33,0,.51-.17.51-.47V29.67a.4.4,0,0,0-.17-.35"/><path class="cls-1" d="M163.16,29.31h0a.4.4,0,0,0-.13-.07l-.09,0h-1.05l-.12,0h0a.5.5,0,0,0-.34.34l-2.74,6.78-1.14,2.8-.21-.52-1.73-4.32,1.9-4.59v-.15a.35.35,0,0,0-.1-.26.42.42,0,0,0-.35-.11h-1.1a.34.34,0,0,0-.33.24l-1,2.47-1-2.47a.34.34,0,0,0-.33-.24h-1.1a.42.42,0,0,0-.35.11.35.35,0,0,0-.1.26v.11l1.91,4.62-1.75,4.39-.19.46-1.21-3-2.67-6.61a.56.56,0,0,0-.33-.34h0l-.12,0h-1l-.13,0h0a.33.33,0,0,0-.25.32v0h0v.08l4.95,11.91s0,0,0,.08a.41.41,0,0,0,.08.14l.07.06h0l.08.07h0a.46.46,0,0,0,.2,0h.64l.1,0a.49.49,0,0,0,.25-.12.41.41,0,0,0,.13-.25l2.08-5,2.09,5a.41.41,0,0,0,.13.25.45.45,0,0,0,.23.11.27.27,0,0,0,.12,0h.62a.71.71,0,0,0,.22-.06h0l.07-.07h0l.07-.06a1.09,1.09,0,0,0,.08-.15.36.36,0,0,0,0-.07l4.94-11.87v-.12h0v0a.37.37,0,0,0-.11-.24"/><polygon class="cls-1" points="182.5 33.15 183.79 33.15 183.79 38.14 184.51 38.14 184.51 32.5 182.5 32.5 182.5 33.15"/><path class="cls-1" d="M189.73,32.8a2.07,2.07,0,0,0-1.17-.35,2.1,2.1,0,0,0-1.18.35,2.3,2.3,0,0,0-.8,1,4.13,4.13,0,0,0,0,3,2.36,2.36,0,0,0,.8,1,2.15,2.15,0,0,0,2.35,0,2.32,2.32,0,0,0,.81-1,4.13,4.13,0,0,0,0-3,2.32,2.32,0,0,0-.81-1m-1.17,4.72a1.32,1.32,0,0,1-.8-.26,1.57,1.57,0,0,1-.54-.74,3.27,3.27,0,0,1-.2-1.2,3.24,3.24,0,0,1,.2-1.2,1.66,1.66,0,0,1,.54-.75,1.38,1.38,0,0,1,.8-.25,1.33,1.33,0,0,1,.8.25,1.66,1.66,0,0,1,.54.75,3.7,3.7,0,0,1,0,2.4,1.57,1.57,0,0,1-.54.74,1.34,1.34,0,0,1-.8.26"/><path class="cls-1" d="M197,38l0-.07-2.5-3,1.05-1.11,1-1.11h0a.1.1,0,0,0,0-.08s0,0-.08,0h-.73a.21.21,0,0,0-.16.12l-2.52,2.65v-2.6a.14.14,0,0,0-.06-.12.16.16,0,0,0-.11,0h-.38a.17.17,0,0,0-.12,0,.16.16,0,0,0,0,.12V37.9a.14.14,0,0,0,.16.16h.38c.11,0,.17-.05.17-.16V36.42l.89-1L196,38a.19.19,0,0,0,.16.11h.72c.05,0,.08,0,.08,0a.08.08,0,0,0,0,0"/><rect class="cls-1" x="42.18" y="11.31" width="1.53" height="1.53" rx="0.3" transform="translate(30.13 54.8) rotate(-89.02)"/><rect class="cls-1" x="44.62" y="11.36" width="1.53" height="1.53" rx="0.3" transform="translate(32.45 57.27) rotate(-88.97)"/><rect class="cls-1" x="42.13" y="13.75" width="1.53" height="1.52" rx="0.3" transform="translate(27.65 57.16) rotate(-89.02)"/><rect class="cls-1" x="44.57" y="13.8" width="1.53" height="1.52" rx="0.3" transform="translate(29.96 59.63) rotate(-88.97)"/><rect class="cls-1" x="42.09" y="16.19" width="1.53" height="1.53" rx="0.3" transform="translate(25.16 59.51) rotate(-89.02)"/><rect class="cls-1" x="44.53" y="16.24" width="1.53" height="1.53" rx="0.3" transform="translate(27.48 61.98) rotate(-88.97)"/><rect class="cls-1" x="42.05" y="18.63" width="1.53" height="1.53" rx="0.3" transform="translate(22.68 61.87) rotate(-89.02)"/><rect class="cls-1" x="44.49" y="18.68" width="1.53" height="1.53" rx="0.3" transform="translate(25 64.34) rotate(-88.97)"/><path class="cls-1" d="M21.45,18a.29.29,0,0,0,.31.28l2.81-.16a.3.3,0,0,0,.29-.31v-.37a.28.28,0,0,0-.3-.28l-2.84.15a.3.3,0,0,0-.28.32Z"/><path class="cls-1" d="M21.51,19.75a.3.3,0,0,0,.31.28l2.78-.15a.32.32,0,0,0,.29-.32v-.38a.27.27,0,0,0-.3-.28l-2.8.15a.3.3,0,0,0-.28.31Z"/><path class="cls-1" d="M21.57,21.46a.31.31,0,0,0,.31.28l2.75-.16a.32.32,0,0,0,.29-.31v-.39a.28.28,0,0,0-.3-.28l-2.77.16a.3.3,0,0,0-.28.31Z"/><path class="cls-1" d="M21.64,23.17a.28.28,0,0,0,.3.28l2.71-.16a.32.32,0,0,0,.29-.31v-.39a.29.29,0,0,0-.3-.28l-2.73.15a.31.31,0,0,0-.29.31Z"/><path class="cls-1" d="M13.26,37.51c.61,2.39,2.29,3.39,7.83,4.65a84.72,84.72,0,0,0,18,1.69c15.63,0,25-2.32,25.83-6.37L65,37.1l6.2-18a.21.21,0,0,0-.21-.29H64.25a.32.32,0,0,0-.31.3L63.8,21.5a.32.32,0,0,1-.31.3H61.3a.32.32,0,0,0-.31.29l-.27,4.27a.23.23,0,0,1-.31.21l-.83-.23a.4.4,0,0,1-.27-.38l.56-13.81a.3.3,0,0,0-.28-.31l-1.72-.13a.5.5,0,0,1-.4-.3l-.31-.78a.92.92,0,0,0-.37-.41l-1-.51a.72.72,0,0,0-.54,0l-1,.4a1,1,0,0,0-.42.36l-.43.76a.54.54,0,0,1-.45.24l-1.7-.1a.28.28,0,0,0-.3.27l-.39,13.2a.26.26,0,0,1-.3.26l-.5-.08a.34.34,0,0,1-.29-.34l.06-15.56a.3.3,0,0,0-.3-.3l-1,0a.3.3,0,0,1-.3-.3l0-2.19a.3.3,0,0,0-.29-.3l-1,0a.29.29,0,0,1-.3-.3l0-1.44a.3.3,0,0,0-.3-.3l-3.34-.09a.31.31,0,0,0-.31.29l0,1.48a.3.3,0,0,1-.3.29l-1.06,0a.3.3,0,0,0-.3.29V8.35a.3.3,0,0,1-.3.29h-1a.29.29,0,0,0-.3.29l-.24,13.47c0,.16,0,.43,0,.59l0,1.21a.29.29,0,0,1-.3.29h-.24a.31.31,0,0,1-.3-.3L37.81,8.69a.29.29,0,0,0-.3-.29l-8.6.21a.29.29,0,0,0-.29.31l.47,15.67a.34.34,0,0,1-.29.33l-.75.09a.26.26,0,0,1-.3-.26l-.33-11a.28.28,0,0,0-.3-.27L26,13.57a.43.43,0,0,1-.41-.25A3.84,3.84,0,0,0,24.72,12a2.91,2.91,0,0,0-2.07-.56c-2,.1-2.42,2.36-2.42,2.36a.43.43,0,0,1-.36.32l-1.13.11a.33.33,0,0,0-.29.33l.32,11.66a.38.38,0,0,1-.28.36l-.66.14a.25.25,0,0,1-.31-.23l-.24-4.44A.32.32,0,0,0,17,21.8H14.73a.32.32,0,0,1-.31-.3l-.15-2.43a.32.32,0,0,0-.31-.3H7.22a.22.22,0,0,0-.22.29l6.16,18.07s.09.32.1.38m44.9-24.7h.33a.3.3,0,0,1,.28.32l-.05,1.7c0,.16,0,.17-.11,0L58,13.07a.18.18,0,0,1,.19-.26m-5.28,2.06,1.59-3.25a.92.92,0,0,1,.4-.38l.36-.14a.7.7,0,0,1,.53,0l.28.15a.86.86,0,0,1,.36.42l1.18,3.49a1.37,1.37,0,0,1,0,.57l-2.3,9.66a.31.31,0,0,1-.36.23l-.19,0a.45.45,0,0,1-.33-.35L52.8,15.43a1.2,1.2,0,0,1,.08-.56m-1-2.12a.3.3,0,0,1,.31-.28l.34,0a.18.18,0,0,1,.16.28l-.79,1.5c-.07.15-.13.13-.12,0ZM45,33l.5,0c.52,0,2.45.21,2.56.21s.19.14.19.31l-2.72,8.24s0,0,0,.07-.09.14-.16.14l-.49,0-2.61.1a.28.28,0,0,1-.3-.28l2.77-8.64a.08.08,0,0,1,0,0A.27.27,0,0,1,45,33m7.51.74,1.46.16.48.06c.1,0,.18.15.18.32l-2.84,6.93a.22.22,0,0,1,0,.08c0,.08-.08.14-.14.14l-.48.06-1.46.16a.26.26,0,0,1-.3-.26l2.84-7.48v0a.26.26,0,0,1,.26-.14m-31,.68c4.58-1,17.34-1.53,17.34-1.53.16,0,3.35,0,3.52,0h.46a.29.29,0,0,1,.3.29l-2.93,8.74a.08.08,0,0,1,0,0,.28.28,0,0,1-.26.16h-.46c-.17,0-.43,0-.6,0,0,0-12.68-.57-17.33-1.63s-6.37-2.35-6.37-3.12a.28.28,0,0,1,0-.09c.24-.69,1.75-1.89,6.33-2.88M68.83,20.7,63.77,35a.24.24,0,0,1-.33.16c-.14-.06-.24-.13-.4-.21l-.12,0c-3.79-2.29-11.81-3.4-19.3-3.67-1.1-.1-2.58-.11-3.55-.11-.32,0-.64,0-1,0-2,0-3.8.12-5.55.22A76.8,76.8,0,0,0,21.1,32.77a22,22,0,0,0-5.55,1.83l-.31.14c-.15.07-.37.19-.5.27a.19.19,0,0,1-.31-.13l-5-14.18a.21.21,0,0,1,.22-.28h2.64a.33.33,0,0,1,.32.29l.15,2.44a.32.32,0,0,0,.32.29h2.33a.32.32,0,0,1,.31.3l.19,4.16c0,.16,0,.43,0,.59v.06a.21.21,0,0,0,.29.21l4-1a.4.4,0,0,0,.28-.37l-.38-11.44a.32.32,0,0,1,.29-.32l1-.1a.3.3,0,0,0,.27-.33V15a2.48,2.48,0,0,1,0-.29h0s0-.11,0-.26v0h0a1.39,1.39,0,0,1,1.61-1.55h0a1.17,1.17,0,0,1,.61.3,2.23,2.23,0,0,1,.45,1c0,.16.07.43.08.59v.15a.29.29,0,0,0,.32.27l1.12-.1a.26.26,0,0,1,.3.27l.19,11a.26.26,0,0,0,.3.25l3.76-.41a.32.32,0,0,0,.28-.33l-.05-2.18a.3.3,0,0,1,.29-.3l2.21-.08h.75a.29.29,0,0,0,.29-.3L33.78,13a.3.3,0,0,1,.29-.3l.8,0a.47.47,0,0,0,.4-.28l.54-1.43a.18.18,0,0,0-.2-.26l-4.85.15a.17.17,0,0,0-.16.27l.71,1.4a.5.5,0,0,0,.43.25l.78,0a.28.28,0,0,1,.3.28l0,1a.3.3,0,0,1-.29.31l-2,.07a.3.3,0,0,1-.31-.29l-.13-3.74a.3.3,0,0,1,.29-.3l5.67-.14a.28.28,0,0,1,.3.29l.18,15.34a.29.29,0,0,0,.3.29l3.38.05a.29.29,0,0,0,.3-.29V24.12L40.6,10.4a.29.29,0,0,1,.3-.29l1,0a.31.31,0,0,0,.3-.3V7.65a.29.29,0,0,1,.3-.29l1,0a.3.3,0,0,0,.3-.29l0-1.47a.3.3,0,0,1,.3-.29l.43,0a.3.3,0,0,1,.29.3l0,1.45a.29.29,0,0,0,.29.3l1,0a.3.3,0,0,1,.29.3l0,2.19a.3.3,0,0,0,.29.3l1,0a.3.3,0,0,1,.3.3L47.94,26a.32.32,0,0,0,.29.32l3.44.34a.27.27,0,0,0,.3-.27V18.56c0-.16,0-.16.05,0l1.18,8a.4.4,0,0,0,.33.33l2.44.35a.31.31,0,0,0,.36-.24l1.88-8.38c0-.15.06-.15,0,0l-.37,8.64a.35.35,0,0,0,.28.35l3.86.89c.16,0,.28,0,.29-.11a.67.67,0,0,1,0-.19,2.13,2.13,0,0,0,0-.29l.21-4.16a.31.31,0,0,1,.31-.3h2.3a.3.3,0,0,0,.3-.29l.06-2.44a.31.31,0,0,1,.31-.29h2.77a.21.21,0,0,1,.22.28m-38.1-1.45,2-.07a.28.28,0,0,1,.3.28l0,.39a.3.3,0,0,1-.29.3l-2,.07a.29.29,0,0,1-.31-.28v-.39a.28.28,0,0,1,.28-.3M30.39,18V17.6a.31.31,0,0,1,.29-.31l2-.06a.3.3,0,0,1,.31.28v.39a.29.29,0,0,1-.29.3l-2,.07a.3.3,0,0,1-.31-.28m.41,3.21,2-.07a.29.29,0,0,1,.31.29v.38a.3.3,0,0,1-.28.31l-2,.06a.28.28,0,0,1-.3-.28l0-.39a.3.3,0,0,1,.29-.3M32.18,12a.5.5,0,0,1-.42-.24c-.06-.13,0-.24.18-.24l2.6-.09c.16,0,.26.11.2.24a.45.45,0,0,1-.38.26ZM32.92,16a.28.28,0,0,1-.28.3l-2,.07a.29.29,0,0,1-.3-.29v-.38a.3.3,0,0,1,.28-.31l2-.06a.29.29,0,0,1,.31.28Z"/><path class="cls-1" d="M75.53,16.24,63,16.32a.31.31,0,0,1-.33-.33l.2-6.47a.35.35,0,0,0-.32-.37l-3.47-.31a1.37,1.37,0,0,1-.62-.23L56.18,6.88a1.38,1.38,0,0,0-1.24,0L52.56,8.37a1.19,1.19,0,0,1-.59.16.37.37,0,0,1-.31-.37V6.81a.37.37,0,0,0-.34-.37l-.72-.07A.4.4,0,0,1,50.26,6l0-2.28a.39.39,0,0,0-.34-.37l-.9,0a.4.4,0,0,1-.35-.37l-.05-1.29a.36.36,0,0,0-.35-.35L40.62,1.2a.35.35,0,0,0-.35.34l0,1.52a.37.37,0,0,1-.35.36l-1.24.05a.36.36,0,0,0-.34.36l0,1.73a.35.35,0,0,1-.34.35L26.07,6.2a.35.35,0,0,0-.34.35V9.33a.21.21,0,0,1-.31.21A5.49,5.49,0,0,0,22.3,8.7a5.87,5.87,0,0,0-3.84,2.9.69.69,0,0,1-.49.33l-2,.13a.35.35,0,0,0-.33.36l.14,3.35a.32.32,0,0,1-.33.34l-12.18,0a.22.22,0,0,0-.23.32l7.91,23.27.12.37c.08.29,3.62,7.14,27.21,6.94L43.14,47c20.32,0,23.73-6.24,23.73-6.24.09-.17.21-.45.28-.63l8.61-23.55a.23.23,0,0,0-.23-.32m-1.78,1.7L66,39.54a3.86,3.86,0,0,1-.32.6s-1,1.32-4.29,2.8C55,45.83,40.28,45.58,40.28,45.58c-22.69.36-27.51-5.32-27.92-5.93-.09-.18-.17-.36-.2-.44L4.87,17.78a.24.24,0,0,1,.23-.33H15.24a.37.37,0,0,1,.36.34l.13,2.39a.38.38,0,0,0,.36.35H17a.33.33,0,0,0,.33-.35L17,13.75a.36.36,0,0,1,.32-.37L19,13.25c.19,0,.36-.1.39-.2s.08-.32.13-.5A3.81,3.81,0,0,1,22.43,10a4.32,4.32,0,0,1,2.37.52C25.57,11,25.93,12,26.12,12h.61a.35.35,0,0,0,.34-.35V7.85a.35.35,0,0,1,.34-.35l12-.29a.35.35,0,0,0,.34-.35l0-1.76A.36.36,0,0,1,40,4.74l1.19,0a.38.38,0,0,0,.35-.36l0-1.45a.34.34,0,0,1,.35-.33l5,.06A.37.37,0,0,1,47.3,3l0,1.24a.4.4,0,0,0,.36.36l.86.05a.37.37,0,0,1,.35.36l0,2.24a.39.39,0,0,0,.35.37l.7.07a.39.39,0,0,1,.34.37V9.39a.38.38,0,0,0,.34.37l1.6.12a1.17,1.17,0,0,0,.63-.15l2-1.26a1.29,1.29,0,0,1,1.2,0L58,9.9a1.4,1.4,0,0,0,.61.24l2.59.23a.36.36,0,0,1,.33.37l-.31,9.41a.32.32,0,0,0,.33.34h.69a.37.37,0,0,0,.35-.34L62.64,18a.37.37,0,0,1,.36-.35l10.52-.07a.23.23,0,0,1,.23.32"/><path class="cls-2" d="M160.77,63.6h2v3.78h5.25V59.73H150.79v7.65H156V63.6h2v9.61h-2V69.44h-5.25v7.64h17.26V69.44H162.8v3.77h-2Zm9-3.87A1.73,1.73,0,0,0,168.05,58H150.79A1.73,1.73,0,0,0,149,59.73V77.08a1.72,1.72,0,0,0,1.76,1.72h17.26a1.72,1.72,0,0,0,1.76-1.72Z"/><path class="cls-1" d="M150.79,59.73h17.26v7.65H162.8V63.6h-2v9.61h2V69.44h5.25v7.64H150.79V69.44H156v3.77h2V63.6h-2v3.78h-5.25Zm0-1.72A1.74,1.74,0,0,0,149,59.73V77.08a1.73,1.73,0,0,0,1.77,1.72h17.26a1.72,1.72,0,0,0,1.76-1.72V59.73A1.73,1.73,0,0,0,168.05,58Z"/><g class="cls-3"><rect class="cls-1" x="148.27" y="57.26" width="22.3" height="22.3"/></g><path class="cls-2" d="M129,62.08a6.24,6.24,0,0,0-1.17.09,3.38,3.38,0,0,0-2.94,3.25,3.09,3.09,0,0,0,.27,1.61c.45.92,1.18,1.41,3.1,2.09,2.11.74,2.49,1,2.49,1.93a1.16,1.16,0,0,1-.4,1,2.16,2.16,0,0,1-1.7.52,5.08,5.08,0,0,1-2.44-.62c-.3-.14-.63-.32-.74-.39l-.21-.13v2.22l.33.15a8.21,8.21,0,0,0,2.39.64,8.62,8.62,0,0,0,1.77-.06A5.83,5.83,0,0,0,131,74,3.38,3.38,0,0,0,132.7,72a4.47,4.47,0,0,0,.16-1.59,2.59,2.59,0,0,0-.77-1.68,6.27,6.27,0,0,0-2.84-1.47c-1.69-.58-2.18-1-2.28-1.74a1.37,1.37,0,0,1,.77-1.35,4.3,4.3,0,0,1,3.74.44l.33.16a8.58,8.58,0,0,0,0-1.06V62.68l-.21-.09a8.12,8.12,0,0,0-1.41-.42,7.08,7.08,0,0,0-1.22-.09"/><path class="cls-1" d="M127.83,62.17a3.38,3.38,0,0,0-2.94,3.25,3.09,3.09,0,0,0,.27,1.61c.45.92,1.18,1.41,3.1,2.09,2.1.74,2.49,1,2.49,1.93a1.17,1.17,0,0,1-.4,1,2.2,2.2,0,0,1-1.7.52,5.08,5.08,0,0,1-2.44-.62c-.3-.14-.63-.32-.74-.39l-.21-.13v2.22l.33.15a8.21,8.21,0,0,0,2.39.64,8.63,8.63,0,0,0,1.77,0A6.45,6.45,0,0,0,131,74,3.38,3.38,0,0,0,132.7,72a4.25,4.25,0,0,0,.16-1.59,2.59,2.59,0,0,0-.77-1.68,6.27,6.27,0,0,0-2.84-1.47c-1.69-.58-2.18-1-2.28-1.74a1.37,1.37,0,0,1,.77-1.35,4.3,4.3,0,0,1,3.74.44l.33.16a8.58,8.58,0,0,0,0-1.06V62.68l-.21-.09a8.12,8.12,0,0,0-1.41-.42,7.08,7.08,0,0,0-1.22-.09,6.24,6.24,0,0,0-1.17.09"/><g class="cls-4"><rect class="cls-1" x="124.13" y="61.33" width="9.5" height="13.89"/></g><polygon class="cls-2" points="81.54 62.3 81.54 64.23 85.32 64.23 85.32 74.19 87.39 74.19 87.39 64.23 91.17 64.23 91.17 62.3 81.54 62.3"/><polygon class="cls-1" points="81.54 62.3 81.54 64.23 85.31 64.23 85.31 74.19 87.39 74.19 87.39 64.23 91.17 64.23 91.17 62.3 81.54 62.3"/><g class="cls-5"><rect class="cls-1" x="80.79" y="61.55" width="11.13" height="13.4"/></g><rect class="cls-1" x="119.31" y="62.3" width="2.08" height="11.9"/><rect class="cls-1" x="119.31" y="62.3" width="2.08" height="11.9"/><g class="cls-6"><rect class="cls-1" x="118.56" y="61.55" width="3.59" height="13.4"/></g><polygon class="cls-2" points="134.31 62.3 134.33 64.21 138.08 64.23 138.08 74.19 140.16 74.19 140.16 64.23 143.93 64.23 143.93 62.3 134.31 62.3"/><polygon class="cls-1" points="134.31 62.3 134.33 64.21 138.08 64.23 138.08 74.19 140.16 74.19 140.16 64.23 143.93 64.23 143.93 62.3 134.31 62.3"/><g class="cls-7"><rect class="cls-1" x="133.55" y="61.55" width="11.13" height="13.4"/></g><path class="cls-2" d="M115.06,71.45c.3-.88.31-1,.31-5.32V62.3h-2.08v3.83c0,4.35,0,4.35-.35,5.06a2.7,2.7,0,0,1-4.69,0c-.35-.71-.35-.71-.35-5.06V62.3h-2.08v3.83c0,4.28,0,4.44.31,5.32a4.45,4.45,0,0,0,3.83,3,5.48,5.48,0,0,0,1.28,0,4.43,4.43,0,0,0,3.82-3"/><path class="cls-1" d="M113.29,62.3v3.83c0,4.35,0,4.35-.34,5.06a2.71,2.71,0,0,1-4.7,0c-.35-.72-.35-.71-.35-5.06V62.3h-2.08v3.83c0,4.28,0,4.44.31,5.32a4.45,4.45,0,0,0,3.82,3,5.57,5.57,0,0,0,1.29,0,4.43,4.43,0,0,0,3.82-3c.3-.88.31-1,.31-5.32V62.3Z"/><g class="cls-8"><rect class="cls-1" x="105.07" y="61.54" width="11.05" height="13.69"/></g><path class="cls-2" d="M93.83,62.29V74.2h2V70h.57c1.27,0,1.58.22,2.35,1.73a6,6,0,0,0,1.13,1.77,3.09,3.09,0,0,0,1.36.73,6.51,6.51,0,0,0,1.65,0V72.35l-.28,0a1.53,1.53,0,0,1-1.39-.58,7.11,7.11,0,0,1-.53-.87,5.35,5.35,0,0,0-.76-1.16l-.14-.15.34-.11a3.48,3.48,0,0,0,2.26-2.21,4.72,4.72,0,0,0,.07-2.12,3.58,3.58,0,0,0-2.26-2.54c-.73-.3-.82-.31-3.73-.33Zm3.9,1.9a3.27,3.27,0,0,1,1.68.23,2,2,0,0,1,.52,3.12,1.91,1.91,0,0,1-1,.54,17.21,17.21,0,0,1-3,0V64.21h1.87Z"/><path class="cls-1" d="M95.86,68.09V64.21h1.87a3.27,3.27,0,0,1,1.68.23,2,2,0,0,1,.52,3.12,1.91,1.91,0,0,1-1,.54,14.54,14.54,0,0,1-1.78.07,6.53,6.53,0,0,1-1.27-.06m-2,6.11h2V70h.57c1.27,0,1.58.22,2.35,1.73a6,6,0,0,0,1.13,1.77,3.09,3.09,0,0,0,1.36.73,6.51,6.51,0,0,0,1.65,0V72.35l-.28,0a1.53,1.53,0,0,1-1.39-.58,7.11,7.11,0,0,1-.53-.87,5.8,5.8,0,0,0-.76-1.17l-.14-.15.33-.1a3.48,3.48,0,0,0,2.27-2.21,4.72,4.72,0,0,0,.07-2.12,3.58,3.58,0,0,0-2.26-2.54c-.73-.3-.82-.31-3.73-.33l-2.67,0Z"/><g class="cls-9"><rect class="cls-1" x="93.07" y="61.54" width="10.6" height="13.49"/></g><path class="cls-1" d="M33.45,66.69a1.56,1.56,0,0,1,.61.61,2,2,0,0,1,0,1.8,1.58,1.58,0,0,1-.61.62,1.84,1.84,0,0,1-.88.21,1.46,1.46,0,0,1-.67-.14,1.3,1.3,0,0,1-.52-.41v1.76h-.61V66.5h.59V67a1.22,1.22,0,0,1,.51-.42,1.6,1.6,0,0,1,.7-.15A1.74,1.74,0,0,1,33.45,66.69Zm-.35,2.55a1.1,1.1,0,0,0,.41-.42,1.26,1.26,0,0,0,.15-.62,1.3,1.3,0,0,0-.15-.63,1,1,0,0,0-.41-.41,1.15,1.15,0,0,0-.59-.15,1.1,1.1,0,0,0-.57.15,1,1,0,0,0-.41.42,1.24,1.24,0,0,0-.15.62,1.26,1.26,0,0,0,.14.62,1.1,1.1,0,0,0,.41.42,1.22,1.22,0,0,0,1.17,0Z"/><path class="cls-1" d="M36.19,66.62a1.78,1.78,0,0,1,.76-.15v.6h-.14a1,1,0,0,0-.78.3,1.18,1.18,0,0,0-.28.85v1.68h-.62V66.5h.59v.57A1.14,1.14,0,0,1,36.19,66.62Z"/><path class="cls-1" d="M40.73,68.4H38a1.08,1.08,0,0,0,.39.72,1.3,1.3,0,0,0,.84.27,1.27,1.27,0,0,0,1-.4l.33.39a1.39,1.39,0,0,1-.57.41,1.87,1.87,0,0,1-.76.14,2,2,0,0,1-1-.22,1.59,1.59,0,0,1-.64-.62,1.76,1.76,0,0,1-.23-.89,1.86,1.86,0,0,1,.22-.89,1.58,1.58,0,0,1,.61-.62,1.82,1.82,0,0,1,.88-.22,1.74,1.74,0,0,1,.86.22,1.56,1.56,0,0,1,.6.62,1.91,1.91,0,0,1,.21.91A1.28,1.28,0,0,1,40.73,68.4Zm-2.4-1.14A1.05,1.05,0,0,0,38,68h2.17a1.07,1.07,0,0,0-.35-.7,1,1,0,0,0-.73-.27A1.05,1.05,0,0,0,38.33,67.26Z"/><path class="cls-1" d="M41.77,69.82a1.83,1.83,0,0,1-.61-.28l.26-.49a1.94,1.94,0,0,0,.54.26,2.43,2.43,0,0,0,.65.09c.54,0,.81-.15.81-.46a.3.3,0,0,0-.11-.24.62.62,0,0,0-.27-.13l-.47-.1a5.49,5.49,0,0,1-.67-.14,1.07,1.07,0,0,1-.44-.28.82.82,0,0,1-.19-.56.86.86,0,0,1,.39-.74,1.68,1.68,0,0,1,1-.28,3.23,3.23,0,0,1,.68.08,1.75,1.75,0,0,1,.55.23l-.26.48a1.84,1.84,0,0,0-1-.26,1.16,1.16,0,0,0-.59.12.39.39,0,0,0-.21.34.34.34,0,0,0,.12.27.74.74,0,0,0,.28.14l.48.1q.41.07.66.15a.93.93,0,0,1,.43.27.77.77,0,0,1,.18.54.84.84,0,0,1-.39.73,1.88,1.88,0,0,1-1.07.27A3,3,0,0,1,41.77,69.82Z"/><path class="cls-1" d="M47.85,68.4H45.1a1.08,1.08,0,0,0,.39.72,1.3,1.3,0,0,0,.84.27,1.27,1.27,0,0,0,1-.4l.34.39a1.5,1.5,0,0,1-.58.41,1.87,1.87,0,0,1-.76.14,1.93,1.93,0,0,1-1-.22,1.56,1.56,0,0,1-.65-.62,1.84,1.84,0,0,1,0-1.78,1.56,1.56,0,0,1,.6-.62,1.82,1.82,0,0,1,.88-.22,1.74,1.74,0,0,1,.86.22,1.49,1.49,0,0,1,.6.62,1.91,1.91,0,0,1,.21.91A1.28,1.28,0,0,1,47.85,68.4Zm-2.4-1.14a1.05,1.05,0,0,0-.35.7h2.17a1.11,1.11,0,0,0-.34-.7,1.07,1.07,0,0,0-.74-.27A1.05,1.05,0,0,0,45.45,67.26Z"/><path class="cls-1" d="M51.55,66.85a1.43,1.43,0,0,1,.38,1.09v2h-.61V68a1,1,0,0,0-.24-.74A.88.88,0,0,0,50.4,67a1.06,1.06,0,0,0-.78.29,1.12,1.12,0,0,0-.29.84v1.74h-.62V66.5h.59V67a1.26,1.26,0,0,1,.5-.41,1.89,1.89,0,0,1,.72-.14A1.39,1.39,0,0,1,51.55,66.85Z"/><path class="cls-1" d="M55,69.7a1,1,0,0,1-.34.17,1.34,1.34,0,0,1-.4.06,1.11,1.11,0,0,1-.8-.27,1.06,1.06,0,0,1-.28-.79V67h-.58V66.5h.58v-.74h.61v.74h1V67h-1v1.83a.62.62,0,0,0,.14.43.52.52,0,0,0,.4.14.75.75,0,0,0,.48-.16Z"/><path class="cls-1" d="M58.66,68.4H55.91a1,1,0,0,0,.39.72,1.27,1.27,0,0,0,.83.27,1.26,1.26,0,0,0,1-.4l.34.39a1.39,1.39,0,0,1-.57.41,1.89,1.89,0,0,1-.77.14,2,2,0,0,1-1-.22,1.53,1.53,0,0,1-.64-.62,1.87,1.87,0,0,1,0-1.78,1.58,1.58,0,0,1,.61-.62,1.81,1.81,0,0,1,.87-.22,1.75,1.75,0,0,1,.87.22,1.53,1.53,0,0,1,.59.62,1.8,1.8,0,0,1,.22.91S58.66,68.33,58.66,68.4Zm-2.41-1.14a1.09,1.09,0,0,0-.34.7h2.17a1.07,1.07,0,0,0-.35-.7A1.05,1.05,0,0,0,57,67,1.07,1.07,0,0,0,56.25,67.26Z"/><path class="cls-1" d="M62.72,65.15v4.74h-.59v-.53a1.45,1.45,0,0,1-.52.43,1.74,1.74,0,0,1-.69.14,1.82,1.82,0,0,1-.88-.21,1.52,1.52,0,0,1-.61-.62,2,2,0,0,1,0-1.8,1.49,1.49,0,0,1,.61-.61,1.72,1.72,0,0,1,.88-.22,1.64,1.64,0,0,1,.67.14,1.21,1.21,0,0,1,.51.41V65.15Zm-1.17,4.09a1,1,0,0,0,.41-.42,1.26,1.26,0,0,0,.15-.62,1.3,1.3,0,0,0-.15-.63.9.9,0,0,0-.41-.41,1.2,1.2,0,0,0-1.16,0,1,1,0,0,0-.41.41,1.3,1.3,0,0,0-.15.63,1.26,1.26,0,0,0,.15.62,1.16,1.16,0,0,0,1.57.42Z"/><path class="cls-1" d="M68.28,66.69a1.58,1.58,0,0,1,.62.61,2,2,0,0,1,0,1.8,1.61,1.61,0,0,1-.62.62,1.82,1.82,0,0,1-.88.21,1.74,1.74,0,0,1-.69-.14,1.45,1.45,0,0,1-.52-.43v.53H65.6V65.15h.62V67a1.27,1.27,0,0,1,.51-.41,1.64,1.64,0,0,1,.67-.14A1.72,1.72,0,0,1,68.28,66.69Zm-.34,2.55a1.1,1.1,0,0,0,.41-.42,1.26,1.26,0,0,0,.15-.62,1.3,1.3,0,0,0-.15-.63,1,1,0,0,0-.41-.41,1.18,1.18,0,0,0-.59-.15,1.14,1.14,0,0,0-.58.15,1,1,0,0,0-.41.41,1.3,1.3,0,0,0-.15.63,1.26,1.26,0,0,0,.15.62,1,1,0,0,0,.41.42,1,1,0,0,0,.58.15A1.08,1.08,0,0,0,67.94,69.24Z"/><path class="cls-1" d="M72.87,66.5l-1.64,3.73a1.73,1.73,0,0,1-.51.73,1.18,1.18,0,0,1-.7.21,1.27,1.27,0,0,1-.48-.08.94.94,0,0,1-.39-.23l.26-.46a.85.85,0,0,0,.61.25.57.57,0,0,0,.37-.12,1,1,0,0,0,.27-.41l.11-.23L69.28,66.5h.64l1.18,2.72,1.17-2.72Z"/></svg>