<?xml version="1.0" encoding="utf-8" ?>
<svg xmlns="http://www.w3.org/2000/svg" xmlns:xlink="http://www.w3.org/1999/xlink" width="51" height="32">
	<defs>
		<clipPath id="clip_0">
			<rect x="1.0400391" y="0.5769043" width="49.056488" height="30.877523" clip-rule="evenodd"/>
		</clipPath>
	</defs>
	<g clip-path="url(#clip_0)">
		<path fill="rgb(254,254,254)" stroke="none" transform="matrix(0.98 0 0 0.98 1.04004 0.576904)" d="M50.0491 11.9881L45.2191 26.1948L45.1343 26.4906C44.5226 29.679 37.1871 31.5078 25.0084 31.5078C19.6771 31.5078 14.697 31.0356 10.9858 30.179C6.66985 29.1818 5.35917 28.396 4.88667 26.5123C4.88443 26.4612 4.88763 26.4088 4.89402 26.3558C4.87355 26.306 4.85499 26.2579 4.84316 26.2168L0.00867018 11.9881C-0.02652 11.865 0.048659 11.7645 0.175344 11.7645L5.42763 11.7645C5.55432 11.7645 5.66469 11.8689 5.67205 11.9969L5.78881 13.9127C5.79649 14.0407 5.90654 14.1451 6.03354 14.1451L7.77258 14.1451C7.89958 14.1451 8.00899 14.2498 8.01571 14.3778L8.2051 17.87C8.21214 17.998 8.31931 18.0807 8.44343 18.0536L8.95753 17.9414C9.08165 17.9146 9.18018 17.7879 9.17667 17.6596L8.93321 8.47524C8.93001 8.34692 9.03047 8.23217 9.15651 8.21989L10.0391 8.13358C10.1652 8.1213 10.289 8.00849 10.3143 7.88276C10.3143 7.88276 10.671 6.09625 12.2027 6.01868C12.2117 6.01821 12.2229 6.01745 12.2363 6.01654C12.4469 6.00226 13.1866 5.95208 13.816 6.45892C14.1826 6.75403 14.4718 7.4729 14.4718 7.4729C14.5198 7.59152 14.6622 7.6788 14.7882 7.66716L15.6865 7.58312C15.8126 7.57116 15.9191 7.66651 15.9226 7.79451L16.175 16.4668C16.1789 16.5948 16.2848 16.6876 16.4108 16.6727L16.9959 16.6039C17.122 16.589 17.2218 16.472 17.2179 16.344L16.8542 4.00268C16.8504 3.87468 16.9511 3.76736 17.0778 3.76413L23.7809 3.59379C23.9076 3.59055 24.0132 3.6927 24.0148 3.8207L24.2032 16.0101C24.2051 16.1381 24.3107 16.2457 24.4374 16.2493L24.6267 16.2545C24.7531 16.258 24.8587 16.1559 24.8603 16.0279L24.8744 15.0786C24.8763 14.9502 24.8798 14.7408 24.882 14.6125L25.0647 4.00623C25.0666 3.87823 25.1722 3.7748 25.2992 3.77641L26.0823 3.78676C26.2093 3.78837 26.3136 3.68494 26.3143 3.55694L26.3235 1.8354C26.3242 1.7074 26.4285 1.60429 26.5552 1.60623L27.3812 1.62045C27.5082 1.62272 27.6141 1.51961 27.6169 1.39161L27.6429 0.226676C27.6457 0.0986759 27.7516 -0.00346547 27.8783 9.00879e-05L30.4869 0.0689386C30.6135 0.0721709 30.7156 0.179807 30.7137 0.307807L30.6967 1.44138C30.6948 1.56938 30.7972 1.67605 30.9239 1.67831L31.6677 1.69124C31.7943 1.6935 31.897 1.80017 31.8954 1.92817L31.874 3.65197C31.8724 3.77997 31.9751 3.88664 32.1018 3.8889L32.8776 3.90247C33.0042 3.90474 33.1076 4.0114 33.1069 4.1394L33.0593 16.3935C33.0589 16.5215 33.1613 16.6417 33.2867 16.6601L33.6777 16.7186C33.8031 16.7371 33.9089 16.6478 33.9125 16.5198L34.2132 6.12728C34.217 5.99928 34.3239 5.9007 34.4502 5.90813L35.7769 5.98668C35.9036 5.99411 36.0587 5.9091 36.1221 5.79823L36.4599 5.20284C36.5229 5.09197 36.6714 4.96365 36.7897 4.91775L37.6062 4.60195C37.7245 4.55605 37.9139 4.56672 38.0265 4.62522L38.8058 5.02926C38.9187 5.08744 39.0486 5.23322 39.095 5.35249L39.3334 5.96954C39.3794 6.08914 39.5205 6.19419 39.6472 6.20357L40.9866 6.3015C41.113 6.31088 41.2122 6.42304 41.2071 6.55104L40.7691 17.4246C40.764 17.5523 40.8596 17.6854 40.9815 17.7203L41.6277 17.9043C41.7496 17.9388 41.8562 17.8626 41.8642 17.7349L42.0759 14.3775C42.0843 14.2498 42.1946 14.1451 42.3213 14.1451L44.0261 14.1451C44.1528 14.1451 44.2622 14.0407 44.2692 13.9127L44.3748 11.9969C44.3819 11.8689 44.4916 11.7645 44.6183 11.7645L49.8827 11.7645C50.0094 11.7645 50.0843 11.865 50.0491 11.9881ZM48.185 13.2824L44.2456 24.5276C44.2107 24.6508 44.1013 24.6999 43.9903 24.6543C43.8751 24.6071 43.7999 24.5525 43.6777 24.4943C43.6777 24.4943 43.5872 24.4497 43.5853 24.4494C40.6258 22.6474 34.0513 21.8189 28.2113 21.6014C27.3521 21.5264 26.5315 21.4792 25.7787 21.4724C25.7114 21.4718 25.6443 21.4709 25.5773 21.47C25.3929 21.4674 25.2098 21.4649 25.0289 21.4692C23.5083 21.506 22.0681 21.5626 20.7034 21.6398C17.0081 21.8108 13.6529 22.2016 10.9931 22.7834C9.1306 23.191 7.68076 23.6759 6.66633 24.227C6.51597 24.2933 6.43023 24.333 6.43023 24.333C6.31507 24.387 6.13912 24.4846 6.0393 24.5506C5.93949 24.6162 5.82912 24.5693 5.79425 24.4462L1.87279 13.2824C1.8376 13.1592 1.91278 13.0584 2.03978 13.0584L4.09905 13.0584C4.22573 13.0584 4.33642 13.1628 4.34474 13.2908L4.4679 15.2069C4.47622 15.3346 4.58659 15.439 4.71359 15.439L6.53037 15.439C6.65705 15.439 6.7655 15.544 6.77126 15.672L6.91874 18.9476C6.92482 19.0756 6.93153 19.2851 6.93409 19.4131L6.93505 19.4626C6.93793 19.5906 7.03934 19.6652 7.16091 19.629L10.2541 18.8067C10.3773 18.7757 10.4745 18.6454 10.4704 18.5174L10.1802 9.51153C10.1761 9.38352 10.2759 9.26878 10.4022 9.25649L11.2148 9.17698C11.3409 9.1647 11.4352 9.05027 11.424 8.9226L11.4154 8.81787C11.4096 8.75419 11.4032 8.66983 11.3968 8.58579L11.3952 8.58611C11.3952 8.58611 11.3837 8.50401 11.3824 8.38215C11.3818 8.3731 11.3812 8.36179 11.3805 8.35338L11.3821 8.35177C11.3837 7.92122 11.5235 7.0527 12.6355 7.13253L12.6359 7.13447C12.7168 7.14223 12.8876 7.18134 13.1119 7.36623C13.3422 7.55597 13.4615 8.12615 13.4615 8.12615C13.4878 8.25156 13.5166 8.45876 13.5258 8.58643L13.5345 8.70862C13.5434 8.83629 13.6545 8.931 13.7808 8.91936L14.6599 8.83694C14.7863 8.8253 14.8912 8.92033 14.8935 9.04833L15.0393 17.6864C15.0416 17.8144 15.1462 17.9062 15.2719 17.89L18.2007 17.56C18.3267 17.5474 18.4275 17.4323 18.4246 17.3043L18.3843 15.5883C18.3815 15.4603 18.4825 15.352 18.6092 15.3478L20.3303 15.2883C20.457 15.2841 20.561 15.2806 20.561 15.2806C20.561 15.2806 20.6647 15.2767 20.7913 15.2725L20.9177 15.268C21.0447 15.2638 21.1448 15.1552 21.1404 15.0272L20.8774 7.20591C20.8729 7.07791 20.973 6.96995 21.1 6.96575L21.7226 6.94635C21.8493 6.94247 21.9897 6.8413 22.0345 6.72138L22.4536 5.59944C22.4981 5.47952 22.4312 5.38482 22.3042 5.38902L18.5238 5.50991C18.3971 5.51379 18.3405 5.61076 18.3978 5.72486L18.9503 6.82191C19.0078 6.93633 19.1585 7.02619 19.2852 7.02231L19.8917 7.00356C20.0188 6.99936 20.1259 7.10118 20.1301 7.22918L20.156 8.00106C20.1605 8.12906 20.0603 8.23734 19.9337 8.24154L18.3719 8.2952C18.2452 8.29973 18.138 8.19855 18.1338 8.07055L18.035 5.12623C18.0305 4.99823 18.1306 4.8906 18.2573 4.88736L22.6788 4.7752C22.8058 4.77197 22.9104 4.87411 22.912 5.00211L23.047 17.081C23.0486 17.2093 23.1536 17.314 23.2802 17.314L25.9198 17.3483C26.0465 17.3515 26.1502 17.2491 26.1495 17.1211L26.1473 16.4419C26.147 16.3139 26.147 16.1042 26.1476 15.9762L26.1889 5.17407C26.1892 5.04575 26.2935 4.94264 26.4202 4.94425L27.2171 4.9546C27.3437 4.95621 27.448 4.85278 27.4487 4.72478L27.4583 3.00777C27.4589 2.87944 27.5632 2.77633 27.6902 2.7786L28.4967 2.79249C28.6237 2.79443 28.7296 2.69165 28.7325 2.56332L28.7581 1.40938C28.7609 1.28138 28.8668 1.17956 28.9935 1.1828L29.3288 1.19152C29.4555 1.19476 29.5578 1.30239 29.5559 1.43039L29.5386 2.57399C29.5367 2.70231 29.6388 2.80866 29.7655 2.81092L30.5125 2.82417C30.6391 2.82643 30.7418 2.93278 30.7402 3.0611L30.7188 4.78458C30.7175 4.9129 30.8199 5.01957 30.9466 5.02183L31.7169 5.03508C31.8436 5.03734 31.9469 5.14401 31.9466 5.27233L31.9092 17.4449C31.9089 17.5729 32.0119 17.687 32.1379 17.6987L34.8185 17.9647C34.9445 17.9779 35.0478 17.8842 35.0478 17.7559L35.0526 11.5986C35.0526 11.4706 35.068 11.4697 35.0865 11.5964L36.0047 17.8794C36.0232 18.0061 36.1413 18.1234 36.267 18.1405L38.1698 18.4163C38.2956 18.4353 38.4206 18.3487 38.4485 18.2239L39.9143 11.631C39.9421 11.5059 39.9604 11.5085 39.9549 11.6365L39.6629 18.4379C39.6574 18.5659 39.7547 18.6913 39.8788 18.7169L42.8869 19.4118C43.0098 19.4432 43.1109 19.4037 43.1109 19.3245C43.1112 19.2453 43.1153 19.1804 43.1205 19.1804C43.1256 19.1804 43.1348 19.0756 43.1409 18.9476L43.2996 15.6717C43.3057 15.544 43.4144 15.439 43.5415 15.439L45.3326 15.439C45.4593 15.439 45.5658 15.3342 45.569 15.2062L45.6186 13.2911C45.6218 13.1631 45.7284 13.0584 45.8554 13.0584L48.018 13.0584C48.1446 13.0584 48.2198 13.1592 48.185 13.2824ZM36.9954 6.13278L35.7628 8.69116C35.7072 8.80623 35.6787 9.00405 35.6995 9.13043L36.9638 16.8689C36.9846 16.995 37.1033 17.1198 37.2274 17.1456L37.3758 17.1763C37.4999 17.2019 37.6253 17.1211 37.6548 16.9966L39.4421 9.39064C39.4712 9.26619 39.4623 9.06482 39.4213 8.94361L38.5 6.19645C38.4594 6.07524 38.3349 5.92591 38.2233 5.86482L38.0028 5.74425C37.8915 5.68316 37.704 5.67282 37.587 5.7213L37.3096 5.8354C37.1922 5.88356 37.0508 6.01738 36.9954 6.13278ZM19.6294 6.435C19.5027 6.43888 19.3562 6.3571 19.3041 6.25334C19.2516 6.14959 19.3127 6.06134 19.4394 6.05714L21.4689 5.99249C21.5959 5.98829 21.6666 6.07266 21.6266 6.17997C21.5866 6.28728 21.45 6.37843 21.3233 6.38231L19.6294 6.435ZM34.9957 7.02102C35.0037 6.89334 35.1141 6.79476 35.2404 6.80187L35.4999 6.81674C35.6262 6.82417 35.6819 6.92308 35.6233 7.03686L35.0123 8.21989C34.9538 8.33334 34.9122 8.32171 34.9205 8.19403L34.9957 7.02102ZM39.8766 7.06563L40.1274 7.07985C40.2541 7.08728 40.3545 7.19815 40.3507 7.32615L40.3107 8.66789C40.3068 8.79589 40.2688 8.80203 40.2259 8.68146L39.7246 7.2712C39.6817 7.15096 39.7502 7.05819 39.8766 7.06563ZM20.2078 9.53738C20.212 9.66538 20.1118 9.77367 19.9852 9.77819L18.4237 9.83152C18.297 9.83605 18.1898 9.73488 18.1853 9.60688L18.1751 9.30433C18.1709 9.17601 18.2711 9.06773 18.3978 9.06352L19.9592 9.00987C20.0859 9.00534 20.1934 9.10651 20.1976 9.23451L20.2078 9.53738ZM18.2372 11.1432L18.2269 10.8403C18.2225 10.7123 18.3229 10.604 18.4496 10.5998L20.0111 10.5462C20.1378 10.5417 20.2449 10.6428 20.2491 10.7708L20.2593 11.0737C20.2638 11.2017 20.1637 11.31 20.0367 11.3145L18.4752 11.3678C18.3485 11.3724 18.2416 11.2712 18.2372 11.1432ZM20.0626 12.0825L18.5011 12.1362C18.3744 12.1404 18.2743 12.249 18.2788 12.377L18.2887 12.6795C18.2932 12.8075 18.4003 12.9087 18.527 12.9045L20.0885 12.8505C20.2152 12.8463 20.3153 12.738 20.3112 12.61L20.3009 12.3072C20.2968 12.1792 20.1893 12.078 20.0626 12.0825ZM20.1144 13.6188L18.5529 13.6725C18.4262 13.6767 18.3261 13.785 18.3303 13.9133L18.3405 14.2158C18.3447 14.3438 18.4522 14.445 18.5788 14.4405L20.1403 14.3868C20.267 14.3826 20.3671 14.2744 20.3627 14.1464L20.3527 13.8438C20.3483 13.7155 20.2411 13.6143 20.1144 13.6188ZM24.7781 22.8449C24.7781 22.8449 14.84 23.2657 11.2641 24.0479C7.70284 24.8272 6.52045 25.7779 6.33554 26.3157C6.33074 26.3422 6.32594 26.3684 6.32594 26.3927C6.32594 26.9952 7.62638 27.9991 11.2916 28.8457C14.9123 29.6815 24.7985 30.1312 24.7985 30.1312C24.9252 30.137 25.1328 30.1412 25.2595 30.1405L25.6236 30.1383C25.7132 30.1379 25.789 30.0836 25.827 30.0077C25.8286 29.997 25.8334 29.9873 25.8334 29.976L28.1147 23.1002C28.1147 22.9722 28.0111 22.8668 27.8844 22.8662L27.52 22.8643C27.4928 22.8641 27.3569 22.8629 27.159 22.8611C26.4342 22.8546 24.8776 22.8405 24.7781 22.8449ZM31.5874 23.097L29.5854 22.9295C29.4958 22.927 29.4196 22.9784 29.3816 23.053C29.38 23.0634 29.3755 23.0727 29.3755 23.0834L27.2215 29.8813C27.2215 30.0096 27.3252 30.1111 27.4519 30.1072L29.4859 30.0297C29.6125 30.0238 29.7847 30.0154 29.8678 30.0109C29.9203 30.0083 29.9645 29.9618 29.9916 29.8981C29.9945 29.8797 29.999 29.8616 29.999 29.8419L32.121 23.3565C32.121 23.2285 32.0525 23.1199 31.9693 23.1154C31.8858 23.1109 31.714 23.1025 31.5874 23.097ZM35.4381 23.5152L36.5808 23.6426C36.7066 23.6571 36.8729 23.6772 36.95 23.6869C37.0274 23.6966 37.0905 23.8091 37.0905 23.9374L34.8799 29.3945C34.8799 29.4168 34.8757 29.4375 34.8719 29.4588C34.8466 29.5209 34.8069 29.5671 34.7599 29.5729C34.6825 29.5826 34.5165 29.6027 34.3904 29.6172L33.248 29.7446C33.122 29.7575 33.0186 29.6634 33.0186 29.5354L35.2295 23.6523C35.2295 23.6423 35.234 23.6339 35.2353 23.6245C35.273 23.5521 35.3489 23.5059 35.4381 23.5152Z" fill-rule="evenodd"/>
	</g>

</svg>