<?xml version="1.0" encoding="utf-8" ?>
<svg xmlns="http://www.w3.org/2000/svg" xmlns:xlink="http://www.w3.org/1999/xlink" width="102" height="102">
	<defs>
		<clipPath id="clip_0">
			<path d="M102 51C102 79.1665 79.1665 102 51 102C22.8335 102 0 79.1665 0 51C0 22.8335 22.8335 0 51 0C79.1665 0 102 22.8335 102 51Z" clip-rule="evenodd"/>
		</clipPath>
	</defs>
	<g clip-path="url(#clip_0)">
		<path fill="none" stroke="rgb(255,255,255)" stroke-width="6" stroke-miterlimit="4" d="M51 102C79.1665 102 102 79.1665 102 51C102 22.8335 79.1665 0 51 0C22.8335 0 0 22.8335 0 51C0 79.1665 22.8335 102 51 102Z"/>
	</g>
	<defs>
		<clipPath id="clip_1">
			<rect x="-669" y="-216" width="1440" height="948" clip-rule="evenodd"/>
		</clipPath>
	</defs>
	<g clip-path="url(#clip_1)">
		<path fill="rgb(255,255,255)" stroke="none" transform="translate(54.8093 36.7384)" d="M4.83514e-05 1.35847C-0.00301955 1.53892 0.140295 1.68921 0.31911 1.69231L1.34291 1.71049C1.52173 1.7136 1.6703 1.56862 1.67293 1.38773L1.6909 0.351625C1.69397 0.171182 1.55065 0.0208863 1.37228 0.0182262L0.348036 4.89121e-05C0.169659 -0.00305454 0.0210854 0.141921 0.0180175 0.322364L4.83514e-05 1.35847Z"/>
	</g>
	<defs>
		<clipPath id="clip_2">
			<rect x="-669" y="-216" width="1440" height="948" clip-rule="evenodd"/>
		</clipPath>
	</defs>
	<g clip-path="url(#clip_2)">
		<path fill="rgb(255,255,255)" stroke="none" transform="translate(57.4863 36.7855)" d="M4.83514e-05 1.35847C-0.00301955 1.53892 0.140295 1.68921 0.31911 1.69231L1.34291 1.71049C1.52173 1.7136 1.6703 1.56862 1.67337 1.38773L1.6909 0.351625C1.69397 0.171182 1.55065 0.0208863 1.37228 0.0182262L0.348036 4.89121e-05C0.169659 -0.00305454 0.0210854 0.141921 0.0180175 0.322364L4.83514e-05 1.35847Z"/>
	</g>
	<defs>
		<clipPath id="clip_3">
			<rect x="-669" y="-216" width="1440" height="948" clip-rule="evenodd"/>
		</clipPath>
	</defs>
	<g clip-path="url(#clip_3)">
		<path fill="rgb(255,255,255)" stroke="none" transform="translate(54.7629 39.4465)" d="M4.83519e-05 1.35847C-0.00301955 1.53892 0.140295 1.68921 0.318672 1.69231L1.34291 1.71049C1.52129 1.7136 1.66986 1.56862 1.67293 1.38773L1.6909 0.351625C1.69397 0.171182 1.55065 0.0208863 1.37184 0.0177829L0.348036 4.89121e-05C0.169659 -0.00305454 0.0206471 0.141921 0.0180175 0.322364L4.83519e-05 1.35847Z"/>
	</g>
	<defs>
		<clipPath id="clip_4">
			<rect x="-669" y="-216" width="1440" height="948" clip-rule="evenodd"/>
		</clipPath>
	</defs>
	<g clip-path="url(#clip_4)">
		<path fill="rgb(255,255,255)" stroke="none" transform="translate(57.4398 39.4937)" d="M4.83514e-05 1.35804C-0.00301955 1.53849 0.140295 1.68878 0.31911 1.69233L1.34291 1.71006C1.52129 1.71361 1.6703 1.56819 1.67293 1.3873L1.6909 0.35164C1.69397 0.171197 1.55065 0.0204576 1.37184 0.0177975L0.348036 6.35292e-05C0.169659 -0.00348327 0.0210854 0.141935 0.0180175 0.322379L4.83514e-05 1.35804Z"/>
	</g>
	<defs>
		<clipPath id="clip_5">
			<rect x="-669" y="-216" width="1440" height="948" clip-rule="evenodd"/>
		</clipPath>
	</defs>
	<g clip-path="url(#clip_5)">
		<path fill="rgb(255,255,255)" stroke="none" transform="translate(54.7162 42.1542)" d="M4.83514e-05 1.35847C-0.00301955 1.53892 0.140295 1.68921 0.31911 1.69276L1.34291 1.71049C1.52173 1.7136 1.6703 1.56862 1.67293 1.38773L1.6909 0.351625C1.69397 0.171182 1.55065 0.0208863 1.37228 0.0182262L0.348036 4.89121e-05C0.169659 -0.00305454 0.0210854 0.141921 0.0180175 0.322364L4.83514e-05 1.35847Z"/>
	</g>
	<defs>
		<clipPath id="clip_6">
			<rect x="-669" y="-216" width="1440" height="948" clip-rule="evenodd"/>
		</clipPath>
	</defs>
	<g clip-path="url(#clip_6)">
		<path fill="rgb(255,255,255)" stroke="none" transform="translate(57.3932 42.2014)" d="M4.83514e-05 1.35847C-0.00301955 1.53892 0.140295 1.68921 0.31911 1.69231L1.34291 1.71049C1.52173 1.7136 1.6703 1.56862 1.67337 1.38773L1.6909 0.351625C1.69397 0.171182 1.55065 0.0208863 1.37228 0.0182262L0.348036 4.89121e-05C0.169659 -0.00305454 0.0210854 0.141921 0.0180175 0.322364L4.83514e-05 1.35847Z"/>
	</g>
	<defs>
		<clipPath id="clip_7">
			<rect x="-669" y="-216" width="1440" height="948" clip-rule="evenodd"/>
		</clipPath>
	</defs>
	<g clip-path="url(#clip_7)">
		<path fill="rgb(255,255,255)" stroke="none" transform="translate(54.6696 44.8624)" d="M4.83514e-05 1.35847C-0.00301955 1.53892 0.140295 1.68921 0.31911 1.69231L1.34291 1.71049C1.52173 1.7136 1.6703 1.56862 1.67337 1.38773L1.6909 0.351625C1.69397 0.171182 1.55065 0.0208863 1.37228 0.0182262L0.348036 4.89121e-05C0.169659 -0.00305454 0.0210854 0.141921 0.0180175 0.322364L4.83514e-05 1.35847Z"/>
	</g>
	<defs>
		<clipPath id="clip_8">
			<rect x="-669" y="-216" width="1440" height="948" clip-rule="evenodd"/>
		</clipPath>
	</defs>
	<g clip-path="url(#clip_8)">
		<path fill="rgb(255,255,255)" stroke="none" transform="translate(57.3467 44.9096)" d="M4.83514e-05 1.35847C-0.00301955 1.53892 0.140295 1.68921 0.31911 1.69231L1.34291 1.71049C1.52129 1.7136 1.66986 1.56862 1.67293 1.38773L1.6909 0.351625C1.69397 0.171182 1.55065 0.0208863 1.37184 0.0177829L0.348036 4.89121e-05C0.169659 -0.00305454 0.0206471 0.141921 0.0180175 0.322364L4.83514e-05 1.35847Z"/>
	</g>
	<defs>
		<clipPath id="clip_9">
			<rect x="-669" y="-216" width="1440" height="948" clip-rule="evenodd"/>
		</clipPath>
	</defs>
	<g clip-path="url(#clip_9)">
		<path fill="rgb(255,255,255)" stroke="none" transform="translate(32.0666 43.266)" d="M0.0151226 0.937766C0.0216967 1.11821 0.172462 1.25742 0.350839 1.24722L3.44021 1.069C3.61859 1.05836 3.76191 0.902741 3.75928 0.722298L3.75314 0.310426C3.75051 0.129983 3.60281 -0.00967225 3.42444 0.000524789L0.312709 0.172544C0.134332 0.182741 -0.00635272 0.338357 0.000221348 0.519244L0.0151226 0.937766Z"/>
	</g>
	<defs>
		<clipPath id="clip_10">
			<rect x="-669" y="-216" width="1440" height="948" clip-rule="evenodd"/>
		</clipPath>
	</defs>
	<g clip-path="url(#clip_10)">
		<path fill="rgb(255,255,255)" stroke="none" transform="translate(32.1336 45.1608)" d="M0.0155334 0.947035C0.0221075 1.12748 0.172873 1.26713 0.351249 1.25694L3.40162 1.08625C3.58 1.07649 3.72331 0.920434 3.72112 0.739991L3.71454 0.310384C3.71192 0.129941 3.56378 -0.00927087 3.3854 0.000482825L0.312681 0.171173C0.134305 0.180926 -0.0059419 0.336542 0.0001939 0.516986L0.0155334 0.947035Z"/>
	</g>
	<defs>
		<clipPath id="clip_11">
			<rect x="-669" y="-216" width="1440" height="948" clip-rule="evenodd"/>
		</clipPath>
	</defs>
	<g clip-path="url(#clip_11)">
		<path fill="rgb(255,255,255)" stroke="none" transform="translate(32.2008 47.0546)" d="M0.0155334 0.946591C0.0221075 1.12703 0.172873 1.26669 0.351249 1.25649L3.36261 1.0858C3.54055 1.07605 3.68431 0.919547 3.68168 0.739103L3.67554 0.310384C3.67291 0.129941 3.52477 -0.00927087 3.3464 0.000482825L0.312682 0.169842C0.134305 0.180039 -0.0059419 0.335655 0.0001939 0.516098L0.0155334 0.946591Z"/>
	</g>
	<defs>
		<clipPath id="clip_12">
			<rect x="-669" y="-216" width="1440" height="948" clip-rule="evenodd"/>
		</clipPath>
	</defs>
	<g clip-path="url(#clip_12)">
		<path fill="rgb(255,255,255)" stroke="none" transform="translate(32.268 48.9517)" d="M0.0159711 0.953284C0.0225452 1.13373 0.173311 1.27294 0.351687 1.26186L3.32361 1.08496C3.50198 1.07388 3.6453 0.917816 3.64267 0.737372L3.63653 0.31087C3.63346 0.129983 3.48577 -0.00967228 3.30739 0.000524771L0.312681 0.167224C0.134743 0.176535 -0.00594247 0.332594 0.000193328 0.513037L0.0159711 0.953284Z"/>
	</g>
	<defs>
		<clipPath id="clip_13">
			<rect x="16.217438" y="28.443344" width="70.473709" height="44.411148" clip-rule="evenodd"/>
		</clipPath>
	</defs>
	<g clip-path="url(#clip_13)">
		<path fill="rgb(255,255,255)" stroke="none" transform="translate(16.2174 28.4431)" d="M70.4615 16.898L63.6613 36.9227L63.5425 37.339C62.6809 41.8337 52.3534 44.4114 35.2078 44.4114C27.702 44.4114 20.6909 43.7463 15.4663 42.5382C9.38966 41.1328 7.54497 40.0253 6.87968 37.3701C6.87617 37.2982 6.88099 37.2247 6.89019 37.1497C6.86083 37.0797 6.83497 37.011 6.81832 36.9533L0.0123982 16.898C-0.0375648 16.7242 0.0680587 16.5823 0.246874 16.5823L7.64095 16.5823C7.81977 16.5823 7.97448 16.7299 7.98544 16.9099L8.14979 19.6104C8.16074 19.7904 8.31545 19.938 8.49383 19.938L10.9425 19.938C11.1208 19.938 11.2751 20.0856 11.2847 20.2661L11.5517 25.1886C11.5613 25.3686 11.7125 25.4852 11.8865 25.4471L12.6105 25.2897C12.7854 25.2515 12.9243 25.0724 12.9191 24.892L12.5763 11.9462C12.5715 11.7657 12.7131 11.6039 12.8906 11.5866L14.1331 11.4647C14.311 11.4474 14.4854 11.2887 14.5205 11.1114C14.5205 11.1114 15.0232 8.59313 17.1795 8.48362C17.1923 8.48297 17.2086 8.48188 17.2279 8.48058C17.5257 8.46059 18.5655 8.3908 19.4506 9.10431C19.9669 9.52017 20.3741 10.5337 20.3741 10.5337C20.4416 10.7008 20.6418 10.8241 20.8193 10.8077L22.0842 10.6888C22.2617 10.6724 22.4116 10.8063 22.4164 10.9868L22.7718 23.2108C22.7771 23.3913 22.9266 23.5216 23.1036 23.5012L23.9276 23.4037C24.1046 23.3828 24.2458 23.2179 24.2401 23.0379L23.7282 5.64219C23.7229 5.46175 23.8645 5.31056 24.0428 5.30613L33.4797 5.06583C33.6581 5.0614 33.8066 5.20549 33.8093 5.38593L34.074 22.5671C34.0771 22.7475 34.2252 22.8991 34.4036 22.904L34.67 22.9111C34.8489 22.916 34.997 22.7723 34.9996 22.5919L35.0193 21.2534C35.022 21.073 35.0268 20.7777 35.0299 20.5973L35.2871 5.64707C35.2898 5.46662 35.4388 5.3212 35.6171 5.32342L36.7203 5.33805C36.8982 5.34027 37.0455 5.19441 37.0464 5.01352L37.0595 2.58751C37.0604 2.40662 37.2072 2.2612 37.3856 2.26431L38.5487 2.28426C38.7271 2.28736 38.8766 2.14239 38.8805 1.96194L38.9165 0.319775C38.9208 0.139332 39.0699 -0.0047566 39.2482 0.000120243L42.9209 0.0972138C43.0989 0.102091 43.2431 0.253716 43.2404 0.43416L43.2163 2.03199C43.2137 2.21244 43.3575 2.36273 43.5358 2.36583L44.5833 2.38446C44.7617 2.38756 44.9059 2.53741 44.9037 2.7183L44.8739 5.14785C44.8717 5.3283 45.0159 5.47859 45.1943 5.4817L46.2864 5.5012C46.4648 5.50431 46.6103 5.6546 46.6099 5.83505L46.5424 23.1071C46.5419 23.2875 46.6857 23.4569 46.8623 23.4835L47.4132 23.5655C47.5894 23.5921 47.7384 23.4653 47.7432 23.2853L48.1671 8.63702C48.1723 8.45657 48.3222 8.31736 48.5006 8.328L50.3685 8.4384C50.5469 8.44859 50.7651 8.32933 50.8541 8.17283L51.3301 7.33401C51.4186 7.17751 51.6276 6.99662 51.7946 6.93189L52.9438 6.48721C53.1103 6.42248 53.3768 6.43667 53.5354 6.51958L54.6329 7.08884C54.7915 7.17175 54.9743 7.37613 55.0396 7.5446L55.3753 8.4149C55.4402 8.58293 55.6391 8.73145 55.8166 8.74431L57.703 8.88263C57.8809 8.89549 58.0207 9.05421 58.0133 9.23421L57.3966 24.5604C57.3892 24.7408 57.5237 24.9283 57.6955 24.9776L58.6054 25.2369C58.7772 25.2857 58.9271 25.1784 58.9385 24.998L59.2365 20.2661C59.2479 20.0856 59.403 19.938 59.5818 19.938L61.9818 19.938C62.1602 19.938 62.3149 19.7904 62.3245 19.6104L62.4731 16.9099C62.4832 16.7299 62.637 16.5823 62.8158 16.5823L70.227 16.5823C70.4054 16.5823 70.511 16.7242 70.4615 16.898ZM67.8371 18.7219L62.2908 34.5725C62.2417 34.7463 62.0879 34.815 61.9314 34.7512C61.7697 34.6843 61.6632 34.6076 61.4914 34.526C61.4914 34.526 61.3638 34.463 61.3612 34.4621C57.1946 31.9222 47.9391 30.7548 39.7167 30.4481C38.5071 30.3421 37.3518 30.276 36.2925 30.2663C36.195 30.2654 36.0979 30.264 36.001 30.2627C35.7439 30.259 35.4892 30.2554 35.2367 30.2618C33.0962 30.3137 31.0688 30.3931 29.1469 30.5021C23.9447 30.7433 19.221 31.2944 15.4764 32.1142C12.8542 32.6887 10.8132 33.3719 9.38527 34.1491C9.17359 34.2422 9.05263 34.2985 9.05263 34.2985C8.89047 34.3744 8.64284 34.5118 8.50216 34.6045C8.36191 34.6976 8.20632 34.6315 8.15724 34.4577L2.63633 18.7219C2.58724 18.5485 2.69287 18.4062 2.87124 18.4062L5.77085 18.4062C5.94923 18.4062 6.10481 18.5534 6.11621 18.7343L6.2902 21.4343C6.3016 21.6147 6.45718 21.7624 6.636 21.7624L9.19331 21.7624C9.37213 21.7624 9.52464 21.91 9.53253 22.09L9.74027 26.7075C9.7486 26.8875 9.75824 27.1832 9.76219 27.3632L9.7635 27.4333C9.76745 27.6137 9.91032 27.7192 10.0812 27.6678L14.4364 26.5089C14.6095 26.465 14.7462 26.2814 14.7405 26.101L14.332 13.4075C14.3263 13.227 14.467 13.0648 14.6445 13.0475L15.7884 12.9353C15.9659 12.918 16.0987 12.7566 16.0834 12.5771L16.0707 12.4294C16.0628 12.3394 16.0536 12.2206 16.0448 12.1022L16.0426 12.1027C16.0426 12.1027 16.0268 11.987 16.0247 11.8149C16.0238 11.8025 16.0225 11.7866 16.022 11.7746L16.0238 11.7719C16.0264 11.165 16.2232 9.94179 17.7887 10.0535L17.7891 10.0566C17.9035 10.0677 18.1437 10.1231 18.4597 10.3834C18.7836 10.6503 18.9514 11.4545 18.9514 11.4545C18.9887 11.631 19.029 11.9227 19.0422 12.1031L19.054 12.2747C19.0671 12.4551 19.2232 12.5886 19.4007 12.5722L20.6392 12.456C20.8167 12.4396 20.9644 12.5735 20.9675 12.7544L21.173 24.9297C21.1761 25.1101 21.3234 25.2391 21.5004 25.217L25.6237 24.7519C25.8012 24.7342 25.9427 24.5719 25.9388 24.391L25.8823 21.9725C25.8779 21.7921 26.0203 21.6391 26.1987 21.6334L28.6223 21.5496C28.8003 21.5438 28.9462 21.5389 28.9462 21.5385C28.9462 21.5385 29.0922 21.5332 29.271 21.527L29.4489 21.5212C29.6273 21.515 29.7684 21.362 29.7623 21.1816L29.3919 10.1573C29.3858 9.97682 29.5265 9.82431 29.7053 9.81854L30.5823 9.7915C30.7602 9.78574 30.9579 9.64298 31.021 9.47406L31.6109 7.89263C31.6736 7.72416 31.5793 7.59071 31.401 7.59648L26.0786 7.76628C25.9002 7.77248 25.8205 7.90859 25.9011 8.06953L26.6786 9.61593C26.7597 9.77687 26.9718 9.90455 27.1502 9.89879L28.0044 9.87175C28.1832 9.86643 28.3339 10.0096 28.3401 10.1901L28.3765 11.2781C28.3826 11.4581 28.2415 11.611 28.0631 11.6172L25.8647 11.693C25.6863 11.6988 25.5356 11.556 25.5294 11.376L25.3901 7.22583C25.3839 7.04495 25.5251 6.89377 25.7034 6.88933L31.9282 6.73061C32.1066 6.72662 32.2543 6.87027 32.2565 7.05116L32.4471 24.0762C32.4489 24.2571 32.5966 24.4052 32.7754 24.4052L36.4911 24.4531C36.6694 24.4575 36.8149 24.3134 36.8145 24.1325L36.8114 23.1758C36.811 22.9949 36.811 22.6996 36.8119 22.5192L36.8697 7.29322C36.8702 7.11278 37.017 6.96692 37.1954 6.96913L38.3173 6.98421C38.4957 6.98643 38.6425 6.84056 38.6434 6.65968L38.657 4.23943C38.6579 4.05899 38.8047 3.91401 38.9835 3.91712L40.1191 3.93618C40.2974 3.93928 40.4469 3.79386 40.4508 3.61342L40.4868 1.98677C40.4907 1.80633 40.6397 1.66268 40.8186 1.66712L41.2906 1.67997C41.4689 1.68485 41.6127 1.83603 41.6101 2.01692L41.586 3.62849C41.5829 3.80938 41.7267 3.95923 41.9055 3.96234L42.9569 3.98096C43.1353 3.98406 43.2794 4.13436 43.2773 4.3148L43.2475 6.7448C43.2453 6.92524 43.3895 7.07554 43.5683 7.07864L44.6521 7.09771C44.8305 7.10037 44.976 7.25111 44.9756 7.43155L44.9234 24.5892C44.9225 24.7701 45.0676 24.9306 45.2455 24.9465L49.0191 25.322C49.1965 25.3407 49.3416 25.2085 49.3421 25.0281L49.3486 16.3491C49.3491 16.1682 49.3701 16.1673 49.3964 16.3455L50.6893 25.2015C50.7152 25.3801 50.8813 25.5459 51.0579 25.5703L53.7375 25.9587C53.9141 25.9853 54.0903 25.8634 54.1293 25.6869L56.1931 16.3943C56.2321 16.2183 56.258 16.2218 56.2501 16.4023L55.8394 25.9888C55.8315 26.1693 55.9683 26.3466 56.1432 26.3825L60.3782 27.3619C60.5513 27.4058 60.6933 27.3504 60.6937 27.2386C60.6937 27.1269 60.6999 27.0351 60.7069 27.0351C60.7139 27.0351 60.7266 26.8875 60.7358 26.7075L60.9589 22.09C60.9677 21.91 61.121 21.7624 61.2994 21.7624L63.8212 21.7624C63.9996 21.7624 64.1495 21.6147 64.1543 21.4339L64.224 18.7347C64.2288 18.5539 64.3787 18.4062 64.5571 18.4062L67.6018 18.4062C67.7801 18.4062 67.8862 18.5485 67.8371 18.7219ZM52.0834 8.64455L50.3483 12.2508C50.2703 12.413 50.2304 12.6919 50.2594 12.8697L52.0396 23.7774C52.0685 23.9552 52.2351 24.1308 52.41 24.1671L52.619 24.2106C52.7939 24.2469 52.9709 24.133 53.0121 23.9574L55.5283 13.2368C55.5695 13.0612 55.5563 12.7775 55.4993 12.6063L54.2021 8.73455C54.1451 8.56342 53.9693 8.35327 53.8129 8.26682L53.5026 8.09702C53.3452 8.01101 53.0818 7.99638 52.9166 8.06465L52.5265 8.22515C52.3609 8.29342 52.1615 8.48229 52.0834 8.64455ZM27.6353 9.07061C27.457 9.07593 27.2505 8.96111 27.1769 8.8148C27.1033 8.66805 27.1892 8.54391 27.3676 8.53815L30.2251 8.44638C30.4035 8.44106 30.5034 8.55987 30.4469 8.71106C30.3908 8.86224 30.1984 8.99037 30.02 8.99613L27.6353 9.07061ZM49.268 9.89657C49.2798 9.71657 49.435 9.57736 49.6133 9.588L49.9784 9.60928C50.1564 9.61948 50.2348 9.75869 50.152 9.91874L49.2921 11.5866C49.2093 11.7467 49.151 11.7298 49.1628 11.5498L49.268 9.89657ZM56.1405 9.95953L56.4933 9.97992C56.6713 9.99012 56.8128 10.1462 56.8076 10.3266L56.751 12.2175C56.7458 12.3984 56.6919 12.4068 56.6318 12.2366L55.9258 10.2495C55.8657 10.0797 55.9622 9.94889 56.1405 9.95953ZM28.4492 13.4434C28.4553 13.6238 28.3142 13.7763 28.1358 13.783L25.9375 13.8583C25.7591 13.8641 25.6083 13.7218 25.6022 13.5414L25.5877 13.1149C25.582 12.9344 25.7227 12.7819 25.9011 12.7752L28.0995 12.6999C28.2778 12.6941 28.4291 12.8364 28.4352 13.0169L28.4492 13.4434ZM25.675 15.7067L25.6605 15.2806C25.6548 15.0997 25.7955 14.9472 25.9739 14.941L28.1722 14.8652C28.3506 14.859 28.5018 15.0022 28.5075 15.1822L28.522 15.6091C28.5281 15.7891 28.387 15.9421 28.2086 15.9479L26.0107 16.0237C25.8319 16.0299 25.6811 15.8876 25.675 15.7067ZM28.245 17.031L26.0466 17.1068C25.8682 17.1125 25.7275 17.2655 25.7332 17.4455L25.7477 17.872C25.7538 18.0524 25.9046 18.1956 26.0834 18.189L28.2814 18.1136C28.4597 18.1079 28.6009 17.9549 28.5947 17.7745L28.5803 17.348C28.5746 17.1671 28.4234 17.0247 28.245 17.031ZM28.3177 19.1967L26.1194 19.2716C25.941 19.2779 25.8003 19.4308 25.806 19.6113L25.8205 20.0378C25.8266 20.2182 25.9774 20.361 26.1557 20.3548L28.3541 20.2789C28.5325 20.2727 28.6736 20.1207 28.6675 19.9398L28.653 19.5133C28.6473 19.3328 28.4961 19.1901 28.3177 19.1967ZM34.8839 32.2006C34.8839 32.2006 20.8921 32.7938 15.8581 33.8964C10.8443 34.9946 9.17973 36.3349 8.91939 37.093C8.91238 37.1307 8.90581 37.1675 8.90581 37.2012C8.90581 38.0511 10.7365 39.4658 15.8967 40.6588C20.9938 41.8373 34.9124 42.4713 34.9124 42.4713C35.0908 42.4792 35.3827 42.485 35.5615 42.4841L36.0738 42.481C36.2001 42.4806 36.307 42.4043 36.3605 42.297C36.3626 42.2819 36.3697 42.2682 36.3697 42.2522L39.5813 32.5611C39.5813 32.3802 39.4349 32.2316 39.2566 32.2308L38.7442 32.2281C38.7051 32.2279 38.5059 32.2261 38.2169 32.2235C37.1884 32.2142 35.0228 32.1947 34.8839 32.2006ZM44.4698 32.5557L41.6517 32.3203C41.5255 32.3163 41.4185 32.3886 41.3646 32.4941C41.3624 32.5087 41.3559 32.5216 41.3559 32.5371L38.3235 42.1192C38.3235 42.2997 38.4694 42.4429 38.6478 42.4371L41.5115 42.3276C41.6898 42.3196 41.9318 42.3077 42.0492 42.3019C42.1228 42.2975 42.1851 42.2327 42.2232 42.1423C42.2276 42.1166 42.2337 42.0909 42.2337 42.0634L45.2214 32.9224C45.2214 32.7415 45.125 32.5885 45.0076 32.5823C44.8901 32.5757 44.6482 32.5637 44.4698 32.5557ZM49.8917 33.1454L51.5001 33.325C51.6776 33.3458 51.9112 33.3737 52.0199 33.3875C52.1286 33.4012 52.2176 33.5599 52.2176 33.7404L49.1054 41.4325C49.1054 41.464 49.0997 41.4937 49.0944 41.5234C49.0585 41.6107 49.0024 41.6763 48.9367 41.6843C48.828 41.6976 48.5935 41.726 48.4164 41.7468L46.8084 41.9259C46.6305 41.9441 46.4854 41.8116 46.4854 41.6311L49.5976 33.3391C49.5976 33.325 49.6041 33.313 49.6055 33.2992C49.6589 33.1977 49.7659 33.1325 49.8917 33.1454Z" fill-rule="evenodd"/>
	</g>

</svg>