<?xml version="1.0" encoding="utf-8" ?>
<svg xmlns="http://www.w3.org/2000/svg" xmlns:xlink="http://www.w3.org/1999/xlink" width="43" height="26">
	<defs>
		<clipPath id="clip_0">
			<rect x="-267" y="-1409.2798" width="1382.4" height="2393.28" clip-rule="evenodd"/>
		</clipPath>
	</defs>
	<g clip-path="url(#clip_0)">
		<path fill="rgb(223,58,62)" stroke="none" transform="matrix(0.96 0 0 0.96 0.840088 0.959961)" d="M36.0893 12.2399C35.0731 12.24 34.0697 12.4656 33.1521 12.9002C32.8835 13.0262 32.5659 12.9868 32.3366 12.799C32.1073 12.6112 32.0073 12.3086 32.0798 12.0219C32.4951 10.4222 32.1415 8.7212 31.1225 7.41698C30.1036 6.11277 28.5346 5.35289 26.875 5.35985C26.0026 5.35795 25.1432 5.56999 24.3727 5.97724C24.1763 6.08039 23.9446 6.09384 23.7374 6.01412C23.5302 5.93439 23.3679 5.7693 23.2922 5.56141C22.2054 2.54956 19.4943 0.413942 16.3001 0.0535919C13.106 -0.306758 9.98366 1.17075 8.24747 3.86412C6.51128 6.55749 6.46282 9.99894 8.12249 12.7397C8.27862 12.9985 8.26717 13.3245 8.09326 13.5718C7.91934 13.8191 7.61554 13.9413 7.31788 13.8838C5.02516 13.4385 2.67721 14.3266 1.25986 16.1752C-0.157504 18.0237 -0.398884 20.5127 0.637061 22.5971C1.67301 24.6814 3.80692 26.0003 6.14286 26L36.0893 26C39.906 26 43 22.9197 43 19.1199C43 15.3202 39.906 12.2399 36.0893 12.2399Z"/>
	</g>

</svg>