<?xml version="1.0" encoding="utf-8" ?>
<svg xmlns="http://www.w3.org/2000/svg" xmlns:xlink="http://www.w3.org/1999/xlink" width="32" height="32">
	<defs>
		<clipPath id="clip_0">
			<rect x="-839" y="-1468" width="1440" height="2493" clip-rule="evenodd"/>
		</clipPath>
	</defs>
	<g clip-path="url(#clip_0)">
		<path fill="rgb(223,58,62)" stroke="none" d="M32 5.05038L32 28.145C31.9922 29.1458 31.599 30.1115 30.9022 30.8318C30.1859 31.5756 29.1776 31.9922 28.146 32L3.92798 32C2.46813 32 1.05109 31.2018 0.408759 29.8623C0.140146 29.3093 0 28.7213 0 28.1061L0 3.85106C0.00778589 2.88148 0.377616 1.95863 1.02774 1.23826C1.72068 0.478949 2.72506 0.035045 3.74891 0L27.6555 0C28.2667 0 28.874 0.0116817 29.4618 0.237527C30.9878 0.829399 31.9961 2.26235 32 3.90557L32 5.05038ZM24.3821 18.3577C24.722 18.3577 25 18.1183 25 17.7785L25 13.2215C25 12.8817 24.722 12.6423 24.3821 12.6423L18.3577 12.6423L18.3577 6.61789C18.3577 6.27805 18.1183 6 17.7785 6L13.2215 6C12.8817 6 12.6423 6.27805 12.6423 6.61789L12.6423 12.6423L6.61789 12.6423C6.27805 12.6423 6 12.8817 6 13.2215L6 17.7785C6 18.1183 6.27805 18.3577 6.61789 18.3577L12.6423 18.3577L12.6423 24.3821C12.6423 24.722 12.8817 25 13.2215 25L17.7785 25C18.1183 25 18.3577 24.722 18.3577 24.3821L18.3577 18.3577L24.3821 18.3577Z" fill-rule="evenodd"/>
	</g>

</svg>