<?xml version="1.0" encoding="utf-8" ?>
<svg xmlns="http://www.w3.org/2000/svg" xmlns:xlink="http://www.w3.org/1999/xlink" width="32" height="31">
	<defs>
		<clipPath id="clip_0">
			<rect x="-1128" y="-1470" width="1440" height="2493" clip-rule="evenodd"/>
		</clipPath>
	</defs>
	<g clip-path="url(#clip_0)">
		<path fill="rgb(223,58,62)" stroke="none" d="M6.5784 22.1111C8.25087 22.1111 9.81185 22.5556 11.0383 23.2222C11.0383 17 10.9268 10.2222 10.9268 3.88889C17.9512 2.55556 24.9756 1.33333 32 0C32 7.44444 31.8885 15.5556 32 23.1111C32 25.5556 29.101 27.5556 25.4216 27.5556C21.7422 27.5556 18.7317 25.5556 18.7317 23.1111C18.7317 20.6667 21.7422 18.6667 25.4216 18.6667C27.0941 18.6667 28.6551 19.1111 29.77 19.7778L29.77 7.66667L13.2683 10.7778C13.1568 16 13.1568 21.7778 13.2683 26.5556C13.2683 29.1111 10.2578 31 6.5784 31C3.01045 31 0 29.1111 0 26.5556C0 24.1111 3.01045 22.1111 6.5784 22.1111Z"/>
	</g>

</svg>