<?xml version="1.0" encoding="utf-8" ?>
<svg xmlns="http://www.w3.org/2000/svg" xmlns:xlink="http://www.w3.org/1999/xlink" width="33" height="35">
	<defs>
		<clipPath id="clip_0">
			<rect x="-561" y="-1464" width="1440" height="2493" clip-rule="evenodd"/>
		</clipPath>
	</defs>
	<g clip-path="url(#clip_0)">
		<path fill="rgb(223,58,62)" stroke="none" transform="translate(0 14.2188)" d="M15.8813 13.3596L14.9855 12.485L14.0806 11.6015L2.1812 0L1.37802 0.886645L0.614667 1.73088C-0.404189 2.85174 -0.102554 2.87002 1.12212 4.06052L15.6101 17.8181C20.1992 21.4355 24.7912 20.7399 30.6547 20.7064L33 20.5792L32.9598 18.3923L32.9381 17.2019L32.9164 17.2019L32.9164 17.2201L31.7099 17.217L31.7099 17.217L30.5215 17.2318L30.5183 17.2318L26.2138 17.2867C25.8656 17.2836 25.5273 17.2746 25.2013 17.2563C24.8933 17.2411 24.5948 17.2201 24.3086 17.1929C23.6899 17.1894 22.8032 17.0711 21.7693 16.7739C19.6827 16.2514 18.3003 15.4099 17.2969 14.5902C17.0693 14.426 16.8418 14.2564 16.6167 14.0739L15.8813 13.3596Z"/>
	</g>
	<defs>
		<clipPath id="clip_1">
			<rect x="-561" y="-1464" width="1440" height="2493" clip-rule="evenodd"/>
		</clipPath>
	</defs>
	<g clip-path="url(#clip_1)">
		<path fill="rgb(223,58,62)" stroke="none" transform="translate(2.19995 9.84375)" d="M11.8994 14.2975L12.9505 15.3125C13.743 12.5016 12.612 9.03508 10.0619 6.7303L2.60173 0L1.75768 0.908548L0 2.80406L11.8994 14.2975Z"/>
	</g>
	<defs>
		<clipPath id="clip_2">
			<rect x="-561" y="-1464" width="1440" height="2493" clip-rule="evenodd"/>
		</clipPath>
	</defs>
	<g clip-path="url(#clip_2)">
		<path fill="rgb(223,58,62)" stroke="none" transform="translate(6.6001 5.46875)" d="M7.17024 10.7533C9.88148 13.296 11.4312 17.5744 10.0842 21.1765L11.0748 22.1704C11.265 22.3233 11.4587 22.4758 11.6548 22.6191L11.6886 22.6443L11.7192 22.6694C12.9 23.6633 14.2159 24.2837 15.7036 24.6637L15.7252 24.6701L15.7468 24.6764C16.4219 24.8788 17.2313 25.0565 17.9401 25.0597L17.9956 25.0597L18.0478 25.066C18.3264 25.0912 18.6089 25.1127 18.8883 25.1251C19.2042 25.1439 19.5197 25.1531 19.8329 25.1563L25.3049 25.0844L25.3387 25.0844L26.4 25.0688C25.4275 18.2977 19.3877 19.0421 16.0662 12.6514L13.9833 6.15724L13.9617 6.18518L13.7224 6.47178C11.2505 6.52847 8.96791 6.80869 7.12152 5.41557C6.25667 4.76412 5.3765 3.76699 4.71402 2.58903C4.65586 2.48645 4.60046 2.38066 4.54506 2.27448L4.55134 2.2681C4.42836 2.05973 4.31205 1.84418 4.20438 1.62623C4.15252 1.51765 4.10026 1.40509 4.04839 1.28973C3.8645 0.875385 3.71125 0.442283 3.59455 0L0 4.02925L7.17024 10.7533Z"/>
	</g>
	<defs>
		<clipPath id="clip_3">
			<rect x="-561" y="-1464" width="1440" height="2493" clip-rule="evenodd"/>
		</clipPath>
	</defs>
	<g clip-path="url(#clip_3)">
		<path fill="rgb(223,58,62)" stroke="none" transform="translate(11 0)" d="M4.09233 10.6326C5.31716 11.0398 6.92358 10.9403 8.28401 10.8857L9.59793 9.27226L9.60108 9.27883L12.1 6.19657L3.96973 0L0 5.60329C0.10762 5.93732 0.239682 6.26395 0.390666 6.57826C0.486066 6.77424 0.587773 6.96652 0.692634 7.15551L1.10498 7.8741L1.09276 7.89013C1.59144 8.70157 2.24032 9.4744 2.95739 10.0295C3.30154 10.299 3.68038 10.4946 4.09233 10.6326L4.09233 10.6326Z"/>
	</g>

</svg>